STARTFONT 2.1
COMMENT $XConsortium: clR6x12.bdf,v 1.2 94/04/11 12:08:30 gildea Exp $
COMMENT  
COMMENT  Copyright 1989 Dale Schumacher, dal@syntel.mn.org
COMMENT                 399 Beacon Ave.
COMMENT                 St. Paul, MN  55104-3527
COMMENT  
COMMENT  Permission to use, copy, modify, and distribute this software and
COMMENT  its documentation for any purpose and without fee is hereby
COMMENT  granted, provided that the above copyright notice appear in all
COMMENT  copies and that both that copyright notice and this permission
COMMENT  notice appear in supporting documentation, and that the name of
COMMENT  Dale Schumacher not be used in advertising or publicity pertaining to
COMMENT  distribution of the software without specific, written prior
COMMENT  permission.  Dale Schumacher makes no representations about the
COMMENT  suitability of this software for any purpose.  It is provided "as
COMMENT  is" without express or implied warranty.
COMMENT  
COMMENT 
COMMENT  Modified by Robert Brady, <rwb197@ecs.soton.ac.uk>
COMMENT 
FONT -Schumacher-Clean-Medium-R-Normal--12-120-75-75-C-60-ISO10646-1
SIZE 12 75 75
FONTBOUNDINGBOX 6 12 0 -3
STARTPROPERTIES 22
FONTNAME_REGISTRY ""
FOUNDRY "Schumacher"
FAMILY_NAME "Clean"
WEIGHT_NAME "Medium"
SLANT "R"
SETWIDTH_NAME "Normal"
ADD_STYLE_NAME ""
PIXEL_SIZE 12
POINT_SIZE 120
RESOLUTION_X 75
RESOLUTION_Y 75
SPACING "C"
AVERAGE_WIDTH 60
CHARSET_REGISTRY "ISO10646"
CHARSET_ENCODING "1"
FONT_ASCENT 9
FONT_DESCENT 3
DEFAULT_CHAR 0
COPYRIGHT "Copyright 1989 Dale Schumacher, 1999 Robert Brady."
_XMBDFED_INFO "Edited with xmbdfed 4.5."
CAP_HEIGHT 8
X_HEIGHT 5
ENDPROPERTIES
CHARS 1194
STARTCHAR char0
ENCODING 0
SWIDTH 480 0
DWIDTH 6 0
BBX 6 12 0 -3
BITMAP
00
00
A8
00
88
00
88
00
A8
00
00
00
ENDCHAR
STARTCHAR space
ENCODING 32
SWIDTH 480 0
DWIDTH 6 0
BBX 6 12 0 -3
BITMAP
00
00
00
00
00
00
00
00
00
00
00
00
ENDCHAR
STARTCHAR exclam
ENCODING 33
SWIDTH 480 0
DWIDTH 6 0
BBX 6 12 0 -3
BITMAP
00
20
20
20
20
20
20
00
20
00
00
00
ENDCHAR
STARTCHAR quotedbl
ENCODING 34
SWIDTH 480 0
DWIDTH 6 0
BBX 6 12 0 -3
BITMAP
00
50
50
50
00
00
00
00
00
00
00
00
ENDCHAR
STARTCHAR numbersign
ENCODING 35
SWIDTH 480 0
DWIDTH 6 0
BBX 6 12 0 -3
BITMAP
00
00
50
50
F8
50
F8
50
50
00
00
00
ENDCHAR
STARTCHAR dollar
ENCODING 36
SWIDTH 480 0
DWIDTH 6 0
BBX 6 12 0 -3
BITMAP
00
00
20
78
A0
70
28
F0
20
00
00
00
ENDCHAR
STARTCHAR percent
ENCODING 37
SWIDTH 480 0
DWIDTH 6 0
BBX 6 12 0 -3
BITMAP
00
00
C0
C8
10
20
40
98
18
00
00
00
ENDCHAR
STARTCHAR ampersand
ENCODING 38
SWIDTH 480 0
DWIDTH 6 0
BBX 6 12 0 -3
BITMAP
00
00
70
80
80
40
A8
90
68
00
00
00
ENDCHAR
STARTCHAR quotesingle
ENCODING 39
SWIDTH 480 0
DWIDTH 6 0
BBX 6 12 0 -3
BITMAP
00
20
20
20
00
00
00
00
00
00
00
00
ENDCHAR
STARTCHAR parenleft
ENCODING 40
SWIDTH 480 0
DWIDTH 6 0
BBX 6 12 0 -3
BITMAP
08
10
10
20
20
20
20
20
10
10
08
00
ENDCHAR
STARTCHAR parenright
ENCODING 41
SWIDTH 480 0
DWIDTH 6 0
BBX 6 12 0 -3
BITMAP
40
20
20
10
10
10
10
10
20
20
40
00
ENDCHAR
STARTCHAR asterisk
ENCODING 42
SWIDTH 480 0
DWIDTH 6 0
BBX 6 12 0 -3
BITMAP
00
00
00
20
A8
70
A8
20
00
00
00
00
ENDCHAR
STARTCHAR plus
ENCODING 43
SWIDTH 480 0
DWIDTH 6 0
BBX 6 12 0 -3
BITMAP
00
00
00
20
20
F8
20
20
00
00
00
00
ENDCHAR
STARTCHAR comma
ENCODING 44
SWIDTH 480 0
DWIDTH 6 0
BBX 6 12 0 -3
BITMAP
00
00
00
00
00
00
00
30
30
20
40
00
ENDCHAR
STARTCHAR hyphen
ENCODING 45
SWIDTH 480 0
DWIDTH 6 0
BBX 6 12 0 -3
BITMAP
00
00
00
00
00
F8
00
00
00
00
00
00
ENDCHAR
STARTCHAR period
ENCODING 46
SWIDTH 480 0
DWIDTH 6 0
BBX 6 12 0 -3
BITMAP
00
00
00
00
00
00
00
30
30
00
00
00
ENDCHAR
STARTCHAR slash
ENCODING 47
SWIDTH 480 0
DWIDTH 6 0
BBX 6 12 0 -3
BITMAP
08
08
10
10
20
20
40
40
80
80
00
00
ENDCHAR
STARTCHAR zero
ENCODING 48
SWIDTH 480 0
DWIDTH 6 0
BBX 6 12 0 -3
BITMAP
00
70
88
98
A8
C8
88
88
70
00
00
00
ENDCHAR
STARTCHAR one
ENCODING 49
SWIDTH 480 0
DWIDTH 6 0
BBX 6 12 0 -3
BITMAP
00
10
30
10
10
10
10
10
10
00
00
00
ENDCHAR
STARTCHAR two
ENCODING 50
SWIDTH 480 0
DWIDTH 6 0
BBX 6 12 0 -3
BITMAP
00
70
88
08
10
20
40
80
F8
00
00
00
ENDCHAR
STARTCHAR three
ENCODING 51
SWIDTH 480 0
DWIDTH 6 0
BBX 6 12 0 -3
BITMAP
00
70
88
08
30
08
08
88
70
00
00
00
ENDCHAR
STARTCHAR four
ENCODING 52
SWIDTH 480 0
DWIDTH 6 0
BBX 6 12 0 -3
BITMAP
00
10
30
30
50
50
F8
10
38
00
00
00
ENDCHAR
STARTCHAR five
ENCODING 53
SWIDTH 480 0
DWIDTH 6 0
BBX 6 12 0 -3
BITMAP
00
F8
80
80
F0
08
08
88
70
00
00
00
ENDCHAR
STARTCHAR six
ENCODING 54
SWIDTH 480 0
DWIDTH 6 0
BBX 6 12 0 -3
BITMAP
00
30
40
80
F0
88
88
88
70
00
00
00
ENDCHAR
STARTCHAR seven
ENCODING 55
SWIDTH 480 0
DWIDTH 6 0
BBX 6 12 0 -3
BITMAP
00
F8
88
08
08
10
10
20
20
00
00
00
ENDCHAR
STARTCHAR eight
ENCODING 56
SWIDTH 480 0
DWIDTH 6 0
BBX 6 12 0 -3
BITMAP
00
70
88
88
70
88
88
88
70
00
00
00
ENDCHAR
STARTCHAR nine
ENCODING 57
SWIDTH 480 0
DWIDTH 6 0
BBX 6 12 0 -3
BITMAP
00
70
88
88
88
78
08
10
60
00
00
00
ENDCHAR
STARTCHAR colon
ENCODING 58
SWIDTH 480 0
DWIDTH 6 0
BBX 6 12 0 -3
BITMAP
00
00
00
30
30
00
00
30
30
00
00
00
ENDCHAR
STARTCHAR semicolon
ENCODING 59
SWIDTH 480 0
DWIDTH 6 0
BBX 6 12 0 -3
BITMAP
00
00
00
30
30
00
00
30
30
20
40
00
ENDCHAR
STARTCHAR less
ENCODING 60
SWIDTH 480 0
DWIDTH 6 0
BBX 6 12 0 -3
BITMAP
00
00
00
0C
30
C0
30
0C
00
00
00
00
ENDCHAR
STARTCHAR equal
ENCODING 61
SWIDTH 480 0
DWIDTH 6 0
BBX 6 12 0 -3
BITMAP
00
00
00
00
F8
00
F8
00
00
00
00
00
ENDCHAR
STARTCHAR greater
ENCODING 62
SWIDTH 480 0
DWIDTH 6 0
BBX 6 12 0 -3
BITMAP
00
00
00
C0
30
0C
30
C0
00
00
00
00
ENDCHAR
STARTCHAR question
ENCODING 63
SWIDTH 480 0
DWIDTH 6 0
BBX 6 12 0 -3
BITMAP
00
70
88
08
10
20
20
00
20
00
00
00
ENDCHAR
STARTCHAR at
ENCODING 64
SWIDTH 480 0
DWIDTH 6 0
BBX 6 12 0 -3
BITMAP
00
00
70
88
B8
B8
B0
80
70
00
00
00
ENDCHAR
STARTCHAR A
ENCODING 65
SWIDTH 480 0
DWIDTH 6 0
BBX 6 12 0 -3
BITMAP
00
00
20
50
88
88
F8
88
88
00
00
00
ENDCHAR
STARTCHAR B
ENCODING 66
SWIDTH 480 0
DWIDTH 6 0
BBX 6 12 0 -3
BITMAP
00
00
F0
88
88
F0
88
88
F0
00
00
00
ENDCHAR
STARTCHAR C
ENCODING 67
SWIDTH 480 0
DWIDTH 6 0
BBX 6 12 0 -3
BITMAP
00
00
70
88
80
80
80
88
70
00
00
00
ENDCHAR
STARTCHAR D
ENCODING 68
SWIDTH 480 0
DWIDTH 6 0
BBX 6 12 0 -3
BITMAP
00
00
E0
90
88
88
88
90
E0
00
00
00
ENDCHAR
STARTCHAR E
ENCODING 69
SWIDTH 480 0
DWIDTH 6 0
BBX 6 12 0 -3
BITMAP
00
00
F8
80
80
F0
80
80
F8
00
00
00
ENDCHAR
STARTCHAR F
ENCODING 70
SWIDTH 480 0
DWIDTH 6 0
BBX 6 12 0 -3
BITMAP
00
00
F8
80
80
F0
80
80
80
00
00
00
ENDCHAR
STARTCHAR G
ENCODING 71
SWIDTH 480 0
DWIDTH 6 0
BBX 6 12 0 -3
BITMAP
00
00
70
88
80
98
88
88
78
00
00
00
ENDCHAR
STARTCHAR H
ENCODING 72
SWIDTH 480 0
DWIDTH 6 0
BBX 6 12 0 -3
BITMAP
00
00
88
88
88
F8
88
88
88
00
00
00
ENDCHAR
STARTCHAR I
ENCODING 73
SWIDTH 480 0
DWIDTH 6 0
BBX 6 12 0 -3
BITMAP
00
00
F8
20
20
20
20
20
F8
00
00
00
ENDCHAR
STARTCHAR J
ENCODING 74
SWIDTH 480 0
DWIDTH 6 0
BBX 6 12 0 -3
BITMAP
00
00
38
08
08
08
88
88
70
00
00
00
ENDCHAR
STARTCHAR K
ENCODING 75
SWIDTH 480 0
DWIDTH 6 0
BBX 6 12 0 -3
BITMAP
00
00
88
90
A0
C0
A0
90
88
00
00
00
ENDCHAR
STARTCHAR L
ENCODING 76
SWIDTH 480 0
DWIDTH 6 0
BBX 6 12 0 -3
BITMAP
00
00
80
80
80
80
80
80
F8
00
00
00
ENDCHAR
STARTCHAR M
ENCODING 77
SWIDTH 480 0
DWIDTH 6 0
BBX 6 12 0 -3
BITMAP
00
00
88
D8
A8
A8
88
88
88
00
00
00
ENDCHAR
STARTCHAR N
ENCODING 78
SWIDTH 480 0
DWIDTH 6 0
BBX 6 12 0 -3
BITMAP
00
00
88
C8
C8
A8
98
98
88
00
00
00
ENDCHAR
STARTCHAR O
ENCODING 79
SWIDTH 480 0
DWIDTH 6 0
BBX 6 12 0 -3
BITMAP
00
00
70
88
88
88
88
88
70
00
00
00
ENDCHAR
STARTCHAR P
ENCODING 80
SWIDTH 480 0
DWIDTH 6 0
BBX 6 12 0 -3
BITMAP
00
00
F0
88
88
F0
80
80
80
00
00
00
ENDCHAR
STARTCHAR Q
ENCODING 81
SWIDTH 480 0
DWIDTH 6 0
BBX 6 12 0 -3
BITMAP
00
00
70
88
88
88
88
88
70
18
00
00
ENDCHAR
STARTCHAR R
ENCODING 82
SWIDTH 480 0
DWIDTH 6 0
BBX 6 12 0 -3
BITMAP
00
00
F0
88
88
F0
A0
90
88
00
00
00
ENDCHAR
STARTCHAR S
ENCODING 83
SWIDTH 480 0
DWIDTH 6 0
BBX 6 12 0 -3
BITMAP
00
00
70
88
80
70
08
88
70
00
00
00
ENDCHAR
STARTCHAR T
ENCODING 84
SWIDTH 480 0
DWIDTH 6 0
BBX 6 12 0 -3
BITMAP
00
00
F8
20
20
20
20
20
20
00
00
00
ENDCHAR
STARTCHAR U
ENCODING 85
SWIDTH 480 0
DWIDTH 6 0
BBX 6 12 0 -3
BITMAP
00
00
88
88
88
88
88
88
70
00
00
00
ENDCHAR
STARTCHAR V
ENCODING 86
SWIDTH 480 0
DWIDTH 6 0
BBX 6 12 0 -3
BITMAP
00
00
88
88
88
50
50
20
20
00
00
00
ENDCHAR
STARTCHAR W
ENCODING 87
SWIDTH 480 0
DWIDTH 6 0
BBX 6 12 0 -3
BITMAP
00
00
88
88
88
A8
A8
D8
88
00
00
00
ENDCHAR
STARTCHAR X
ENCODING 88
SWIDTH 480 0
DWIDTH 6 0
BBX 6 12 0 -3
BITMAP
00
00
88
88
50
20
50
88
88
00
00
00
ENDCHAR
STARTCHAR Y
ENCODING 89
SWIDTH 480 0
DWIDTH 6 0
BBX 6 12 0 -3
BITMAP
00
00
88
88
50
20
20
20
20
00
00
00
ENDCHAR
STARTCHAR Z
ENCODING 90
SWIDTH 480 0
DWIDTH 6 0
BBX 6 12 0 -3
BITMAP
00
00
F8
08
10
20
40
80
F8
00
00
00
ENDCHAR
STARTCHAR bracketleft
ENCODING 91
SWIDTH 480 0
DWIDTH 6 0
BBX 6 12 0 -3
BITMAP
38
20
20
20
20
20
20
20
20
20
38
00
ENDCHAR
STARTCHAR backslash
ENCODING 92
SWIDTH 480 0
DWIDTH 6 0
BBX 6 12 0 -3
BITMAP
80
80
40
40
20
20
10
10
08
08
00
00
ENDCHAR
STARTCHAR bracketright
ENCODING 93
SWIDTH 480 0
DWIDTH 6 0
BBX 6 12 0 -3
BITMAP
70
10
10
10
10
10
10
10
10
10
70
00
ENDCHAR
STARTCHAR asciicircum
ENCODING 94
SWIDTH 480 0
DWIDTH 6 0
BBX 6 12 0 -3
BITMAP
00
20
50
88
00
00
00
00
00
00
00
00
ENDCHAR
STARTCHAR underscore
ENCODING 95
SWIDTH 480 0
DWIDTH 6 0
BBX 6 12 0 -3
BITMAP
00
00
00
00
00
00
00
00
00
FC
00
00
ENDCHAR
STARTCHAR grave
ENCODING 96
SWIDTH 480 0
DWIDTH 6 0
BBX 6 12 0 -3
BITMAP
00
20
10
00
00
00
00
00
00
00
00
00
ENDCHAR
STARTCHAR a
ENCODING 97
SWIDTH 480 0
DWIDTH 6 0
BBX 6 12 0 -3
BITMAP
00
00
00
00
78
88
88
98
68
00
00
00
ENDCHAR
STARTCHAR b
ENCODING 98
SWIDTH 480 0
DWIDTH 6 0
BBX 6 12 0 -3
BITMAP
00
80
80
80
F0
88
88
88
F0
00
00
00
ENDCHAR
STARTCHAR c
ENCODING 99
SWIDTH 480 0
DWIDTH 6 0
BBX 6 12 0 -3
BITMAP
00
00
00
00
78
80
80
80
78
00
00
00
ENDCHAR
STARTCHAR d
ENCODING 100
SWIDTH 480 0
DWIDTH 6 0
BBX 6 12 0 -3
BITMAP
00
08
08
08
78
88
88
88
78
00
00
00
ENDCHAR
STARTCHAR e
ENCODING 101
SWIDTH 480 0
DWIDTH 6 0
BBX 6 12 0 -3
BITMAP
00
00
00
00
70
88
F8
80
70
00
00
00
ENDCHAR
STARTCHAR f
ENCODING 102
SWIDTH 480 0
DWIDTH 6 0
BBX 6 12 0 -3
BITMAP
00
38
40
40
F0
40
40
40
40
00
00
00
ENDCHAR
STARTCHAR g
ENCODING 103
SWIDTH 480 0
DWIDTH 6 0
BBX 6 12 0 -3
BITMAP
00
00
00
00
78
88
88
88
78
08
08
70
ENDCHAR
STARTCHAR h
ENCODING 104
SWIDTH 480 0
DWIDTH 6 0
BBX 6 12 0 -3
BITMAP
00
80
80
80
F0
88
88
88
88
00
00
00
ENDCHAR
STARTCHAR i
ENCODING 105
SWIDTH 480 0
DWIDTH 6 0
BBX 6 12 0 -3
BITMAP
00
20
20
00
60
20
20
20
70
00
00
00
ENDCHAR
STARTCHAR j
ENCODING 106
SWIDTH 480 0
DWIDTH 6 0
BBX 6 12 0 -3
BITMAP
00
08
08
00
38
08
08
08
08
08
08
70
ENDCHAR
STARTCHAR k
ENCODING 107
SWIDTH 480 0
DWIDTH 6 0
BBX 6 12 0 -3
BITMAP
00
40
40
40
48
50
60
50
48
00
00
00
ENDCHAR
STARTCHAR l
ENCODING 108
SWIDTH 480 0
DWIDTH 6 0
BBX 6 12 0 -3
BITMAP
00
60
20
20
20
20
20
20
70
00
00
00
ENDCHAR
STARTCHAR m
ENCODING 109
SWIDTH 480 0
DWIDTH 6 0
BBX 6 12 0 -3
BITMAP
00
00
00
00
D0
A8
A8
A8
88
00
00
00
ENDCHAR
STARTCHAR n
ENCODING 110
SWIDTH 480 0
DWIDTH 6 0
BBX 6 12 0 -3
BITMAP
00
00
00
00
B0
C8
88
88
88
00
00
00
ENDCHAR
STARTCHAR o
ENCODING 111
SWIDTH 480 0
DWIDTH 6 0
BBX 6 12 0 -3
BITMAP
00
00
00
00
70
88
88
88
70
00
00
00
ENDCHAR
STARTCHAR p
ENCODING 112
SWIDTH 480 0
DWIDTH 6 0
BBX 6 12 0 -3
BITMAP
00
00
00
00
F0
88
88
88
F0
80
80
80
ENDCHAR
STARTCHAR q
ENCODING 113
SWIDTH 480 0
DWIDTH 6 0
BBX 6 12 0 -3
BITMAP
00
00
00
00
78
88
88
88
78
08
08
08
ENDCHAR
STARTCHAR r
ENCODING 114
SWIDTH 480 0
DWIDTH 6 0
BBX 6 12 0 -3
BITMAP
00
00
00
00
58
60
40
40
40
00
00
00
ENDCHAR
STARTCHAR s
ENCODING 115
SWIDTH 480 0
DWIDTH 6 0
BBX 6 12 0 -3
BITMAP
00
00
00
00
78
80
70
08
F0
00
00
00
ENDCHAR
STARTCHAR t
ENCODING 116
SWIDTH 480 0
DWIDTH 6 0
BBX 6 12 0 -3
BITMAP
00
20
20
20
70
20
20
20
18
00
00
00
ENDCHAR
STARTCHAR u
ENCODING 117
SWIDTH 480 0
DWIDTH 6 0
BBX 6 12 0 -3
BITMAP
00
00
00
00
88
88
88
98
68
00
00
00
ENDCHAR
STARTCHAR v
ENCODING 118
SWIDTH 480 0
DWIDTH 6 0
BBX 6 12 0 -3
BITMAP
00
00
00
00
D8
50
50
20
20
00
00
00
ENDCHAR
STARTCHAR w
ENCODING 119
SWIDTH 480 0
DWIDTH 6 0
BBX 6 12 0 -3
BITMAP
00
00
00
00
88
A8
A8
A8
50
00
00
00
ENDCHAR
STARTCHAR x
ENCODING 120
SWIDTH 480 0
DWIDTH 6 0
BBX 6 12 0 -3
BITMAP
00
00
00
00
88
50
20
50
88
00
00
00
ENDCHAR
STARTCHAR y
ENCODING 121
SWIDTH 480 0
DWIDTH 6 0
BBX 6 12 0 -3
BITMAP
00
00
00
00
88
88
88
88
78
08
08
70
ENDCHAR
STARTCHAR z
ENCODING 122
SWIDTH 480 0
DWIDTH 6 0
BBX 6 12 0 -3
BITMAP
00
00
00
00
F8
10
20
40
F8
00
00
00
ENDCHAR
STARTCHAR braceleft
ENCODING 123
SWIDTH 480 0
DWIDTH 6 0
BBX 6 12 0 -3
BITMAP
08
10
10
10
10
20
10
10
10
10
08
00
ENDCHAR
STARTCHAR bar
ENCODING 124
SWIDTH 480 0
DWIDTH 6 0
BBX 6 12 0 -3
BITMAP
20
20
20
20
20
20
20
20
20
20
20
00
ENDCHAR
STARTCHAR braceright
ENCODING 125
SWIDTH 480 0
DWIDTH 6 0
BBX 6 12 0 -3
BITMAP
40
20
20
20
20
10
20
20
20
20
40
00
ENDCHAR
STARTCHAR asciitilde
ENCODING 126
SWIDTH 480 0
DWIDTH 6 0
BBX 6 12 0 -3
BITMAP
00
00
00
00
40
A8
10
00
00
00
00
00
ENDCHAR
STARTCHAR space
ENCODING 160
SWIDTH 480 0
DWIDTH 6 0
BBX 6 12 0 -3
BITMAP
00
00
00
00
00
00
00
00
00
00
00
00
ENDCHAR
STARTCHAR exclamdown
ENCODING 161
SWIDTH 480 0
DWIDTH 6 0
BBX 6 12 0 -3
BITMAP
00
20
00
20
20
20
20
20
20
00
00
00
ENDCHAR
STARTCHAR cent
ENCODING 162
SWIDTH 480 0
DWIDTH 6 0
BBX 6 12 0 -3
BITMAP
00
00
00
20
70
A8
A0
A8
70
20
00
00
ENDCHAR
STARTCHAR sterling
ENCODING 163
SWIDTH 480 0
DWIDTH 6 0
BBX 6 12 0 -3
BITMAP
00
30
48
40
E0
40
40
48
B0
00
00
00
ENDCHAR
STARTCHAR currency
ENCODING 164
SWIDTH 480 0
DWIDTH 6 0
BBX 6 12 0 -3
BITMAP
00
00
00
00
88
70
50
70
88
00
00
00
ENDCHAR
STARTCHAR yen
ENCODING 165
SWIDTH 480 0
DWIDTH 6 0
BBX 6 12 0 -3
BITMAP
00
00
88
50
20
70
20
70
20
00
00
00
ENDCHAR
STARTCHAR brokenbar
ENCODING 166
SWIDTH 480 0
DWIDTH 6 0
BBX 6 12 0 -3
BITMAP
00
00
20
20
20
00
20
20
20
00
00
00
ENDCHAR
STARTCHAR section
ENCODING 167
SWIDTH 480 0
DWIDTH 6 0
BBX 6 12 0 -3
BITMAP
30
48
40
30
48
48
48
30
08
48
30
00
ENDCHAR
STARTCHAR dieresis
ENCODING 168
SWIDTH 480 0
DWIDTH 6 0
BBX 6 12 0 -3
BITMAP
00
50
50
00
00
00
00
00
00
00
00
00
ENDCHAR
STARTCHAR copyright
ENCODING 169
SWIDTH 480 0
DWIDTH 6 0
BBX 6 12 0 -3
BITMAP
00
78
84
B4
A4
A4
B4
84
78
00
00
00
ENDCHAR
STARTCHAR ordfeminine
ENCODING 170
SWIDTH 480 0
DWIDTH 6 0
BBX 6 12 0 -3
BITMAP
30
08
38
48
38
00
78
00
00
00
00
00
ENDCHAR
STARTCHAR guillemotleft
ENCODING 171
SWIDTH 480 0
DWIDTH 6 0
BBX 6 12 0 -3
BITMAP
00
00
00
28
50
A0
50
28
00
00
00
00
ENDCHAR
STARTCHAR logicalnot
ENCODING 172
SWIDTH 480 0
DWIDTH 6 0
BBX 6 12 0 -3
BITMAP
00
00
00
00
00
78
08
00
00
00
00
00
ENDCHAR
STARTCHAR hyphen
ENCODING 173
SWIDTH 480 0
DWIDTH 6 0
BBX 6 12 0 -3
BITMAP
00
00
00
00
00
78
00
00
00
00
00
00
ENDCHAR
STARTCHAR registered
ENCODING 174
SWIDTH 480 0
DWIDTH 6 0
BBX 6 12 0 -3
BITMAP
00
78
84
B4
AC
B4
AC
84
78
00
00
00
ENDCHAR
STARTCHAR macron
ENCODING 175
SWIDTH 480 0
DWIDTH 6 0
BBX 6 12 0 -3
BITMAP
00
00
F8
00
00
00
00
00
00
00
00
00
ENDCHAR
STARTCHAR degree
ENCODING 176
SWIDTH 480 0
DWIDTH 6 0
BBX 6 12 0 -3
BITMAP
00
30
48
48
30
00
00
00
00
00
00
00
ENDCHAR
STARTCHAR plusminus
ENCODING 177
SWIDTH 480 0
DWIDTH 6 0
BBX 6 12 0 -3
BITMAP
00
00
20
20
F8
20
20
00
F8
00
00
00
ENDCHAR
STARTCHAR twosuperior
ENCODING 178
SWIDTH 480 0
DWIDTH 6 0
BBX 6 12 0 -3
BITMAP
60
10
20
40
70
00
00
00
00
00
00
00
ENDCHAR
STARTCHAR threesuperior
ENCODING 179
SWIDTH 480 0
DWIDTH 6 0
BBX 6 12 0 -3
BITMAP
60
10
20
10
60
00
00
00
00
00
00
00
ENDCHAR
STARTCHAR acute
ENCODING 180
SWIDTH 480 0
DWIDTH 6 0
BBX 6 12 0 -3
BITMAP
00
10
20
00
00
00
00
00
00
00
00
00
ENDCHAR
STARTCHAR mu
ENCODING 181
SWIDTH 480 0
DWIDTH 6 0
BBX 6 12 0 -3
BITMAP
00
00
00
00
88
88
88
C8
B0
80
80
00
ENDCHAR
STARTCHAR paragraph
ENCODING 182
SWIDTH 480 0
DWIDTH 6 0
BBX 6 12 0 -3
BITMAP
00
00
78
E8
E8
68
28
28
28
00
00
00
ENDCHAR
STARTCHAR periodcentered
ENCODING 183
SWIDTH 480 0
DWIDTH 6 0
BBX 6 12 0 -3
BITMAP
00
00
00
00
00
00
30
00
00
00
00
00
ENDCHAR
STARTCHAR cedilla
ENCODING 184
SWIDTH 480 0
DWIDTH 6 0
BBX 6 12 0 -3
BITMAP
00
00
00
00
00
00
00
00
00
10
20
00
ENDCHAR
STARTCHAR onesuperior
ENCODING 185
SWIDTH 480 0
DWIDTH 6 0
BBX 6 12 0 -3
BITMAP
20
60
20
20
20
00
00
00
00
00
00
00
ENDCHAR
STARTCHAR ordmasculine
ENCODING 186
SWIDTH 480 0
DWIDTH 6 0
BBX 6 12 0 -3
BITMAP
30
48
48
48
30
00
78
00
00
00
00
00
ENDCHAR
STARTCHAR guillemotright
ENCODING 187
SWIDTH 480 0
DWIDTH 6 0
BBX 6 12 0 -3
BITMAP
00
00
00
A0
50
28
50
A0
00
00
00
00
ENDCHAR
STARTCHAR onequarter
ENCODING 188
SWIDTH 480 0
DWIDTH 6 0
BBX 6 12 0 -3
BITMAP
00
40
40
40
48
10
28
38
08
00
00
00
ENDCHAR
STARTCHAR onehalf
ENCODING 189
SWIDTH 480 0
DWIDTH 6 0
BBX 6 12 0 -3
BITMAP
00
40
40
40
70
08
10
20
38
00
00
00
ENDCHAR
STARTCHAR threequarters
ENCODING 190
SWIDTH 480 0
DWIDTH 6 0
BBX 6 12 0 -3
BITMAP
00
C0
40
20
C8
10
28
38
08
00
00
00
ENDCHAR
STARTCHAR questiondown
ENCODING 191
SWIDTH 480 0
DWIDTH 6 0
BBX 6 12 0 -3
BITMAP
00
20
00
20
20
40
80
88
70
00
00
00
ENDCHAR
STARTCHAR Agrave
ENCODING 192
SWIDTH 480 0
DWIDTH 6 0
BBX 6 12 0 -3
BITMAP
40
20
00
70
88
88
F8
88
88
00
00
00
ENDCHAR
STARTCHAR Aacute
ENCODING 193
SWIDTH 480 0
DWIDTH 6 0
BBX 6 12 0 -3
BITMAP
10
20
00
70
88
88
F8
88
88
00
00
00
ENDCHAR
STARTCHAR Acircumflex
ENCODING 194
SWIDTH 480 0
DWIDTH 6 0
BBX 6 12 0 -3
BITMAP
20
50
00
70
88
88
F8
88
88
00
00
00
ENDCHAR
STARTCHAR Atilde
ENCODING 195
SWIDTH 480 0
DWIDTH 6 0
BBX 6 12 0 -3
BITMAP
28
50
00
70
88
88
F8
88
88
00
00
00
ENDCHAR
STARTCHAR Adieresis
ENCODING 196
SWIDTH 480 0
DWIDTH 6 0
BBX 6 12 0 -3
BITMAP
00
50
00
70
88
88
F8
88
88
00
00
00
ENDCHAR
STARTCHAR Aring
ENCODING 197
SWIDTH 480 0
DWIDTH 6 0
BBX 6 12 0 -3
BITMAP
20
50
20
70
88
88
F8
88
88
00
00
00
ENDCHAR
STARTCHAR AE
ENCODING 198
SWIDTH 480 0
DWIDTH 6 0
BBX 6 12 0 -3
BITMAP
00
00
78
A0
A0
B8
E0
A0
B8
00
00
00
ENDCHAR
STARTCHAR Ccedilla
ENCODING 199
SWIDTH 480 0
DWIDTH 6 0
BBX 6 12 0 -3
BITMAP
00
00
70
88
80
80
80
88
70
20
40
00
ENDCHAR
STARTCHAR Egrave
ENCODING 200
SWIDTH 480 0
DWIDTH 6 0
BBX 6 12 0 -3
BITMAP
40
20
00
F8
80
F0
80
80
F8
00
00
00
ENDCHAR
STARTCHAR Eacute
ENCODING 201
SWIDTH 480 0
DWIDTH 6 0
BBX 6 12 0 -3
BITMAP
10
20
00
F8
80
F0
80
80
F8
00
00
00
ENDCHAR
STARTCHAR Ecircumflex
ENCODING 202
SWIDTH 480 0
DWIDTH 6 0
BBX 6 12 0 -3
BITMAP
20
50
00
F8
80
F0
80
80
F8
00
00
00
ENDCHAR
STARTCHAR Edieresis
ENCODING 203
SWIDTH 480 0
DWIDTH 6 0
BBX 6 12 0 -3
BITMAP
00
50
00
F8
80
F0
80
80
F8
00
00
00
ENDCHAR
STARTCHAR Igrave
ENCODING 204
SWIDTH 480 0
DWIDTH 6 0
BBX 6 12 0 -3
BITMAP
40
20
00
F8
20
20
20
20
F8
00
00
00
ENDCHAR
STARTCHAR Iacute
ENCODING 205
SWIDTH 480 0
DWIDTH 6 0
BBX 6 12 0 -3
BITMAP
10
20
00
F8
20
20
20
20
F8
00
00
00
ENDCHAR
STARTCHAR Icircumflex
ENCODING 206
SWIDTH 480 0
DWIDTH 6 0
BBX 6 12 0 -3
BITMAP
20
50
00
F8
20
20
20
20
F8
00
00
00
ENDCHAR
STARTCHAR Idieresis
ENCODING 207
SWIDTH 480 0
DWIDTH 6 0
BBX 6 12 0 -3
BITMAP
00
50
00
F8
20
20
20
20
F8
00
00
00
ENDCHAR
STARTCHAR Eth
ENCODING 208
SWIDTH 480 0
DWIDTH 6 0
BBX 6 12 0 -3
BITMAP
00
00
70
48
44
E4
44
48
70
00
00
00
ENDCHAR
STARTCHAR Ntilde
ENCODING 209
SWIDTH 480 0
DWIDTH 6 0
BBX 6 12 0 -3
BITMAP
28
50
00
88
C8
A8
98
88
88
00
00
00
ENDCHAR
STARTCHAR Ograve
ENCODING 210
SWIDTH 480 0
DWIDTH 6 0
BBX 6 12 0 -3
BITMAP
40
20
00
70
88
88
88
88
70
00
00
00
ENDCHAR
STARTCHAR Oacute
ENCODING 211
SWIDTH 480 0
DWIDTH 6 0
BBX 6 12 0 -3
BITMAP
10
20
00
70
88
88
88
88
70
00
00
00
ENDCHAR
STARTCHAR Ocircumflex
ENCODING 212
SWIDTH 480 0
DWIDTH 6 0
BBX 6 12 0 -3
BITMAP
20
50
00
70
88
88
88
88
70
00
00
00
ENDCHAR
STARTCHAR Otilde
ENCODING 213
SWIDTH 480 0
DWIDTH 6 0
BBX 6 12 0 -3
BITMAP
28
50
00
70
88
88
88
88
70
00
00
00
ENDCHAR
STARTCHAR Odieresis
ENCODING 214
SWIDTH 480 0
DWIDTH 6 0
BBX 6 12 0 -3
BITMAP
00
50
00
70
88
88
88
88
70
00
00
00
ENDCHAR
STARTCHAR multiply
ENCODING 215
SWIDTH 480 0
DWIDTH 6 0
BBX 6 12 0 -3
BITMAP
00
00
00
00
88
50
20
50
88
00
00
00
ENDCHAR
STARTCHAR Oslash
ENCODING 216
SWIDTH 480 0
DWIDTH 6 0
BBX 6 12 0 -3
BITMAP
00
08
78
98
A8
A8
A8
C8
F0
80
00
00
ENDCHAR
STARTCHAR Ugrave
ENCODING 217
SWIDTH 480 0
DWIDTH 6 0
BBX 6 12 0 -3
BITMAP
40
20
00
88
88
88
88
88
70
00
00
00
ENDCHAR
STARTCHAR Uacute
ENCODING 218
SWIDTH 480 0
DWIDTH 6 0
BBX 6 12 0 -3
BITMAP
10
20
00
88
88
88
88
88
70
00
00
00
ENDCHAR
STARTCHAR Ucircumflex
ENCODING 219
SWIDTH 480 0
DWIDTH 6 0
BBX 6 12 0 -3
BITMAP
20
50
00
88
88
88
88
88
70
00
00
00
ENDCHAR
STARTCHAR Udieresis
ENCODING 220
SWIDTH 480 0
DWIDTH 6 0
BBX 6 12 0 -3
BITMAP
00
50
00
88
88
88
88
88
70
00
00
00
ENDCHAR
STARTCHAR Yacute
ENCODING 221
SWIDTH 480 0
DWIDTH 6 0
BBX 6 12 0 -3
BITMAP
10
20
00
88
50
20
20
20
20
00
00
00
ENDCHAR
STARTCHAR Thorn
ENCODING 222
SWIDTH 480 0
DWIDTH 6 0
BBX 6 12 0 -3
BITMAP
00
80
F0
88
88
88
F0
80
80
00
00
00
ENDCHAR
STARTCHAR germandbls
ENCODING 223
SWIDTH 480 0
DWIDTH 6 0
BBX 6 12 0 -3
BITMAP
00
30
48
48
D0
50
48
48
50
00
00
00
ENDCHAR
STARTCHAR agrave
ENCODING 224
SWIDTH 480 0
DWIDTH 6 0
BBX 6 12 0 -3
BITMAP
00
40
20
00
78
88
88
98
68
00
00
00
ENDCHAR
STARTCHAR aacute
ENCODING 225
SWIDTH 480 0
DWIDTH 6 0
BBX 6 12 0 -3
BITMAP
00
10
20
00
78
88
88
98
68
00
00
00
ENDCHAR
STARTCHAR acircumflex
ENCODING 226
SWIDTH 480 0
DWIDTH 6 0
BBX 6 12 0 -3
BITMAP
00
20
50
00
78
88
88
98
68
00
00
00
ENDCHAR
STARTCHAR atilde
ENCODING 227
SWIDTH 480 0
DWIDTH 6 0
BBX 6 12 0 -3
BITMAP
00
28
50
00
78
88
88
98
68
00
00
00
ENDCHAR
STARTCHAR adieresis
ENCODING 228
SWIDTH 480 0
DWIDTH 6 0
BBX 6 12 0 -3
BITMAP
00
00
50
00
78
88
88
98
68
00
00
00
ENDCHAR
STARTCHAR aring
ENCODING 229
SWIDTH 480 0
DWIDTH 6 0
BBX 6 12 0 -3
BITMAP
20
50
20
00
78
88
88
98
68
00
00
00
ENDCHAR
STARTCHAR ae
ENCODING 230
SWIDTH 480 0
DWIDTH 6 0
BBX 6 12 0 -3
BITMAP
00
00
00
00
70
28
70
A0
78
00
00
00
ENDCHAR
STARTCHAR ccedilla
ENCODING 231
SWIDTH 480 0
DWIDTH 6 0
BBX 6 12 0 -3
BITMAP
00
00
00
00
78
80
80
80
78
20
40
00
ENDCHAR
STARTCHAR egrave
ENCODING 232
SWIDTH 480 0
DWIDTH 6 0
BBX 6 12 0 -3
BITMAP
00
40
20
00
70
88
F8
80
70
00
00
00
ENDCHAR
STARTCHAR eacute
ENCODING 233
SWIDTH 480 0
DWIDTH 6 0
BBX 6 12 0 -3
BITMAP
00
10
20
00
70
88
F8
80
70
00
00
00
ENDCHAR
STARTCHAR ecircumflex
ENCODING 234
SWIDTH 480 0
DWIDTH 6 0
BBX 6 12 0 -3
BITMAP
00
20
50
00
70
88
F8
80
70
00
00
00
ENDCHAR
STARTCHAR edieresis
ENCODING 235
SWIDTH 480 0
DWIDTH 6 0
BBX 6 12 0 -3
BITMAP
00
00
50
00
70
88
F8
80
70
00
00
00
ENDCHAR
STARTCHAR igrave
ENCODING 236
SWIDTH 480 0
DWIDTH 6 0
BBX 6 12 0 -3
BITMAP
00
40
20
00
60
20
20
20
70
00
00
00
ENDCHAR
STARTCHAR iacute
ENCODING 237
SWIDTH 480 0
DWIDTH 6 0
BBX 6 12 0 -3
BITMAP
00
20
40
00
60
20
20
20
70
00
00
00
ENDCHAR
STARTCHAR icircumflex
ENCODING 238
SWIDTH 480 0
DWIDTH 6 0
BBX 6 12 0 -3
BITMAP
00
20
50
00
60
20
20
20
70
00
00
00
ENDCHAR
STARTCHAR idieresis
ENCODING 239
SWIDTH 480 0
DWIDTH 6 0
BBX 6 12 0 -3
BITMAP
00
00
50
00
60
20
20
20
70
00
00
00
ENDCHAR
STARTCHAR eth
ENCODING 240
SWIDTH 480 0
DWIDTH 6 0
BBX 6 12 0 -3
BITMAP
00
28
10
28
08
78
88
88
70
00
00
00
ENDCHAR
STARTCHAR ntilde
ENCODING 241
SWIDTH 480 0
DWIDTH 6 0
BBX 6 12 0 -3
BITMAP
00
28
50
00
B0
C8
88
88
88
00
00
00
ENDCHAR
STARTCHAR ograve
ENCODING 242
SWIDTH 480 0
DWIDTH 6 0
BBX 6 12 0 -3
BITMAP
00
40
20
00
70
88
88
88
70
00
00
00
ENDCHAR
STARTCHAR oacute
ENCODING 243
SWIDTH 480 0
DWIDTH 6 0
BBX 6 12 0 -3
BITMAP
00
10
20
00
70
88
88
88
70
00
00
00
ENDCHAR
STARTCHAR ocircumflex
ENCODING 244
SWIDTH 480 0
DWIDTH 6 0
BBX 6 12 0 -3
BITMAP
00
20
50
00
70
88
88
88
70
00
00
00
ENDCHAR
STARTCHAR otilde
ENCODING 245
SWIDTH 480 0
DWIDTH 6 0
BBX 6 12 0 -3
BITMAP
00
28
50
00
70
88
88
88
70
00
00
00
ENDCHAR
STARTCHAR odieresis
ENCODING 246
SWIDTH 480 0
DWIDTH 6 0
BBX 6 12 0 -3
BITMAP
00
00
50
00
70
88
88
88
70
00
00
00
ENDCHAR
STARTCHAR divide
ENCODING 247
SWIDTH 480 0
DWIDTH 6 0
BBX 6 12 0 -3
BITMAP
00
00
00
00
20
00
F8
00
20
00
00
00
ENDCHAR
STARTCHAR oslash
ENCODING 248
SWIDTH 480 0
DWIDTH 6 0
BBX 6 12 0 -3
BITMAP
00
00
00
08
78
98
A8
C8
F0
80
00
00
ENDCHAR
STARTCHAR ugrave
ENCODING 249
SWIDTH 480 0
DWIDTH 6 0
BBX 6 12 0 -3
BITMAP
00
40
20
00
88
88
88
98
68
00
00
00
ENDCHAR
STARTCHAR uacute
ENCODING 250
SWIDTH 480 0
DWIDTH 6 0
BBX 6 12 0 -3
BITMAP
00
10
20
00
88
88
88
98
68
00
00
00
ENDCHAR
STARTCHAR ucircumflex
ENCODING 251
SWIDTH 480 0
DWIDTH 6 0
BBX 6 12 0 -3
BITMAP
00
20
50
00
88
88
88
98
68
00
00
00
ENDCHAR
STARTCHAR udieresis
ENCODING 252
SWIDTH 480 0
DWIDTH 6 0
BBX 6 12 0 -3
BITMAP
00
00
50
00
88
88
88
98
68
00
00
00
ENDCHAR
STARTCHAR yacute
ENCODING 253
SWIDTH 480 0
DWIDTH 6 0
BBX 6 12 0 -3
BITMAP
00
10
20
00
88
88
88
88
78
08
08
70
ENDCHAR
STARTCHAR thorn
ENCODING 254
SWIDTH 480 0
DWIDTH 6 0
BBX 6 12 0 -3
BITMAP
00
80
80
80
B0
C8
88
C8
B0
80
80
00
ENDCHAR
STARTCHAR ydieresis
ENCODING 255
SWIDTH 480 0
DWIDTH 6 0
BBX 6 12 0 -3
BITMAP
00
00
50
00
88
88
88
88
78
08
08
70
ENDCHAR
STARTCHAR Amacron
ENCODING 256
SWIDTH 480 0
DWIDTH 6 0
BBX 6 12 0 -3
BITMAP
00
F8
00
70
88
88
F8
88
88
00
00
00
ENDCHAR
STARTCHAR amacron
ENCODING 257
SWIDTH 480 0
DWIDTH 6 0
BBX 6 12 0 -3
BITMAP
00
00
F8
00
78
88
88
98
68
00
00
00
ENDCHAR
STARTCHAR Abreve
ENCODING 258
SWIDTH 480 0
DWIDTH 6 0
BBX 6 12 0 -3
BITMAP
88
70
00
70
88
88
F8
88
88
00
00
00
ENDCHAR
STARTCHAR abreve
ENCODING 259
SWIDTH 480 0
DWIDTH 6 0
BBX 6 12 0 -3
BITMAP
00
88
70
00
78
88
88
98
68
00
00
00
ENDCHAR
STARTCHAR Aogonek
ENCODING 260
SWIDTH 480 0
DWIDTH 6 0
BBX 6 12 0 -3
BITMAP
00
00
20
50
88
88
F8
88
88
10
18
00
ENDCHAR
STARTCHAR aogonek
ENCODING 261
SWIDTH 480 0
DWIDTH 6 0
BBX 6 12 0 -3
BITMAP
00
00
00
00
78
88
88
98
68
10
08
00
ENDCHAR
STARTCHAR Cacute
ENCODING 262
SWIDTH 480 0
DWIDTH 6 0
BBX 6 12 0 -3
BITMAP
10
20
00
70
88
88
80
88
70
00
00
00
ENDCHAR
STARTCHAR cacute
ENCODING 263
SWIDTH 480 0
DWIDTH 6 0
BBX 6 12 0 -3
BITMAP
00
10
20
00
78
80
80
80
78
00
00
00
ENDCHAR
STARTCHAR Ccircumflex
ENCODING 264
SWIDTH 480 0
DWIDTH 6 0
BBX 6 12 0 -3
BITMAP
20
50
00
70
88
88
80
88
70
00
00
00
ENDCHAR
STARTCHAR ccircumflex
ENCODING 265
SWIDTH 480 0
DWIDTH 6 0
BBX 6 12 0 -3
BITMAP
00
20
50
00
78
80
80
80
78
00
00
00
ENDCHAR
STARTCHAR Cdotaccent
ENCODING 266
SWIDTH 480 0
DWIDTH 6 0
BBX 6 12 0 -3
BITMAP
00
20
00
70
88
88
80
88
70
00
00
00
ENDCHAR
STARTCHAR cdotaccent
ENCODING 267
SWIDTH 480 0
DWIDTH 6 0
BBX 6 12 0 -3
BITMAP
00
00
20
00
78
80
80
80
78
00
00
00
ENDCHAR
STARTCHAR Ccaron
ENCODING 268
SWIDTH 480 0
DWIDTH 6 0
BBX 6 12 0 -3
BITMAP
50
20
00
70
88
88
80
88
70
00
00
00
ENDCHAR
STARTCHAR ccaron
ENCODING 269
SWIDTH 480 0
DWIDTH 6 0
BBX 6 12 0 -3
BITMAP
00
50
20
00
78
80
80
80
78
00
00
00
ENDCHAR
STARTCHAR Dcaron
ENCODING 270
SWIDTH 480 0
DWIDTH 6 0
BBX 6 12 0 -3
BITMAP
50
20
00
E0
90
88
88
90
E0
00
00
00
ENDCHAR
STARTCHAR dcaron
ENCODING 271
SWIDTH 480 0
DWIDTH 6 0
BBX 6 12 0 -3
BITMAP
50
20
08
08
78
88
88
88
78
00
00
00
ENDCHAR
STARTCHAR Dcroat
ENCODING 272
SWIDTH 480 0
DWIDTH 6 0
BBX 6 12 0 -3
BITMAP
00
00
70
48
44
E4
44
48
70
00
00
00
ENDCHAR
STARTCHAR dcroat
ENCODING 273
SWIDTH 480 0
DWIDTH 6 0
BBX 6 12 0 -3
BITMAP
00
10
38
10
70
90
90
90
70
00
00
00
ENDCHAR
STARTCHAR Emacron
ENCODING 274
SWIDTH 480 0
DWIDTH 6 0
BBX 6 12 0 -3
BITMAP
00
F8
00
F8
80
F0
80
80
F8
00
00
00
ENDCHAR
STARTCHAR emacron
ENCODING 275
SWIDTH 480 0
DWIDTH 6 0
BBX 6 12 0 -3
BITMAP
00
00
F8
00
70
88
F8
80
70
00
00
00
ENDCHAR
STARTCHAR Ebreve
ENCODING 276
SWIDTH 480 0
DWIDTH 6 0
BBX 6 12 0 -3
BITMAP
88
70
00
F8
80
F0
80
80
F8
00
00
00
ENDCHAR
STARTCHAR ebreve
ENCODING 277
SWIDTH 480 0
DWIDTH 6 0
BBX 6 12 0 -3
BITMAP
00
88
70
00
70
88
F8
80
70
00
00
00
ENDCHAR
STARTCHAR Edotaccent
ENCODING 278
SWIDTH 480 0
DWIDTH 6 0
BBX 6 12 0 -3
BITMAP
00
20
00
F8
80
F0
80
80
F8
00
00
00
ENDCHAR
STARTCHAR edotaccent
ENCODING 279
SWIDTH 480 0
DWIDTH 6 0
BBX 6 12 0 -3
BITMAP
00
00
20
00
70
88
F8
80
70
00
00
00
ENDCHAR
STARTCHAR Eogonek
ENCODING 280
SWIDTH 480 0
DWIDTH 6 0
BBX 6 12 0 -3
BITMAP
00
00
00
F8
80
F0
80
80
F8
20
10
00
ENDCHAR
STARTCHAR eogonek
ENCODING 281
SWIDTH 480 0
DWIDTH 6 0
BBX 6 12 0 -3
BITMAP
00
00
00
00
70
88
F8
80
70
40
20
00
ENDCHAR
STARTCHAR Ecaron
ENCODING 282
SWIDTH 480 0
DWIDTH 6 0
BBX 6 12 0 -3
BITMAP
50
20
00
F8
80
F0
80
80
F8
00
00
00
ENDCHAR
STARTCHAR ecaron
ENCODING 283
SWIDTH 480 0
DWIDTH 6 0
BBX 6 12 0 -3
BITMAP
00
50
20
00
70
88
F8
80
70
00
00
00
ENDCHAR
STARTCHAR Gcircumflex
ENCODING 284
SWIDTH 480 0
DWIDTH 6 0
BBX 6 12 0 -3
BITMAP
20
50
00
70
88
80
98
88
78
00
00
00
ENDCHAR
STARTCHAR gcircumflex
ENCODING 285
SWIDTH 480 0
DWIDTH 6 0
BBX 6 12 0 -3
BITMAP
00
20
50
00
78
88
88
88
78
08
08
70
ENDCHAR
STARTCHAR Gbreve
ENCODING 286
SWIDTH 480 0
DWIDTH 6 0
BBX 6 12 0 -3
BITMAP
88
70
00
70
88
80
98
88
78
00
00
00
ENDCHAR
STARTCHAR gbreve
ENCODING 287
SWIDTH 480 0
DWIDTH 6 0
BBX 6 12 0 -3
BITMAP
00
88
70
00
78
88
88
88
78
08
08
70
ENDCHAR
STARTCHAR Gdotaccent
ENCODING 288
SWIDTH 480 0
DWIDTH 6 0
BBX 6 12 0 -3
BITMAP
00
20
00
70
88
80
98
88
78
00
00
00
ENDCHAR
STARTCHAR gdotaccent
ENCODING 289
SWIDTH 480 0
DWIDTH 6 0
BBX 6 12 0 -3
BITMAP
00
00
20
00
78
88
88
88
78
08
08
70
ENDCHAR
STARTCHAR Gcommaaccent
ENCODING 290
SWIDTH 480 0
DWIDTH 6 0
BBX 6 12 0 -3
BITMAP
00
00
70
88
80
98
88
88
78
20
40
00
ENDCHAR
STARTCHAR gcommaaccent
ENCODING 291
SWIDTH 480 0
DWIDTH 6 0
BBX 6 12 0 -3
BITMAP
10
20
30
00
78
88
88
88
78
08
08
70
ENDCHAR
STARTCHAR Hcircumflex
ENCODING 292
SWIDTH 480 0
DWIDTH 6 0
BBX 6 12 0 -3
BITMAP
20
50
00
88
88
F8
88
88
88
00
00
00
ENDCHAR
STARTCHAR hcircumflex
ENCODING 293
SWIDTH 480 0
DWIDTH 6 0
BBX 6 12 0 -3
BITMAP
20
50
00
80
80
F0
88
88
88
00
00
00
ENDCHAR
STARTCHAR Hbar
ENCODING 294
SWIDTH 480 0
DWIDTH 6 0
BBX 6 12 0 -3
BITMAP
00
00
48
FC
48
78
48
48
48
00
00
00
ENDCHAR
STARTCHAR hbar
ENCODING 295
SWIDTH 480 0
DWIDTH 6 0
BBX 6 12 0 -3
BITMAP
00
40
F8
40
78
44
44
44
44
00
00
00
ENDCHAR
STARTCHAR Itilde
ENCODING 296
SWIDTH 480 0
DWIDTH 6 0
BBX 6 12 0 -3
BITMAP
28
50
00
F8
20
20
20
20
F8
00
00
00
ENDCHAR
STARTCHAR itilde
ENCODING 297
SWIDTH 480 0
DWIDTH 6 0
BBX 6 12 0 -3
BITMAP
00
28
50
00
30
10
10
10
38
00
00
00
ENDCHAR
STARTCHAR Imacron
ENCODING 298
SWIDTH 480 0
DWIDTH 6 0
BBX 6 12 0 -3
BITMAP
00
F8
00
F8
20
20
20
20
F8
00
00
00
ENDCHAR
STARTCHAR imacron
ENCODING 299
SWIDTH 480 0
DWIDTH 6 0
BBX 6 12 0 -3
BITMAP
00
00
F8
00
60
20
20
20
70
00
00
00
ENDCHAR
STARTCHAR Ibreve
ENCODING 300
SWIDTH 480 0
DWIDTH 6 0
BBX 6 12 0 -3
BITMAP
88
70
00
F8
20
20
20
20
F8
00
00
00
ENDCHAR
STARTCHAR ibreve
ENCODING 301
SWIDTH 480 0
DWIDTH 6 0
BBX 6 12 0 -3
BITMAP
00
88
70
00
60
20
20
20
70
00
00
00
ENDCHAR
STARTCHAR Iogonek
ENCODING 302
SWIDTH 480 0
DWIDTH 6 0
BBX 6 12 0 -3
BITMAP
00
00
F8
20
20
20
20
20
F8
20
10
00
ENDCHAR
STARTCHAR iogonek
ENCODING 303
SWIDTH 480 0
DWIDTH 6 0
BBX 6 12 0 -3
BITMAP
00
00
20
00
60
20
20
20
70
20
10
00
ENDCHAR
STARTCHAR Idotaccent
ENCODING 304
SWIDTH 480 0
DWIDTH 6 0
BBX 6 12 0 -3
BITMAP
00
20
00
F8
20
20
20
20
F8
00
00
00
ENDCHAR
STARTCHAR dotlessi
ENCODING 305
SWIDTH 480 0
DWIDTH 6 0
BBX 6 12 0 -3
BITMAP
00
00
00
00
60
20
20
20
70
00
00
00
ENDCHAR
STARTCHAR IJ
ENCODING 306
SWIDTH 480 0
DWIDTH 6 0
BBX 6 12 0 -3
BITMAP
00
00
F8
88
88
88
A8
A8
90
00
00
00
ENDCHAR
STARTCHAR ij
ENCODING 307
SWIDTH 480 0
DWIDTH 6 0
BBX 6 12 0 -3
BITMAP
00
00
48
00
D8
48
48
48
E8
08
48
30
ENDCHAR
STARTCHAR Jcircumflex
ENCODING 308
SWIDTH 480 0
DWIDTH 6 0
BBX 6 12 0 -3
BITMAP
10
28
00
38
08
08
88
88
70
00
00
00
ENDCHAR
STARTCHAR jcircumflex
ENCODING 309
SWIDTH 480 0
DWIDTH 6 0
BBX 6 12 0 -3
BITMAP
00
10
28
00
70
10
10
10
10
10
10
E0
ENDCHAR
STARTCHAR Kcommaaccent
ENCODING 310
SWIDTH 480 0
DWIDTH 6 0
BBX 6 12 0 -3
BITMAP
00
00
88
90
A0
C0
A0
90
88
40
C0
00
ENDCHAR
STARTCHAR kcommaaccent
ENCODING 311
SWIDTH 480 0
DWIDTH 6 0
BBX 6 12 0 -3
BITMAP
00
00
40
40
48
50
60
50
48
20
60
00
ENDCHAR
STARTCHAR kgreenlandic
ENCODING 312
SWIDTH 480 0
DWIDTH 6 0
BBX 6 12 0 -3
BITMAP
00
00
00
00
88
90
E0
90
88
00
00
00
ENDCHAR
STARTCHAR Lacute
ENCODING 313
SWIDTH 480 0
DWIDTH 6 0
BBX 6 12 0 -3
BITMAP
20
40
00
80
80
80
80
80
F8
00
00
00
ENDCHAR
STARTCHAR lacute
ENCODING 314
SWIDTH 480 0
DWIDTH 6 0
BBX 6 12 0 -3
BITMAP
10
20
00
20
20
20
20
20
10
00
00
00
ENDCHAR
STARTCHAR Lcommaaccent
ENCODING 315
SWIDTH 480 0
DWIDTH 6 0
BBX 6 12 0 -3
BITMAP
00
00
80
80
80
80
80
80
F8
20
40
00
ENDCHAR
STARTCHAR lcommaaccent
ENCODING 316
SWIDTH 480 0
DWIDTH 6 0
BBX 6 12 0 -3
BITMAP
00
60
20
20
20
20
20
20
70
20
40
00
ENDCHAR
STARTCHAR Lcaron
ENCODING 317
SWIDTH 480 0
DWIDTH 6 0
BBX 6 12 0 -3
BITMAP
50
20
80
80
80
80
80
80
F8
00
00
00
ENDCHAR
STARTCHAR lcaron
ENCODING 318
SWIDTH 480 0
DWIDTH 6 0
BBX 6 12 0 -3
BITMAP
50
20
00
20
20
20
20
20
10
00
00
00
ENDCHAR
STARTCHAR Ldot
ENCODING 319
SWIDTH 480 0
DWIDTH 6 0
BBX 6 12 0 -3
BITMAP
00
00
80
80
80
90
80
80
F8
00
00
00
ENDCHAR
STARTCHAR ldot
ENCODING 320
SWIDTH 480 0
DWIDTH 6 0
BBX 6 12 0 -3
BITMAP
00
C0
40
40
40
48
40
40
E0
00
00
00
ENDCHAR
STARTCHAR Lslash
ENCODING 321
SWIDTH 480 0
DWIDTH 6 0
BBX 6 12 0 -3
BITMAP
00
00
40
40
60
C0
40
40
7C
00
00
00
ENDCHAR
STARTCHAR lslash
ENCODING 322
SWIDTH 480 0
DWIDTH 6 0
BBX 6 12 0 -3
BITMAP
00
60
20
20
30
60
20
20
70
00
00
00
ENDCHAR
STARTCHAR Nacute
ENCODING 323
SWIDTH 480 0
DWIDTH 6 0
BBX 6 12 0 -3
BITMAP
10
20
00
88
C8
A8
98
98
88
00
00
00
ENDCHAR
STARTCHAR nacute
ENCODING 324
SWIDTH 480 0
DWIDTH 6 0
BBX 6 12 0 -3
BITMAP
00
10
20
00
B0
C8
88
88
88
00
00
00
ENDCHAR
STARTCHAR Ncommaaccent
ENCODING 325
SWIDTH 480 0
DWIDTH 6 0
BBX 6 12 0 -3
BITMAP
00
00
88
C8
C8
A8
98
98
88
40
C0
00
ENDCHAR
STARTCHAR ncommaaccent
ENCODING 326
SWIDTH 480 0
DWIDTH 6 0
BBX 6 12 0 -3
BITMAP
00
00
00
00
B0
C8
88
88
88
40
C0
00
ENDCHAR
STARTCHAR Ncaron
ENCODING 327
SWIDTH 480 0
DWIDTH 6 0
BBX 6 12 0 -3
BITMAP
50
20
00
88
C8
A8
98
98
88
00
00
00
ENDCHAR
STARTCHAR ncaron
ENCODING 328
SWIDTH 480 0
DWIDTH 6 0
BBX 6 12 0 -3
BITMAP
00
50
20
00
B0
C8
88
88
88
00
00
00
ENDCHAR
STARTCHAR napostrophe
ENCODING 329
SWIDTH 480 0
DWIDTH 6 0
BBX 6 12 0 -3
BITMAP
C0
40
80
00
B0
C8
88
88
88
00
00
00
ENDCHAR
STARTCHAR Eng
ENCODING 330
SWIDTH 480 0
DWIDTH 6 0
BBX 6 12 0 -3
BITMAP
00
00
88
C8
C8
A8
98
98
88
08
30
00
ENDCHAR
STARTCHAR eng
ENCODING 331
SWIDTH 480 0
DWIDTH 6 0
BBX 6 12 0 -3
BITMAP
00
00
00
00
B0
C8
88
88
88
08
30
00
ENDCHAR
STARTCHAR Omacron
ENCODING 332
SWIDTH 480 0
DWIDTH 6 0
BBX 6 12 0 -3
BITMAP
00
F8
00
70
88
88
88
88
70
00
00
00
ENDCHAR
STARTCHAR omacron
ENCODING 333
SWIDTH 480 0
DWIDTH 6 0
BBX 6 12 0 -3
BITMAP
00
00
F8
00
70
88
88
88
70
00
00
00
ENDCHAR
STARTCHAR Obreve
ENCODING 334
SWIDTH 480 0
DWIDTH 6 0
BBX 6 12 0 -3
BITMAP
88
70
00
70
88
88
88
88
70
00
00
00
ENDCHAR
STARTCHAR obreve
ENCODING 335
SWIDTH 480 0
DWIDTH 6 0
BBX 6 12 0 -3
BITMAP
00
88
70
00
70
88
88
88
70
00
00
00
ENDCHAR
STARTCHAR Ohungarumlaut
ENCODING 336
SWIDTH 480 0
DWIDTH 6 0
BBX 6 12 0 -3
BITMAP
48
90
00
70
88
88
88
88
70
00
00
00
ENDCHAR
STARTCHAR ohungarumlaut
ENCODING 337
SWIDTH 480 0
DWIDTH 6 0
BBX 6 12 0 -3
BITMAP
00
48
90
00
70
88
88
88
70
00
00
00
ENDCHAR
STARTCHAR OE
ENCODING 338
SWIDTH 480 0
DWIDTH 6 0
BBX 6 12 0 -3
BITMAP
00
00
78
A0
A0
B0
A0
A0
78
00
00
00
ENDCHAR
STARTCHAR oe
ENCODING 339
SWIDTH 480 0
DWIDTH 6 0
BBX 6 12 0 -3
BITMAP
00
00
00
00
70
A8
B8
A0
78
00
00
00
ENDCHAR
STARTCHAR Racute
ENCODING 340
SWIDTH 480 0
DWIDTH 6 0
BBX 6 12 0 -3
BITMAP
10
20
00
F0
88
F0
A0
90
88
00
00
00
ENDCHAR
STARTCHAR racute
ENCODING 341
SWIDTH 480 0
DWIDTH 6 0
BBX 6 12 0 -3
BITMAP
00
10
20
00
58
60
40
40
40
00
00
00
ENDCHAR
STARTCHAR Rcommaaccent
ENCODING 342
SWIDTH 480 0
DWIDTH 6 0
BBX 6 12 0 -3
BITMAP
00
00
F0
88
88
F0
A0
90
88
40
C0
00
ENDCHAR
STARTCHAR rcommaaccent
ENCODING 343
SWIDTH 480 0
DWIDTH 6 0
BBX 6 12 0 -3
BITMAP
00
00
00
00
58
60
40
40
40
20
60
00
ENDCHAR
STARTCHAR Rcaron
ENCODING 344
SWIDTH 480 0
DWIDTH 6 0
BBX 6 12 0 -3
BITMAP
50
20
00
F0
88
F0
A0
90
88
00
00
00
ENDCHAR
STARTCHAR rcaron
ENCODING 345
SWIDTH 480 0
DWIDTH 6 0
BBX 6 12 0 -3
BITMAP
00
28
10
00
58
60
40
40
40
00
00
00
ENDCHAR
STARTCHAR Sacute
ENCODING 346
SWIDTH 480 0
DWIDTH 6 0
BBX 6 12 0 -3
BITMAP
10
20
00
70
80
70
08
88
70
00
00
00
ENDCHAR
STARTCHAR sacute
ENCODING 347
SWIDTH 480 0
DWIDTH 6 0
BBX 6 12 0 -3
BITMAP
00
10
20
00
78
80
70
08
F0
00
00
00
ENDCHAR
STARTCHAR Scircumflex
ENCODING 348
SWIDTH 480 0
DWIDTH 6 0
BBX 6 12 0 -3
BITMAP
20
50
00
70
80
70
08
88
70
00
00
00
ENDCHAR
STARTCHAR scircumflex
ENCODING 349
SWIDTH 480 0
DWIDTH 6 0
BBX 6 12 0 -3
BITMAP
00
20
50
00
78
80
70
08
F0
00
00
00
ENDCHAR
STARTCHAR Scedilla
ENCODING 350
SWIDTH 480 0
DWIDTH 6 0
BBX 6 12 0 -3
BITMAP
00
00
70
88
80
70
08
88
70
20
60
00
ENDCHAR
STARTCHAR scedilla
ENCODING 351
SWIDTH 480 0
DWIDTH 6 0
BBX 6 12 0 -3
BITMAP
00
00
00
00
78
80
70
08
F0
20
60
00
ENDCHAR
STARTCHAR Scaron
ENCODING 352
SWIDTH 480 0
DWIDTH 6 0
BBX 6 12 0 -3
BITMAP
50
20
00
70
80
70
08
88
70
00
00
00
ENDCHAR
STARTCHAR scaron
ENCODING 353
SWIDTH 480 0
DWIDTH 6 0
BBX 6 12 0 -3
BITMAP
00
50
20
00
78
80
70
08
F0
00
00
00
ENDCHAR
STARTCHAR Tcommaaccent
ENCODING 354
SWIDTH 480 0
DWIDTH 6 0
BBX 6 12 0 -3
BITMAP
00
00
F8
20
20
20
20
20
20
10
30
00
ENDCHAR
STARTCHAR tcommaaccent
ENCODING 355
SWIDTH 480 0
DWIDTH 6 0
BBX 6 12 0 -3
BITMAP
00
20
20
20
F8
20
20
20
18
10
30
00
ENDCHAR
STARTCHAR Tcaron
ENCODING 356
SWIDTH 480 0
DWIDTH 6 0
BBX 6 12 0 -3
BITMAP
50
20
00
F8
20
20
20
20
20
00
00
00
ENDCHAR
STARTCHAR tcaron
ENCODING 357
SWIDTH 480 0
DWIDTH 6 0
BBX 6 12 0 -3
BITMAP
50
20
00
20
20
F8
20
20
18
00
00
00
ENDCHAR
STARTCHAR Tbar
ENCODING 358
SWIDTH 480 0
DWIDTH 6 0
BBX 6 12 0 -3
BITMAP
00
00
F8
20
20
70
20
20
20
00
00
00
ENDCHAR
STARTCHAR tbar
ENCODING 359
SWIDTH 480 0
DWIDTH 6 0
BBX 6 12 0 -3
BITMAP
00
20
20
20
F8
20
70
20
18
00
00
00
ENDCHAR
STARTCHAR Utilde
ENCODING 360
SWIDTH 480 0
DWIDTH 6 0
BBX 6 12 0 -3
BITMAP
28
50
00
88
88
88
88
88
70
00
00
00
ENDCHAR
STARTCHAR utilde
ENCODING 361
SWIDTH 480 0
DWIDTH 6 0
BBX 6 12 0 -3
BITMAP
00
28
50
00
88
88
88
98
68
00
00
00
ENDCHAR
STARTCHAR Umacron
ENCODING 362
SWIDTH 480 0
DWIDTH 6 0
BBX 6 12 0 -3
BITMAP
00
F8
00
88
88
88
88
88
70
00
00
00
ENDCHAR
STARTCHAR umacron
ENCODING 363
SWIDTH 480 0
DWIDTH 6 0
BBX 6 12 0 -3
BITMAP
00
00
F8
00
88
88
88
98
68
00
00
00
ENDCHAR
STARTCHAR Ubreve
ENCODING 364
SWIDTH 480 0
DWIDTH 6 0
BBX 6 12 0 -3
BITMAP
88
70
00
88
88
88
88
88
70
00
00
00
ENDCHAR
STARTCHAR ubreve
ENCODING 365
SWIDTH 480 0
DWIDTH 6 0
BBX 6 12 0 -3
BITMAP
00
88
70
00
88
88
88
98
68
00
00
00
ENDCHAR
STARTCHAR Uring
ENCODING 366
SWIDTH 480 0
DWIDTH 6 0
BBX 6 12 0 -3
BITMAP
20
50
20
88
88
88
88
88
70
00
00
00
ENDCHAR
STARTCHAR uring
ENCODING 367
SWIDTH 480 0
DWIDTH 6 0
BBX 6 12 0 -3
BITMAP
00
20
50
20
88
88
88
98
68
00
00
00
ENDCHAR
STARTCHAR Uhungarumlaut
ENCODING 368
SWIDTH 480 0
DWIDTH 6 0
BBX 6 12 0 -3
BITMAP
48
90
00
88
88
88
88
88
70
00
00
00
ENDCHAR
STARTCHAR uhungarumlaut
ENCODING 369
SWIDTH 480 0
DWIDTH 6 0
BBX 6 12 0 -3
BITMAP
00
48
90
00
88
88
88
98
68
00
00
00
ENDCHAR
STARTCHAR Uogonek
ENCODING 370
SWIDTH 480 0
DWIDTH 6 0
BBX 6 12 0 -3
BITMAP
00
00
00
88
88
88
88
88
70
40
20
00
ENDCHAR
STARTCHAR uogonek
ENCODING 371
SWIDTH 480 0
DWIDTH 6 0
BBX 6 12 0 -3
BITMAP
00
00
00
00
88
88
88
98
68
10
08
00
ENDCHAR
STARTCHAR Wcircumflex
ENCODING 372
SWIDTH 480 0
DWIDTH 6 0
BBX 6 12 0 -3
BITMAP
20
50
00
88
88
A8
A8
D8
88
00
00
00
ENDCHAR
STARTCHAR wcircumflex
ENCODING 373
SWIDTH 480 0
DWIDTH 6 0
BBX 6 12 0 -3
BITMAP
00
20
50
00
88
A8
A8
A8
50
00
00
00
ENDCHAR
STARTCHAR Ycircumflex
ENCODING 374
SWIDTH 480 0
DWIDTH 6 0
BBX 6 12 0 -3
BITMAP
20
50
00
88
50
20
20
20
20
00
00
00
ENDCHAR
STARTCHAR ycircumflex
ENCODING 375
SWIDTH 480 0
DWIDTH 6 0
BBX 6 12 0 -3
BITMAP
00
20
50
00
88
88
88
88
78
08
08
70
ENDCHAR
STARTCHAR Ydieresis
ENCODING 376
SWIDTH 480 0
DWIDTH 6 0
BBX 6 12 0 -3
BITMAP
00
50
00
88
50
20
20
20
20
00
00
00
ENDCHAR
STARTCHAR Zacute
ENCODING 377
SWIDTH 480 0
DWIDTH 6 0
BBX 6 12 0 -3
BITMAP
10
20
00
F8
10
20
40
80
F8
00
00
00
ENDCHAR
STARTCHAR zacute
ENCODING 378
SWIDTH 480 0
DWIDTH 6 0
BBX 6 12 0 -3
BITMAP
00
10
20
00
F8
10
20
40
F8
00
00
00
ENDCHAR
STARTCHAR Zdotaccent
ENCODING 379
SWIDTH 480 0
DWIDTH 6 0
BBX 6 12 0 -3
BITMAP
00
20
00
F8
10
20
40
80
F8
00
00
00
ENDCHAR
STARTCHAR zdotaccent
ENCODING 380
SWIDTH 480 0
DWIDTH 6 0
BBX 6 12 0 -3
BITMAP
00
00
20
00
F8
10
20
40
F8
00
00
00
ENDCHAR
STARTCHAR Zcaron
ENCODING 381
SWIDTH 480 0
DWIDTH 6 0
BBX 6 12 0 -3
BITMAP
50
20
00
F8
10
20
40
80
F8
00
00
00
ENDCHAR
STARTCHAR zcaron
ENCODING 382
SWIDTH 480 0
DWIDTH 6 0
BBX 6 12 0 -3
BITMAP
00
50
20
00
F8
10
20
40
F8
00
00
00
ENDCHAR
STARTCHAR longs
ENCODING 383
SWIDTH 480 0
DWIDTH 6 0
BBX 6 12 0 -3
BITMAP
00
18
20
20
60
20
20
20
20
00
00
00
ENDCHAR
STARTCHAR uni0180
ENCODING 384
SWIDTH 480 0
DWIDTH 6 0
BBX 6 12 0 -3
BITMAP
00
40
E0
40
78
44
44
44
78
00
00
00
ENDCHAR
STARTCHAR uni0181
ENCODING 385
SWIDTH 480 0
DWIDTH 6 0
BBX 6 12 0 -3
BITMAP
00
00
F0
48
48
70
48
48
70
00
00
00
ENDCHAR
STARTCHAR uni0182
ENCODING 386
SWIDTH 480 0
DWIDTH 6 0
BBX 6 12 0 -3
BITMAP
00
00
F0
40
40
70
48
48
F0
00
00
00
ENDCHAR
STARTCHAR uni0183
ENCODING 387
SWIDTH 480 0
DWIDTH 6 0
BBX 6 12 0 -3
BITMAP
00
00
F0
80
80
F0
88
88
70
00
00
00
ENDCHAR
STARTCHAR uni0184
ENCODING 388
SWIDTH 480 0
DWIDTH 6 0
BBX 6 12 0 -3
BITMAP
00
20
60
E0
78
24
24
24
78
00
00
00
ENDCHAR
STARTCHAR uni0185
ENCODING 389
SWIDTH 480 0
DWIDTH 6 0
BBX 6 12 0 -3
BITMAP
00
40
C0
C0
70
48
48
48
70
00
00
00
ENDCHAR
STARTCHAR uni0186
ENCODING 390
SWIDTH 480 0
DWIDTH 6 0
BBX 6 12 0 -3
BITMAP
00
00
70
88
08
08
08
88
70
00
00
00
ENDCHAR
STARTCHAR uni0187
ENCODING 391
SWIDTH 480 0
DWIDTH 6 0
BBX 6 12 0 -3
BITMAP
00
18
70
88
80
80
80
88
70
00
00
00
ENDCHAR
STARTCHAR uni0188
ENCODING 392
SWIDTH 480 0
DWIDTH 6 0
BBX 6 12 0 -3
BITMAP
00
00
00
10
68
80
80
80
60
00
00
00
ENDCHAR
STARTCHAR uni0189
ENCODING 393
SWIDTH 480 0
DWIDTH 6 0
BBX 6 12 0 -3
BITMAP
00
00
70
48
44
E4
44
48
70
00
00
00
ENDCHAR
STARTCHAR uni018A
ENCODING 394
SWIDTH 480 0
DWIDTH 6 0
BBX 6 12 0 -3
BITMAP
00
00
E0
50
48
48
48
50
60
00
00
00
ENDCHAR
STARTCHAR uni018B
ENCODING 395
SWIDTH 480 0
DWIDTH 6 0
BBX 6 12 0 -3
BITMAP
00
78
08
08
78
88
88
88
78
00
00
00
ENDCHAR
STARTCHAR uni018C
ENCODING 396
SWIDTH 480 0
DWIDTH 6 0
BBX 6 12 0 -3
BITMAP
00
78
08
08
78
88
88
88
78
00
00
00
ENDCHAR
STARTCHAR uni018D
ENCODING 397
SWIDTH 480 0
DWIDTH 6 0
BBX 6 12 0 -3
BITMAP
00
00
00
00
70
88
88
88
70
50
20
00
ENDCHAR
STARTCHAR uni018E
ENCODING 398
SWIDTH 480 0
DWIDTH 6 0
BBX 6 12 0 -3
BITMAP
00
00
F8
08
08
78
08
08
F8
00
00
00
ENDCHAR
STARTCHAR uni018F
ENCODING 399
SWIDTH 480 0
DWIDTH 6 0
BBX 6 12 0 -3
BITMAP
00
00
70
88
08
F8
88
88
70
00
00
00
ENDCHAR
STARTCHAR uni0190
ENCODING 400
SWIDTH 480 0
DWIDTH 6 0
BBX 6 12 0 -3
BITMAP
00
00
00
00
70
88
60
88
70
00
00
00
ENDCHAR
STARTCHAR uni0191
ENCODING 401
SWIDTH 480 0
DWIDTH 6 0
BBX 6 12 0 -3
BITMAP
00
00
F8
40
40
70
40
40
40
40
80
00
ENDCHAR
STARTCHAR florin
ENCODING 402
SWIDTH 480 0
DWIDTH 6 0
BBX 6 12 0 -3
BITMAP
00
38
40
40
F0
40
40
40
40
40
80
00
ENDCHAR
STARTCHAR uni0193
ENCODING 403
SWIDTH 480 0
DWIDTH 6 0
BBX 6 12 0 -3
BITMAP
00
08
70
90
80
98
88
88
78
00
00
00
ENDCHAR
STARTCHAR uni0194
ENCODING 404
SWIDTH 480 0
DWIDTH 6 0
BBX 6 12 0 -3
BITMAP
00
00
00
00
88
88
50
50
20
20
50
20
ENDCHAR
STARTCHAR uni0195
ENCODING 405
SWIDTH 480 0
DWIDTH 6 0
BBX 6 12 0 -3
BITMAP
00
80
80
80
C8
A8
A8
A8
90
00
00
00
ENDCHAR
STARTCHAR uni0196
ENCODING 406
SWIDTH 480 0
DWIDTH 6 0
BBX 6 12 0 -3
BITMAP
00
00
60
20
20
20
20
28
10
00
00
00
ENDCHAR
STARTCHAR uni0197
ENCODING 407
SWIDTH 480 0
DWIDTH 6 0
BBX 6 12 0 -3
BITMAP
00
00
F8
20
20
70
20
20
F8
00
00
00
ENDCHAR
STARTCHAR uni0198
ENCODING 408
SWIDTH 480 0
DWIDTH 6 0
BBX 6 12 0 -3
BITMAP
00
00
90
A8
A8
C0
A0
90
88
00
00
00
ENDCHAR
STARTCHAR uni0199
ENCODING 409
SWIDTH 480 0
DWIDTH 6 0
BBX 6 12 0 -3
BITMAP
00
20
50
40
48
50
60
50
48
00
00
00
ENDCHAR
STARTCHAR uni019A
ENCODING 410
SWIDTH 480 0
DWIDTH 6 0
BBX 6 12 0 -3
BITMAP
00
60
20
20
F8
20
20
20
70
00
00
00
ENDCHAR
STARTCHAR uni019B
ENCODING 411
SWIDTH 480 0
DWIDTH 6 0
BBX 6 12 0 -3
BITMAP
00
68
30
60
A0
50
50
88
88
00
00
00
ENDCHAR
STARTCHAR uni019C
ENCODING 412
SWIDTH 480 0
DWIDTH 6 0
BBX 6 12 0 -3
BITMAP
00
00
00
00
88
A8
A8
A8
58
00
00
00
ENDCHAR
STARTCHAR uni019D
ENCODING 413
SWIDTH 480 0
DWIDTH 6 0
BBX 6 12 0 -3
BITMAP
00
00
44
64
64
54
4C
4C
44
40
80
00
ENDCHAR
STARTCHAR uni019E
ENCODING 414
SWIDTH 480 0
DWIDTH 6 0
BBX 6 12 0 -3
BITMAP
00
00
00
00
B0
C8
88
88
88
08
08
00
ENDCHAR
STARTCHAR uni019F
ENCODING 415
SWIDTH 480 0
DWIDTH 6 0
BBX 6 12 0 -3
BITMAP
00
00
70
88
88
F8
88
88
70
00
00
00
ENDCHAR
STARTCHAR Ohorn
ENCODING 416
SWIDTH 480 0
DWIDTH 6 0
BBX 6 12 0 -3
BITMAP
18
08
10
70
88
88
88
88
70
00
00
00
ENDCHAR
STARTCHAR ohorn
ENCODING 417
SWIDTH 480 0
DWIDTH 6 0
BBX 6 12 0 -3
BITMAP
00
18
08
10
70
88
88
88
70
00
00
00
ENDCHAR
STARTCHAR uni01A2
ENCODING 418
SWIDTH 480 0
DWIDTH 6 0
BBX 6 12 0 -3
BITMAP
00
00
40
B0
A8
A8
A8
A8
48
08
08
00
ENDCHAR
STARTCHAR uni01A3
ENCODING 419
SWIDTH 480 0
DWIDTH 6 0
BBX 6 12 0 -3
BITMAP
00
00
00
00
50
A8
A8
A8
48
08
08
00
ENDCHAR
STARTCHAR uni01A4
ENCODING 420
SWIDTH 480 0
DWIDTH 6 0
BBX 6 12 0 -3
BITMAP
00
00
F0
48
48
70
40
40
40
00
00
00
ENDCHAR
STARTCHAR uni01A5
ENCODING 421
SWIDTH 480 0
DWIDTH 6 0
BBX 6 12 0 -3
BITMAP
00
00
08
10
F0
88
88
88
F0
80
80
80
ENDCHAR
STARTCHAR uni01A6
ENCODING 422
SWIDTH 480 0
DWIDTH 6 0
BBX 6 12 0 -3
BITMAP
00
80
80
F0
88
F0
A0
90
88
08
00
00
ENDCHAR
STARTCHAR uni01A7
ENCODING 423
SWIDTH 480 0
DWIDTH 6 0
BBX 6 12 0 -3
BITMAP
00
00
70
88
08
70
80
88
70
00
00
00
ENDCHAR
STARTCHAR uni01A8
ENCODING 424
SWIDTH 480 0
DWIDTH 6 0
BBX 6 12 0 -3
BITMAP
00
00
00
00
F0
08
70
80
78
00
00
00
ENDCHAR
STARTCHAR uni01A9
ENCODING 425
SWIDTH 480 0
DWIDTH 6 0
BBX 6 12 0 -3
BITMAP
00
00
F8
40
20
10
20
40
F8
00
00
00
ENDCHAR
STARTCHAR uni01AA
ENCODING 426
SWIDTH 480 0
DWIDTH 6 0
BBX 6 12 0 -3
BITMAP
20
50
30
10
10
10
10
10
10
10
08
00
ENDCHAR
STARTCHAR uni01AB
ENCODING 427
SWIDTH 480 0
DWIDTH 6 0
BBX 6 12 0 -3
BITMAP
00
20
20
20
F8
20
20
20
18
10
60
00
ENDCHAR
STARTCHAR uni01AC
ENCODING 428
SWIDTH 480 0
DWIDTH 6 0
BBX 6 12 0 -3
BITMAP
00
00
78
A0
A0
20
20
20
20
00
00
00
ENDCHAR
STARTCHAR uni01AD
ENCODING 429
SWIDTH 480 0
DWIDTH 6 0
BBX 6 12 0 -3
BITMAP
00
30
48
40
E0
40
40
40
30
00
00
00
ENDCHAR
STARTCHAR uni01AE
ENCODING 430
SWIDTH 480 0
DWIDTH 6 0
BBX 6 12 0 -3
BITMAP
00
00
F8
20
20
20
20
20
20
20
18
00
ENDCHAR
STARTCHAR Uhorn
ENCODING 431
SWIDTH 480 0
DWIDTH 6 0
BBX 6 12 0 -3
BITMAP
18
08
10
88
88
88
88
88
70
00
00
00
ENDCHAR
STARTCHAR uhorn
ENCODING 432
SWIDTH 480 0
DWIDTH 6 0
BBX 6 12 0 -3
BITMAP
18
08
10
00
88
88
88
98
68
00
00
00
ENDCHAR
STARTCHAR uni01B1
ENCODING 433
SWIDTH 480 0
DWIDTH 6 0
BBX 6 12 0 -3
BITMAP
00
00
50
50
88
88
88
88
70
00
00
00
ENDCHAR
STARTCHAR uni01B2
ENCODING 434
SWIDTH 480 0
DWIDTH 6 0
BBX 6 12 0 -3
BITMAP
00
00
90
88
88
88
90
90
60
00
00
00
ENDCHAR
STARTCHAR uni01B3
ENCODING 435
SWIDTH 480 0
DWIDTH 6 0
BBX 6 12 0 -3
BITMAP
00
00
44
A8
10
10
10
10
10
00
00
00
ENDCHAR
STARTCHAR uni01B4
ENCODING 436
SWIDTH 480 0
DWIDTH 6 0
BBX 6 12 0 -3
BITMAP
00
00
00
08
90
90
90
90
70
10
10
60
ENDCHAR
STARTCHAR uni01B5
ENCODING 437
SWIDTH 480 0
DWIDTH 6 0
BBX 6 12 0 -3
BITMAP
00
00
F8
08
10
F8
40
80
F8
00
00
00
ENDCHAR
STARTCHAR uni01B6
ENCODING 438
SWIDTH 480 0
DWIDTH 6 0
BBX 6 12 0 -3
BITMAP
00
00
00
00
F8
10
F8
40
F8
00
00
00
ENDCHAR
STARTCHAR uni01B7
ENCODING 439
SWIDTH 480 0
DWIDTH 6 0
BBX 6 12 0 -3
BITMAP
00
00
F8
08
10
20
70
08
08
90
60
00
ENDCHAR
STARTCHAR uni01B8
ENCODING 440
SWIDTH 480 0
DWIDTH 6 0
BBX 6 12 0 -3
BITMAP
00
00
F8
80
40
20
70
80
80
48
30
00
ENDCHAR
STARTCHAR uni01B9
ENCODING 441
SWIDTH 480 0
DWIDTH 6 0
BBX 6 12 0 -3
BITMAP
00
00
00
00
F8
40
20
70
80
80
78
00
ENDCHAR
STARTCHAR uni01BA
ENCODING 442
SWIDTH 480 0
DWIDTH 6 0
BBX 6 12 0 -3
BITMAP
00
00
00
00
F8
40
20
70
80
80
88
70
ENDCHAR
STARTCHAR uni01BB
ENCODING 443
SWIDTH 480 0
DWIDTH 6 0
BBX 6 12 0 -3
BITMAP
00
70
88
08
10
F8
40
80
F8
00
00
00
ENDCHAR
STARTCHAR uni01BC
ENCODING 444
SWIDTH 480 0
DWIDTH 6 0
BBX 6 12 0 -3
BITMAP
00
00
78
48
20
10
08
08
70
00
00
00
ENDCHAR
STARTCHAR uni01BD
ENCODING 445
SWIDTH 480 0
DWIDTH 6 0
BBX 6 12 0 -3
BITMAP
00
00
00
00
78
40
30
08
70
00
00
00
ENDCHAR
STARTCHAR uni01BE
ENCODING 446
SWIDTH 480 0
DWIDTH 6 0
BBX 6 12 0 -3
BITMAP
00
20
20
70
20
30
08
48
30
00
00
00
ENDCHAR
STARTCHAR uni01BF
ENCODING 447
SWIDTH 480 0
DWIDTH 6 0
BBX 6 12 0 -3
BITMAP
00
00
00
00
10
28
48
48
50
60
40
40
ENDCHAR
STARTCHAR uni01C0
ENCODING 448
SWIDTH 480 0
DWIDTH 6 0
BBX 6 12 0 -3
BITMAP
00
00
20
20
20
20
20
20
20
00
00
00
ENDCHAR
STARTCHAR uni01C1
ENCODING 449
SWIDTH 480 0
DWIDTH 6 0
BBX 6 12 0 -3
BITMAP
00
00
50
50
50
50
50
50
50
00
00
00
ENDCHAR
STARTCHAR uni01C2
ENCODING 450
SWIDTH 480 0
DWIDTH 6 0
BBX 6 12 0 -3
BITMAP
00
00
20
20
70
20
70
20
20
00
00
00
ENDCHAR
STARTCHAR uni01C3
ENCODING 451
SWIDTH 480 0
DWIDTH 6 0
BBX 6 12 0 -3
BITMAP
00
00
70
70
70
20
20
00
20
00
00
00
ENDCHAR
STARTCHAR uni01C4
ENCODING 452
SWIDTH 480 0
DWIDTH 6 0
BBX 6 12 0 -3
BITMAP
14
08
DC
A4
A4
A8
B0
B0
DC
00
00
00
ENDCHAR
STARTCHAR uni01C5
ENCODING 453
SWIDTH 480 0
DWIDTH 6 0
BBX 6 12 0 -3
BITMAP
00
14
C8
A0
BC
A4
A8
B0
DC
00
00
00
ENDCHAR
STARTCHAR uni01C6
ENCODING 454
SWIDTH 480 0
DWIDTH 6 0
BBX 6 12 0 -3
BITMAP
00
14
28
20
7C
A4
A8
B0
7C
00
00
00
ENDCHAR
STARTCHAR uni01C7
ENCODING 455
SWIDTH 480 0
DWIDTH 6 0
BBX 6 12 0 -3
BITMAP
00
00
84
84
84
84
84
94
E8
00
00
00
ENDCHAR
STARTCHAR uni01C8
ENCODING 456
SWIDTH 480 0
DWIDTH 6 0
BBX 6 12 0 -3
BITMAP
00
00
84
80
84
84
84
84
E4
04
24
18
ENDCHAR
STARTCHAR uni01C9
ENCODING 457
SWIDTH 480 0
DWIDTH 6 0
BBX 6 12 0 -3
BITMAP
00
00
48
40
48
48
48
48
28
08
30
00
ENDCHAR
STARTCHAR uni01CA
ENCODING 458
SWIDTH 480 0
DWIDTH 6 0
BBX 6 12 0 -3
BITMAP
00
00
94
94
D4
B4
94
94
94
04
18
00
ENDCHAR
STARTCHAR uni01CB
ENCODING 459
SWIDTH 480 0
DWIDTH 6 0
BBX 6 12 0 -3
BITMAP
00
00
94
90
D4
B4
94
94
94
04
18
00
ENDCHAR
STARTCHAR uni01CC
ENCODING 460
SWIDTH 480 0
DWIDTH 6 0
BBX 6 12 0 -3
BITMAP
00
00
08
00
C8
A8
A8
A8
A8
08
30
00
ENDCHAR
STARTCHAR uni01CD
ENCODING 461
SWIDTH 480 0
DWIDTH 6 0
BBX 6 12 0 -3
BITMAP
50
20
00
70
88
88
F8
88
88
00
00
00
ENDCHAR
STARTCHAR uni01CE
ENCODING 462
SWIDTH 480 0
DWIDTH 6 0
BBX 6 12 0 -3
BITMAP
00
50
20
00
78
88
88
98
68
00
00
00
ENDCHAR
STARTCHAR uni01CF
ENCODING 463
SWIDTH 480 0
DWIDTH 6 0
BBX 6 12 0 -3
BITMAP
28
50
00
F8
20
20
20
20
F8
00
00
00
ENDCHAR
STARTCHAR uni01D0
ENCODING 464
SWIDTH 480 0
DWIDTH 6 0
BBX 6 12 0 -3
BITMAP
00
28
50
00
30
10
10
10
38
00
00
00
ENDCHAR
STARTCHAR uni01D1
ENCODING 465
SWIDTH 480 0
DWIDTH 6 0
BBX 6 12 0 -3
BITMAP
00
F8
00
70
88
88
88
88
70
00
00
00
ENDCHAR
STARTCHAR uni01D2
ENCODING 466
SWIDTH 480 0
DWIDTH 6 0
BBX 6 12 0 -3
BITMAP
00
00
F8
00
70
88
88
88
70
00
00
00
ENDCHAR
STARTCHAR uni01D3
ENCODING 467
SWIDTH 480 0
DWIDTH 6 0
BBX 6 12 0 -3
BITMAP
48
90
00
88
88
88
88
88
70
00
00
00
ENDCHAR
STARTCHAR uni01D4
ENCODING 468
SWIDTH 480 0
DWIDTH 6 0
BBX 6 12 0 -3
BITMAP
00
48
90
00
88
88
88
98
68
00
00
00
ENDCHAR
STARTCHAR uni01D5
ENCODING 469
SWIDTH 480 0
DWIDTH 6 0
BBX 6 12 0 -3
BITMAP
F8
00
50
00
88
88
88
88
70
00
00
00
ENDCHAR
STARTCHAR uni01D6
ENCODING 470
SWIDTH 480 0
DWIDTH 6 0
BBX 6 12 0 -3
BITMAP
F8
00
50
00
88
88
88
98
68
00
00
00
ENDCHAR
STARTCHAR uni01D7
ENCODING 471
SWIDTH 480 0
DWIDTH 6 0
BBX 6 12 0 -3
BITMAP
10
20
50
00
88
88
88
88
70
00
00
00
ENDCHAR
STARTCHAR uni01D8
ENCODING 472
SWIDTH 480 0
DWIDTH 6 0
BBX 6 12 0 -3
BITMAP
10
20
50
00
88
88
88
98
68
00
00
00
ENDCHAR
STARTCHAR uni01D9
ENCODING 473
SWIDTH 480 0
DWIDTH 6 0
BBX 6 12 0 -3
BITMAP
50
20
50
00
88
88
88
88
70
00
00
00
ENDCHAR
STARTCHAR uni01DA
ENCODING 474
SWIDTH 480 0
DWIDTH 6 0
BBX 6 12 0 -3
BITMAP
50
20
50
00
88
88
88
98
68
00
00
00
ENDCHAR
STARTCHAR uni01DB
ENCODING 475
SWIDTH 480 0
DWIDTH 6 0
BBX 6 12 0 -3
BITMAP
40
20
50
00
88
88
88
88
70
00
00
00
ENDCHAR
STARTCHAR uni01DC
ENCODING 476
SWIDTH 480 0
DWIDTH 6 0
BBX 6 12 0 -3
BITMAP
40
20
50
00
88
88
88
98
68
00
00
00
ENDCHAR
STARTCHAR uni01DD
ENCODING 477
SWIDTH 480 0
DWIDTH 6 0
BBX 6 12 0 -3
BITMAP
00
00
00
00
70
08
F8
88
70
00
00
00
ENDCHAR
STARTCHAR uni01DE
ENCODING 478
SWIDTH 480 0
DWIDTH 6 0
BBX 6 12 0 -3
BITMAP
F8
00
50
00
70
88
F8
88
88
00
00
00
ENDCHAR
STARTCHAR uni01DF
ENCODING 479
SWIDTH 480 0
DWIDTH 6 0
BBX 6 12 0 -3
BITMAP
F8
00
50
00
78
88
88
98
68
00
00
00
ENDCHAR
STARTCHAR uni01E0
ENCODING 480
SWIDTH 480 0
DWIDTH 6 0
BBX 6 12 0 -3
BITMAP
F8
00
20
00
70
88
F8
88
88
00
00
00
ENDCHAR
STARTCHAR uni01E1
ENCODING 481
SWIDTH 480 0
DWIDTH 6 0
BBX 6 12 0 -3
BITMAP
F8
00
20
00
78
88
88
98
68
00
00
00
ENDCHAR
STARTCHAR uni01E2
ENCODING 482
SWIDTH 480 0
DWIDTH 6 0
BBX 6 12 0 -3
BITMAP
F8
00
78
A0
A0
B8
E0
A0
B8
00
00
00
ENDCHAR
STARTCHAR uni01E3
ENCODING 483
SWIDTH 480 0
DWIDTH 6 0
BBX 6 12 0 -3
BITMAP
00
00
78
00
70
28
70
A0
78
00
00
00
ENDCHAR
STARTCHAR uni01E4
ENCODING 484
SWIDTH 480 0
DWIDTH 6 0
BBX 6 12 0 -3
BITMAP
00
00
70
80
90
90
B8
90
60
00
00
00
ENDCHAR
STARTCHAR uni01E5
ENCODING 485
SWIDTH 480 0
DWIDTH 6 0
BBX 6 12 0 -3
BITMAP
00
00
00
00
70
90
B8
90
70
10
10
60
ENDCHAR
STARTCHAR Gcaron
ENCODING 486
SWIDTH 480 0
DWIDTH 6 0
BBX 6 12 0 -3
BITMAP
50
20
00
70
88
80
98
88
78
00
00
00
ENDCHAR
STARTCHAR gcaron
ENCODING 487
SWIDTH 480 0
DWIDTH 6 0
BBX 6 12 0 -3
BITMAP
00
50
20
00
78
88
88
88
78
08
08
70
ENDCHAR
STARTCHAR uni01E8
ENCODING 488
SWIDTH 480 0
DWIDTH 6 0
BBX 6 12 0 -3
BITMAP
50
20
88
90
A0
C0
A0
90
88
00
00
00
ENDCHAR
STARTCHAR uni01E9
ENCODING 489
SWIDTH 480 0
DWIDTH 6 0
BBX 6 12 0 -3
BITMAP
28
10
40
40
48
50
60
50
48
00
00
00
ENDCHAR
STARTCHAR uni01EA
ENCODING 490
SWIDTH 480 0
DWIDTH 6 0
BBX 6 12 0 -3
BITMAP
00
00
70
88
88
88
88
88
70
40
60
00
ENDCHAR
STARTCHAR uni01EB
ENCODING 491
SWIDTH 480 0
DWIDTH 6 0
BBX 6 12 0 -3
BITMAP
00
00
00
00
70
88
88
88
70
40
60
00
ENDCHAR
STARTCHAR uni01EC
ENCODING 492
SWIDTH 480 0
DWIDTH 6 0
BBX 6 12 0 -3
BITMAP
00
F8
00
70
88
88
88
88
70
40
60
00
ENDCHAR
STARTCHAR uni01ED
ENCODING 493
SWIDTH 480 0
DWIDTH 6 0
BBX 6 12 0 -3
BITMAP
00
00
F8
00
70
88
88
88
70
40
60
00
ENDCHAR
STARTCHAR uni01EE
ENCODING 494
SWIDTH 480 0
DWIDTH 6 0
BBX 6 12 0 -3
BITMAP
50
20
00
F8
10
20
70
08
08
90
60
00
ENDCHAR
STARTCHAR uni01EF
ENCODING 495
SWIDTH 480 0
DWIDTH 6 0
BBX 6 12 0 -3
BITMAP
00
50
20
00
F8
10
20
70
08
08
F0
00
ENDCHAR
STARTCHAR uni01F0
ENCODING 496
SWIDTH 480 0
DWIDTH 6 0
BBX 6 12 0 -3
BITMAP
00
28
10
00
70
10
10
10
10
10
10
E0
ENDCHAR
STARTCHAR uni01F1
ENCODING 497
SWIDTH 480 0
DWIDTH 6 0
BBX 6 12 0 -3
BITMAP
00
00
DC
A4
A4
A8
B0
B0
DC
00
00
00
ENDCHAR
STARTCHAR uni01F2
ENCODING 498
SWIDTH 480 0
DWIDTH 6 0
BBX 6 12 0 -3
BITMAP
00
04
C0
A0
BC
A4
A8
B0
DC
00
00
00
ENDCHAR
STARTCHAR uni01F3
ENCODING 499
SWIDTH 480 0
DWIDTH 6 0
BBX 6 12 0 -3
BITMAP
00
00
20
20
7C
A4
A8
B0
7C
00
00
00
ENDCHAR
STARTCHAR uni01F4
ENCODING 500
SWIDTH 480 0
DWIDTH 6 0
BBX 6 12 0 -3
BITMAP
10
20
00
70
80
80
98
88
70
00
00
00
ENDCHAR
STARTCHAR uni01F5
ENCODING 501
SWIDTH 480 0
DWIDTH 6 0
BBX 6 12 0 -3
BITMAP
00
10
20
00
78
88
88
88
78
08
08
70
ENDCHAR
STARTCHAR Aringacute
ENCODING 506
SWIDTH 480 0
DWIDTH 6 0
BBX 6 12 0 -3
BITMAP
10
20
20
50
20
70
88
F8
88
00
00
00
ENDCHAR
STARTCHAR aringacute
ENCODING 507
SWIDTH 480 0
DWIDTH 6 0
BBX 6 12 0 -3
BITMAP
10
20
20
50
20
00
78
88
78
00
00
00
ENDCHAR
STARTCHAR AEacute
ENCODING 508
SWIDTH 480 0
DWIDTH 6 0
BBX 6 12 0 -3
BITMAP
10
20
00
78
A0
B8
E0
A0
B8
00
00
00
ENDCHAR
STARTCHAR aeacute
ENCODING 509
SWIDTH 480 0
DWIDTH 6 0
BBX 6 12 0 -3
BITMAP
00
10
20
00
70
28
70
A0
78
00
00
00
ENDCHAR
STARTCHAR Oslashacute
ENCODING 510
SWIDTH 480 0
DWIDTH 6 0
BBX 6 12 0 -3
BITMAP
10
20
08
78
98
A8
A8
C8
F0
80
00
00
ENDCHAR
STARTCHAR oslashacute
ENCODING 511
SWIDTH 480 0
DWIDTH 6 0
BBX 6 12 0 -3
BITMAP
00
10
20
08
78
98
A8
C8
F0
80
00
00
ENDCHAR
STARTCHAR uni0200
ENCODING 512
SWIDTH 480 0
DWIDTH 6 0
BBX 6 12 0 -3
BITMAP
90
48
00
70
88
88
F8
88
88
00
00
00
ENDCHAR
STARTCHAR uni0201
ENCODING 513
SWIDTH 480 0
DWIDTH 6 0
BBX 6 12 0 -3
BITMAP
00
90
48
00
78
88
88
98
68
00
00
00
ENDCHAR
STARTCHAR uni0202
ENCODING 514
SWIDTH 480 0
DWIDTH 6 0
BBX 6 12 0 -3
BITMAP
70
88
00
70
88
88
F8
88
88
00
00
00
ENDCHAR
STARTCHAR uni0203
ENCODING 515
SWIDTH 480 0
DWIDTH 6 0
BBX 6 12 0 -3
BITMAP
00
70
88
00
78
88
88
98
68
00
00
00
ENDCHAR
STARTCHAR uni0204
ENCODING 516
SWIDTH 480 0
DWIDTH 6 0
BBX 6 12 0 -3
BITMAP
90
48
00
F8
80
F0
80
80
F8
00
00
00
ENDCHAR
STARTCHAR uni0205
ENCODING 517
SWIDTH 480 0
DWIDTH 6 0
BBX 6 12 0 -3
BITMAP
00
90
48
00
70
88
F8
80
70
00
00
00
ENDCHAR
STARTCHAR uni0206
ENCODING 518
SWIDTH 480 0
DWIDTH 6 0
BBX 6 12 0 -3
BITMAP
70
88
00
F8
80
F0
80
80
F8
00
00
00
ENDCHAR
STARTCHAR uni0207
ENCODING 519
SWIDTH 480 0
DWIDTH 6 0
BBX 6 12 0 -3
BITMAP
00
70
88
00
70
88
F8
80
70
00
00
00
ENDCHAR
STARTCHAR uni0208
ENCODING 520
SWIDTH 480 0
DWIDTH 6 0
BBX 6 12 0 -3
BITMAP
90
48
00
F8
20
20
20
20
F8
00
00
00
ENDCHAR
STARTCHAR uni0209
ENCODING 521
SWIDTH 480 0
DWIDTH 6 0
BBX 6 12 0 -3
BITMAP
00
90
48
00
60
20
20
20
70
00
00
00
ENDCHAR
STARTCHAR uni020A
ENCODING 522
SWIDTH 480 0
DWIDTH 6 0
BBX 6 12 0 -3
BITMAP
70
88
00
F8
20
20
20
20
F8
00
00
00
ENDCHAR
STARTCHAR uni020B
ENCODING 523
SWIDTH 480 0
DWIDTH 6 0
BBX 6 12 0 -3
BITMAP
00
70
88
00
60
20
20
20
70
00
00
00
ENDCHAR
STARTCHAR uni020C
ENCODING 524
SWIDTH 480 0
DWIDTH 6 0
BBX 6 12 0 -3
BITMAP
90
48
00
70
88
88
88
88
70
00
00
00
ENDCHAR
STARTCHAR uni020D
ENCODING 525
SWIDTH 480 0
DWIDTH 6 0
BBX 6 12 0 -3
BITMAP
00
90
48
00
70
88
88
88
70
00
00
00
ENDCHAR
STARTCHAR uni020E
ENCODING 526
SWIDTH 480 0
DWIDTH 6 0
BBX 6 12 0 -3
BITMAP
70
88
00
70
88
88
88
88
70
00
00
00
ENDCHAR
STARTCHAR uni020F
ENCODING 527
SWIDTH 480 0
DWIDTH 6 0
BBX 6 12 0 -3
BITMAP
00
70
88
00
70
88
88
88
70
00
00
00
ENDCHAR
STARTCHAR uni0210
ENCODING 528
SWIDTH 480 0
DWIDTH 6 0
BBX 6 12 0 -3
BITMAP
90
48
00
F0
88
F0
A0
90
88
00
00
00
ENDCHAR
STARTCHAR uni0211
ENCODING 529
SWIDTH 480 0
DWIDTH 6 0
BBX 6 12 0 -3
BITMAP
00
90
48
00
B0
C0
80
80
80
00
00
00
ENDCHAR
STARTCHAR uni0212
ENCODING 530
SWIDTH 480 0
DWIDTH 6 0
BBX 6 12 0 -3
BITMAP
70
88
00
F0
88
F0
A0
90
88
00
00
00
ENDCHAR
STARTCHAR uni0213
ENCODING 531
SWIDTH 480 0
DWIDTH 6 0
BBX 6 12 0 -3
BITMAP
00
70
88
00
B0
C0
80
80
80
00
00
00
ENDCHAR
STARTCHAR uni0214
ENCODING 532
SWIDTH 480 0
DWIDTH 6 0
BBX 6 12 0 -3
BITMAP
90
48
00
88
88
88
88
88
70
00
00
00
ENDCHAR
STARTCHAR uni0215
ENCODING 533
SWIDTH 480 0
DWIDTH 6 0
BBX 6 12 0 -3
BITMAP
00
90
48
00
88
88
88
98
68
00
00
00
ENDCHAR
STARTCHAR uni0216
ENCODING 534
SWIDTH 480 0
DWIDTH 6 0
BBX 6 12 0 -3
BITMAP
70
88
00
88
88
88
88
88
70
00
00
00
ENDCHAR
STARTCHAR uni0217
ENCODING 535
SWIDTH 480 0
DWIDTH 6 0
BBX 6 12 0 -3
BITMAP
00
70
88
00
88
88
88
98
68
00
00
00
ENDCHAR
STARTCHAR Scommaaccent
ENCODING 536
SWIDTH 480 0
DWIDTH 6 0
BBX 6 12 0 -3
BITMAP
00
00
70
88
80
70
08
88
70
60
20
40
ENDCHAR
STARTCHAR scommaaccent
ENCODING 537
SWIDTH 480 0
DWIDTH 6 0
BBX 6 12 0 -3
BITMAP
00
00
00
00
78
80
70
08
F0
60
20
40
ENDCHAR
STARTCHAR Tcommaaccent
ENCODING 538
SWIDTH 480 0
DWIDTH 6 0
BBX 6 12 0 -3
BITMAP
00
00
F8
20
20
20
20
20
20
30
10
20
ENDCHAR
STARTCHAR tcommaaccent
ENCODING 539
SWIDTH 480 0
DWIDTH 6 0
BBX 6 12 0 -3
BITMAP
00
20
20
20
F8
20
20
20
18
30
10
20
ENDCHAR
STARTCHAR uni0259
ENCODING 601
SWIDTH 480 0
DWIDTH 6 0
BBX 6 12 0 -3
BITMAP
00
00
00
00
70
08
F8
88
70
00
00
00
ENDCHAR
STARTCHAR uni02BB
ENCODING 699
SWIDTH 480 0
DWIDTH 6 0
BBX 6 12 0 -3
BITMAP
00
10
20
30
00
00
00
00
00
00
00
00
ENDCHAR
STARTCHAR afii57929
ENCODING 700
SWIDTH 480 0
DWIDTH 6 0
BBX 6 12 0 -3
BITMAP
00
30
10
20
00
00
00
00
00
00
00
00
ENDCHAR
STARTCHAR afii64937
ENCODING 701
SWIDTH 480 0
DWIDTH 6 0
BBX 6 12 0 -3
BITMAP
00
30
20
10
00
00
00
00
00
00
00
00
ENDCHAR
STARTCHAR uni02BE
ENCODING 702
SWIDTH 480 0
DWIDTH 6 0
BBX 6 12 0 -3
BITMAP
20
10
10
20
00
00
00
00
00
00
00
00
ENDCHAR
STARTCHAR uni02BF
ENCODING 703
SWIDTH 480 0
DWIDTH 6 0
BBX 6 12 0 -3
BITMAP
10
20
20
10
00
00
00
00
00
00
00
00
ENDCHAR
STARTCHAR circumflex
ENCODING 710
SWIDTH 480 0
DWIDTH 6 0
BBX 6 12 0 -3
BITMAP
00
20
50
00
00
00
00
00
00
00
00
00
ENDCHAR
STARTCHAR caron
ENCODING 711
SWIDTH 480 0
DWIDTH 6 0
BBX 6 12 0 -3
BITMAP
00
50
20
00
00
00
00
00
00
00
00
00
ENDCHAR
STARTCHAR macron
ENCODING 713
SWIDTH 480 0
DWIDTH 6 0
BBX 6 12 0 -3
BITMAP
00
70
00
00
00
00
00
00
00
00
00
00
ENDCHAR
STARTCHAR uni02D6
ENCODING 726
SWIDTH 480 0
DWIDTH 6 0
BBX 6 12 0 -3
BITMAP
20
70
20
00
00
00
00
00
00
00
00
00
ENDCHAR
STARTCHAR breve
ENCODING 728
SWIDTH 480 0
DWIDTH 6 0
BBX 6 12 0 -3
BITMAP
00
48
30
00
00
00
00
00
00
00
00
00
ENDCHAR
STARTCHAR dotaccent
ENCODING 729
SWIDTH 480 0
DWIDTH 6 0
BBX 6 12 0 -3
BITMAP
00
20
00
00
00
00
00
00
00
00
00
00
ENDCHAR
STARTCHAR ring
ENCODING 730
SWIDTH 480 0
DWIDTH 6 0
BBX 6 12 0 -3
BITMAP
20
50
20
00
00
00
00
00
00
00
00
00
ENDCHAR
STARTCHAR ogonek
ENCODING 731
SWIDTH 480 0
DWIDTH 6 0
BBX 6 12 0 -3
BITMAP
00
00
00
00
00
00
00
00
00
20
40
30
ENDCHAR
STARTCHAR tilde
ENCODING 732
SWIDTH 480 0
DWIDTH 6 0
BBX 6 12 0 -3
BITMAP
00
28
50
00
00
00
00
00
00
00
00
00
ENDCHAR
STARTCHAR hungarumlaut
ENCODING 733
SWIDTH 480 0
DWIDTH 6 0
BBX 6 12 0 -3
BITMAP
00
48
90
00
00
00
00
00
00
00
00
00
ENDCHAR
STARTCHAR gravecomb
ENCODING 768
SWIDTH 480 0
DWIDTH 6 0
BBX 6 12 0 -3
BITMAP
20
10
00
00
00
00
00
00
00
00
00
00
ENDCHAR
STARTCHAR acutecomb
ENCODING 769
SWIDTH 480 0
DWIDTH 6 0
BBX 6 12 0 -3
BITMAP
10
20
00
00
00
00
00
00
00
00
00
00
ENDCHAR
STARTCHAR uni0302
ENCODING 770
SWIDTH 480 0
DWIDTH 6 0
BBX 6 12 0 -3
BITMAP
20
50
00
00
00
00
00
00
00
00
00
00
ENDCHAR
STARTCHAR tildecomb
ENCODING 771
SWIDTH 480 0
DWIDTH 6 0
BBX 6 12 0 -3
BITMAP
28
50
00
00
00
00
00
00
00
00
00
00
ENDCHAR
STARTCHAR uni0304
ENCODING 772
SWIDTH 480 0
DWIDTH 6 0
BBX 6 12 0 -3
BITMAP
00
70
00
00
00
00
00
00
00
00
00
00
ENDCHAR
STARTCHAR uni0305
ENCODING 773
SWIDTH 480 0
DWIDTH 6 0
BBX 6 12 0 -3
BITMAP
00
F8
00
00
00
00
00
00
00
00
00
00
ENDCHAR
STARTCHAR uni0306
ENCODING 774
SWIDTH 480 0
DWIDTH 6 0
BBX 6 12 0 -3
BITMAP
88
70
00
00
00
00
00
00
00
00
00
00
ENDCHAR
STARTCHAR uni0307
ENCODING 775
SWIDTH 480 0
DWIDTH 6 0
BBX 6 12 0 -3
BITMAP
00
20
00
00
00
00
00
00
00
00
00
00
ENDCHAR
STARTCHAR uni0308
ENCODING 776
SWIDTH 480 0
DWIDTH 6 0
BBX 6 12 0 -3
BITMAP
00
50
00
00
00
00
00
00
00
00
00
00
ENDCHAR
STARTCHAR hookabovecomb
ENCODING 777
SWIDTH 480 0
DWIDTH 6 0
BBX 6 12 0 -3
BITMAP
60
10
20
00
00
00
00
00
00
00
00
00
ENDCHAR
STARTCHAR uni030A
ENCODING 778
SWIDTH 480 0
DWIDTH 6 0
BBX 6 12 0 -3
BITMAP
20
50
20
00
00
00
00
00
00
00
00
00
ENDCHAR
STARTCHAR uni030B
ENCODING 779
SWIDTH 480 0
DWIDTH 6 0
BBX 6 12 0 -3
BITMAP
48
90
00
00
00
00
00
00
00
00
00
00
ENDCHAR
STARTCHAR uni030C
ENCODING 780
SWIDTH 480 0
DWIDTH 6 0
BBX 6 12 0 -3
BITMAP
50
20
00
00
00
00
00
00
00
00
00
00
ENDCHAR
STARTCHAR uni030D
ENCODING 781
SWIDTH 480 0
DWIDTH 6 0
BBX 6 12 0 -3
BITMAP
20
20
00
00
00
00
00
00
00
00
00
00
ENDCHAR
STARTCHAR uni030E
ENCODING 782
SWIDTH 480 0
DWIDTH 6 0
BBX 6 12 0 -3
BITMAP
50
50
00
00
00
00
00
00
00
00
00
00
ENDCHAR
STARTCHAR uni030F
ENCODING 783
SWIDTH 480 0
DWIDTH 6 0
BBX 6 12 0 -3
BITMAP
90
48
00
00
00
00
00
00
00
00
00
00
ENDCHAR
STARTCHAR uni0310
ENCODING 784
SWIDTH 480 0
DWIDTH 6 0
BBX 6 12 0 -3
BITMAP
20
88
70
00
00
00
00
00
00
00
00
00
ENDCHAR
STARTCHAR uni0311
ENCODING 785
SWIDTH 480 0
DWIDTH 6 0
BBX 6 12 0 -3
BITMAP
70
88
00
00
00
00
00
00
00
00
00
00
ENDCHAR
STARTCHAR uni0338
ENCODING 824
SWIDTH 480 0
DWIDTH 6 0
BBX 6 12 0 -3
BITMAP
00
08
08
10
10
20
40
40
80
80
00
00
ENDCHAR
STARTCHAR uni0374
ENCODING 884
SWIDTH 480 0
DWIDTH 6 0
BBX 6 12 0 -3
BITMAP
10
20
00
00
00
00
00
00
00
00
00
00
ENDCHAR
STARTCHAR uni0375
ENCODING 885
SWIDTH 480 0
DWIDTH 6 0
BBX 6 12 0 -3
BITMAP
00
00
00
00
00
00
00
00
00
10
20
00
ENDCHAR
STARTCHAR uni037A
ENCODING 890
SWIDTH 480 0
DWIDTH 6 0
BBX 6 12 0 -3
BITMAP
00
00
00
00
00
00
00
00
00
00
20
30
ENDCHAR
STARTCHAR uni037E
ENCODING 894
SWIDTH 480 0
DWIDTH 6 0
BBX 6 12 0 -3
BITMAP
00
00
00
30
30
00
00
30
30
20
40
00
ENDCHAR
STARTCHAR tonos
ENCODING 900
SWIDTH 480 0
DWIDTH 6 0
BBX 6 12 0 -3
BITMAP
20
20
00
00
00
00
00
00
00
00
00
00
ENDCHAR
STARTCHAR dieresistonos
ENCODING 901
SWIDTH 480 0
DWIDTH 6 0
BBX 6 12 0 -3
BITMAP
20
20
50
00
00
00
00
00
00
00
00
00
ENDCHAR
STARTCHAR Alphatonos
ENCODING 902
SWIDTH 480 0
DWIDTH 6 0
BBX 6 12 0 -3
BITMAP
00
80
90
28
44
44
7C
44
44
00
00
00
ENDCHAR
STARTCHAR anoteleia
ENCODING 903
SWIDTH 480 0
DWIDTH 6 0
BBX 6 12 0 -3
BITMAP
00
00
00
00
30
00
00
00
00
00
00
00
ENDCHAR
STARTCHAR Epsilontonos
ENCODING 904
SWIDTH 480 0
DWIDTH 6 0
BBX 6 12 0 -3
BITMAP
00
80
BC
20
20
38
20
20
3C
00
00
00
ENDCHAR
STARTCHAR Etatonos
ENCODING 905
SWIDTH 480 0
DWIDTH 6 0
BBX 6 12 0 -3
BITMAP
00
80
A4
24
24
3C
24
24
24
00
00
00
ENDCHAR
STARTCHAR Iotatonos
ENCODING 906
SWIDTH 480 0
DWIDTH 6 0
BBX 6 12 0 -3
BITMAP
00
80
B8
10
10
10
10
10
38
00
00
00
ENDCHAR
STARTCHAR Omicrontonos
ENCODING 908
SWIDTH 480 0
DWIDTH 6 0
BBX 6 12 0 -3
BITMAP
00
80
98
24
24
24
24
24
18
00
00
00
ENDCHAR
STARTCHAR Upsilontonos
ENCODING 910
SWIDTH 480 0
DWIDTH 6 0
BBX 6 12 0 -3
BITMAP
00
80
A8
28
10
10
10
10
10
00
00
00
ENDCHAR
STARTCHAR Omegatonos
ENCODING 911
SWIDTH 480 0
DWIDTH 6 0
BBX 6 12 0 -3
BITMAP
00
80
90
28
44
44
44
28
6C
00
00
00
ENDCHAR
STARTCHAR iotadieresistonos
ENCODING 912
SWIDTH 480 0
DWIDTH 6 0
BBX 6 12 0 -3
BITMAP
10
20
00
50
00
60
20
28
10
00
00
00
ENDCHAR
STARTCHAR Alpha
ENCODING 913
SWIDTH 480 0
DWIDTH 6 0
BBX 6 12 0 -3
BITMAP
00
00
20
50
88
88
F8
88
88
00
00
00
ENDCHAR
STARTCHAR Beta
ENCODING 914
SWIDTH 480 0
DWIDTH 6 0
BBX 6 12 0 -3
BITMAP
00
00
F0
88
88
F0
88
88
F0
00
00
00
ENDCHAR
STARTCHAR Gamma
ENCODING 915
SWIDTH 480 0
DWIDTH 6 0
BBX 6 12 0 -3
BITMAP
00
00
78
40
40
40
40
40
40
00
00
00
ENDCHAR
STARTCHAR Delta
ENCODING 916
SWIDTH 480 0
DWIDTH 6 0
BBX 6 12 0 -3
BITMAP
00
20
20
50
50
50
88
88
F8
00
00
00
ENDCHAR
STARTCHAR Epsilon
ENCODING 917
SWIDTH 480 0
DWIDTH 6 0
BBX 6 12 0 -3
BITMAP
00
00
F8
80
80
F0
80
80
F8
00
00
00
ENDCHAR
STARTCHAR Zeta
ENCODING 918
SWIDTH 480 0
DWIDTH 6 0
BBX 6 12 0 -3
BITMAP
00
00
F8
08
10
20
40
80
F8
00
00
00
ENDCHAR
STARTCHAR Eta
ENCODING 919
SWIDTH 480 0
DWIDTH 6 0
BBX 6 12 0 -3
BITMAP
00
00
88
88
88
F8
88
88
88
00
00
00
ENDCHAR
STARTCHAR Theta
ENCODING 920
SWIDTH 480 0
DWIDTH 6 0
BBX 6 12 0 -3
BITMAP
00
00
70
88
88
A8
88
88
70
00
00
00
ENDCHAR
STARTCHAR Iota
ENCODING 921
SWIDTH 480 0
DWIDTH 6 0
BBX 6 12 0 -3
BITMAP
00
00
F8
20
20
20
20
20
F8
00
00
00
ENDCHAR
STARTCHAR Kappa
ENCODING 922
SWIDTH 480 0
DWIDTH 6 0
BBX 6 12 0 -3
BITMAP
00
00
88
90
A0
C0
A0
90
88
00
00
00
ENDCHAR
STARTCHAR Lambda
ENCODING 923
SWIDTH 480 0
DWIDTH 6 0
BBX 6 12 0 -3
BITMAP
00
00
20
20
50
50
88
88
88
00
00
00
ENDCHAR
STARTCHAR Mu
ENCODING 924
SWIDTH 480 0
DWIDTH 6 0
BBX 6 12 0 -3
BITMAP
00
00
88
D8
A8
A8
88
88
88
00
00
00
ENDCHAR
STARTCHAR Nu
ENCODING 925
SWIDTH 480 0
DWIDTH 6 0
BBX 6 12 0 -3
BITMAP
00
00
88
C8
C8
A8
98
98
88
00
00
00
ENDCHAR
STARTCHAR Xi
ENCODING 926
SWIDTH 480 0
DWIDTH 6 0
BBX 6 12 0 -3
BITMAP
00
00
F8
00
00
70
00
00
F8
00
00
00
ENDCHAR
STARTCHAR Omicron
ENCODING 927
SWIDTH 480 0
DWIDTH 6 0
BBX 6 12 0 -3
BITMAP
00
00
70
88
88
88
88
88
70
00
00
00
ENDCHAR
STARTCHAR Pi
ENCODING 928
SWIDTH 480 0
DWIDTH 6 0
BBX 6 12 0 -3
BITMAP
00
00
F8
88
88
88
88
88
88
00
00
00
ENDCHAR
STARTCHAR Rho
ENCODING 929
SWIDTH 480 0
DWIDTH 6 0
BBX 6 12 0 -3
BITMAP
00
00
F0
88
88
F0
80
80
80
00
00
00
ENDCHAR
STARTCHAR Sigma
ENCODING 931
SWIDTH 480 0
DWIDTH 6 0
BBX 6 12 0 -3
BITMAP
00
00
F8
40
20
10
20
40
F8
00
00
00
ENDCHAR
STARTCHAR Tau
ENCODING 932
SWIDTH 480 0
DWIDTH 6 0
BBX 6 12 0 -3
BITMAP
00
00
F8
20
20
20
20
20
20
00
00
00
ENDCHAR
STARTCHAR Upsilon
ENCODING 933
SWIDTH 480 0
DWIDTH 6 0
BBX 6 12 0 -3
BITMAP
00
00
88
88
50
20
20
20
20
00
00
00
ENDCHAR
STARTCHAR Phi
ENCODING 934
SWIDTH 480 0
DWIDTH 6 0
BBX 6 12 0 -3
BITMAP
00
70
20
70
A8
A8
70
20
70
00
00
00
ENDCHAR
STARTCHAR Chi
ENCODING 935
SWIDTH 480 0
DWIDTH 6 0
BBX 6 12 0 -3
BITMAP
00
00
88
88
50
20
50
88
88
00
00
00
ENDCHAR
STARTCHAR Psi
ENCODING 936
SWIDTH 480 0
DWIDTH 6 0
BBX 6 12 0 -3
BITMAP
00
00
A8
A8
A8
70
20
20
20
00
00
00
ENDCHAR
STARTCHAR Omega
ENCODING 937
SWIDTH 480 0
DWIDTH 6 0
BBX 6 12 0 -3
BITMAP
00
00
70
88
88
88
88
50
D8
00
00
00
ENDCHAR
STARTCHAR Iotadieresis
ENCODING 938
SWIDTH 480 0
DWIDTH 6 0
BBX 6 12 0 -3
BITMAP
00
50
00
F8
20
20
20
20
F8
00
00
00
ENDCHAR
STARTCHAR Upsilondieresis
ENCODING 939
SWIDTH 480 0
DWIDTH 6 0
BBX 6 12 0 -3
BITMAP
00
50
00
88
50
20
20
20
20
00
00
00
ENDCHAR
STARTCHAR alphatonos
ENCODING 940
SWIDTH 480 0
DWIDTH 6 0
BBX 6 12 0 -3
BITMAP
00
20
20
00
68
98
88
98
68
00
00
00
ENDCHAR
STARTCHAR epsilontonos
ENCODING 941
SWIDTH 480 0
DWIDTH 6 0
BBX 6 12 0 -3
BITMAP
00
20
20
00
70
88
60
88
70
00
00
00
ENDCHAR
STARTCHAR etatonos
ENCODING 942
SWIDTH 480 0
DWIDTH 6 0
BBX 6 12 0 -3
BITMAP
00
20
20
00
B0
C8
88
88
88
08
08
00
ENDCHAR
STARTCHAR iotatonos
ENCODING 943
SWIDTH 480 0
DWIDTH 6 0
BBX 6 12 0 -3
BITMAP
00
20
20
00
60
20
20
28
10
00
00
00
ENDCHAR
STARTCHAR upsilondieresistonos
ENCODING 944
SWIDTH 480 0
DWIDTH 6 0
BBX 6 12 0 -3
BITMAP
20
20
88
00
90
88
88
90
60
00
00
00
ENDCHAR
STARTCHAR alpha
ENCODING 945
SWIDTH 480 0
DWIDTH 6 0
BBX 6 12 0 -3
BITMAP
00
00
00
00
68
98
88
98
68
00
00
00
ENDCHAR
STARTCHAR beta
ENCODING 946
SWIDTH 480 0
DWIDTH 6 0
BBX 6 12 0 -3
BITMAP
00
00
70
88
88
F0
88
88
C8
B0
80
00
ENDCHAR
STARTCHAR gamma
ENCODING 947
SWIDTH 480 0
DWIDTH 6 0
BBX 6 12 0 -3
BITMAP
00
00
44
A8
28
10
10
10
10
00
00
00
ENDCHAR
STARTCHAR delta
ENCODING 948
SWIDTH 480 0
DWIDTH 6 0
BBX 6 12 0 -3
BITMAP
30
48
20
10
30
48
48
48
30
00
00
00
ENDCHAR
STARTCHAR epsilon
ENCODING 949
SWIDTH 480 0
DWIDTH 6 0
BBX 6 12 0 -3
BITMAP
00
00
00
00
70
88
60
88
70
00
00
00
ENDCHAR
STARTCHAR zeta
ENCODING 950
SWIDTH 480 0
DWIDTH 6 0
BBX 6 12 0 -3
BITMAP
00
40
38
20
40
40
40
40
38
08
30
00
ENDCHAR
STARTCHAR eta
ENCODING 951
SWIDTH 480 0
DWIDTH 6 0
BBX 6 12 0 -3
BITMAP
00
00
00
00
B0
C8
88
88
88
08
08
00
ENDCHAR
STARTCHAR theta
ENCODING 952
SWIDTH 480 0
DWIDTH 6 0
BBX 6 12 0 -3
BITMAP
00
00
30
48
48
78
48
48
30
00
00
00
ENDCHAR
STARTCHAR iota
ENCODING 953
SWIDTH 480 0
DWIDTH 6 0
BBX 6 12 0 -3
BITMAP
00
00
00
00
60
20
20
28
10
00
00
00
ENDCHAR
STARTCHAR kappa
ENCODING 954
SWIDTH 480 0
DWIDTH 6 0
BBX 6 12 0 -3
BITMAP
00
00
00
00
48
50
60
50
48
00
00
00
ENDCHAR
STARTCHAR lambda
ENCODING 955
SWIDTH 480 0
DWIDTH 6 0
BBX 6 12 0 -3
BITMAP
00
40
A0
20
20
50
50
88
88
00
00
00
ENDCHAR
STARTCHAR mu
ENCODING 956
SWIDTH 480 0
DWIDTH 6 0
BBX 6 12 0 -3
BITMAP
00
00
00
00
88
88
88
98
E8
80
80
00
ENDCHAR
STARTCHAR nu
ENCODING 957
SWIDTH 480 0
DWIDTH 6 0
BBX 6 12 0 -3
BITMAP
00
00
00
00
D8
50
50
20
20
00
00
00
ENDCHAR
STARTCHAR xi
ENCODING 958
SWIDTH 480 0
DWIDTH 6 0
BBX 6 12 0 -3
BITMAP
00
80
70
80
80
70
80
80
70
08
30
00
ENDCHAR
STARTCHAR omicron
ENCODING 959
SWIDTH 480 0
DWIDTH 6 0
BBX 6 12 0 -3
BITMAP
00
00
00
00
70
88
88
88
70
00
00
00
ENDCHAR
STARTCHAR pi
ENCODING 960
SWIDTH 480 0
DWIDTH 6 0
BBX 6 12 0 -3
BITMAP
00
00
00
00
F8
88
88
88
88
00
00
00
ENDCHAR
STARTCHAR rho
ENCODING 961
SWIDTH 480 0
DWIDTH 6 0
BBX 6 12 0 -3
BITMAP
00
00
00
00
70
88
88
88
B0
80
80
80
ENDCHAR
STARTCHAR sigma1
ENCODING 962
SWIDTH 480 0
DWIDTH 6 0
BBX 6 12 0 -3
BITMAP
00
00
00
00
78
80
70
08
70
00
00
00
ENDCHAR
STARTCHAR sigma
ENCODING 963
SWIDTH 480 0
DWIDTH 6 0
BBX 6 12 0 -3
BITMAP
00
00
00
00
78
90
90
90
60
00
00
00
ENDCHAR
STARTCHAR tau
ENCODING 964
SWIDTH 480 0
DWIDTH 6 0
BBX 6 12 0 -3
BITMAP
00
00
00
00
78
20
20
28
10
00
00
00
ENDCHAR
STARTCHAR upsilon
ENCODING 965
SWIDTH 480 0
DWIDTH 6 0
BBX 6 12 0 -3
BITMAP
00
00
00
90
88
88
88
90
60
00
00
00
ENDCHAR
STARTCHAR phi
ENCODING 966
SWIDTH 480 0
DWIDTH 6 0
BBX 6 12 0 -3
BITMAP
00
00
30
A8
A8
A8
70
20
20
00
00
00
ENDCHAR
STARTCHAR chi
ENCODING 967
SWIDTH 480 0
DWIDTH 6 0
BBX 6 12 0 -3
BITMAP
00
00
00
00
88
50
20
50
88
00
00
00
ENDCHAR
STARTCHAR psi
ENCODING 968
SWIDTH 480 0
DWIDTH 6 0
BBX 6 12 0 -3
BITMAP
00
00
00
00
A8
A8
70
20
20
00
00
00
ENDCHAR
STARTCHAR omega
ENCODING 969
SWIDTH 480 0
DWIDTH 6 0
BBX 6 12 0 -3
BITMAP
00
00
00
00
50
88
A8
A8
50
00
00
00
ENDCHAR
STARTCHAR iotadieresis
ENCODING 970
SWIDTH 480 0
DWIDTH 6 0
BBX 6 12 0 -3
BITMAP
00
00
50
00
60
20
20
28
10
00
00
00
ENDCHAR
STARTCHAR upsilondieresis
ENCODING 971
SWIDTH 480 0
DWIDTH 6 0
BBX 6 12 0 -3
BITMAP
00
50
00
90
88
88
88
90
60
00
00
00
ENDCHAR
STARTCHAR omicrontonos
ENCODING 972
SWIDTH 480 0
DWIDTH 6 0
BBX 6 12 0 -3
BITMAP
00
20
20
00
70
88
88
88
70
00
00
00
ENDCHAR
STARTCHAR upsilontonos
ENCODING 973
SWIDTH 480 0
DWIDTH 6 0
BBX 6 12 0 -3
BITMAP
20
20
00
90
88
88
88
90
60
00
00
00
ENDCHAR
STARTCHAR omegatonos
ENCODING 974
SWIDTH 480 0
DWIDTH 6 0
BBX 6 12 0 -3
BITMAP
00
20
20
00
50
88
A8
A8
50
00
00
00
ENDCHAR
STARTCHAR theta1
ENCODING 977
SWIDTH 480 0
DWIDTH 6 0
BBX 6 12 0 -3
BITMAP
00
60
90
90
78
10
90
90
60
00
00
00
ENDCHAR
STARTCHAR phi1
ENCODING 981
SWIDTH 480 0
DWIDTH 6 0
BBX 6 12 0 -3
BITMAP
00
00
20
20
70
A8
A8
A8
70
20
20
00
ENDCHAR
STARTCHAR omega1
ENCODING 982
SWIDTH 480 0
DWIDTH 6 0
BBX 6 12 0 -3
BITMAP
00
00
00
00
FC
44
54
54
28
00
00
00
ENDCHAR
STARTCHAR uni03F1
ENCODING 1009
SWIDTH 480 0
DWIDTH 6 0
BBX 6 12 0 -3
BITMAP
00
00
00
00
30
48
48
48
70
40
38
00
ENDCHAR
STARTCHAR afii10023
ENCODING 1025
SWIDTH 480 0
DWIDTH 6 0
BBX 6 12 0 -3
BITMAP
50
00
F8
80
80
F0
80
80
F8
00
00
00
ENDCHAR
STARTCHAR afii10051
ENCODING 1026
SWIDTH 480 0
DWIDTH 6 0
BBX 6 12 0 -3
BITMAP
00
00
E0
40
40
70
48
48
48
08
30
00
ENDCHAR
STARTCHAR afii10052
ENCODING 1027
SWIDTH 480 0
DWIDTH 6 0
BBX 6 12 0 -3
BITMAP
10
20
00
78
40
40
40
40
40
00
00
00
ENDCHAR
STARTCHAR afii10053
ENCODING 1028
SWIDTH 480 0
DWIDTH 6 0
BBX 6 12 0 -3
BITMAP
00
00
70
88
80
F0
80
88
70
00
00
00
ENDCHAR
STARTCHAR afii10054
ENCODING 1029
SWIDTH 480 0
DWIDTH 6 0
BBX 6 12 0 -3
BITMAP
00
00
70
88
80
70
08
88
70
00
00
00
ENDCHAR
STARTCHAR afii10055
ENCODING 1030
SWIDTH 480 0
DWIDTH 6 0
BBX 6 12 0 -3
BITMAP
00
00
F8
20
20
20
20
20
F8
00
00
00
ENDCHAR
STARTCHAR afii10056
ENCODING 1031
SWIDTH 480 0
DWIDTH 6 0
BBX 6 12 0 -3
BITMAP
50
00
F8
20
20
20
20
20
F8
00
00
00
ENDCHAR
STARTCHAR afii10057
ENCODING 1032
SWIDTH 480 0
DWIDTH 6 0
BBX 6 12 0 -3
BITMAP
00
00
38
08
08
08
88
88
70
00
00
00
ENDCHAR
STARTCHAR afii10058
ENCODING 1033
SWIDTH 480 0
DWIDTH 6 0
BBX 6 12 0 -3
BITMAP
00
60
A0
A0
B0
A8
A8
A8
B0
00
00
00
ENDCHAR
STARTCHAR afii10059
ENCODING 1034
SWIDTH 480 0
DWIDTH 6 0
BBX 6 12 0 -3
BITMAP
00
A0
A0
A0
F0
A8
A8
A8
B0
00
00
00
ENDCHAR
STARTCHAR afii10060
ENCODING 1035
SWIDTH 480 0
DWIDTH 6 0
BBX 6 12 0 -3
BITMAP
00
00
E0
40
40
70
48
48
48
00
00
00
ENDCHAR
STARTCHAR afii10061
ENCODING 1036
SWIDTH 480 0
DWIDTH 6 0
BBX 6 12 0 -3
BITMAP
10
20
00
88
90
E0
90
88
88
00
00
00
ENDCHAR
STARTCHAR afii10062
ENCODING 1038
SWIDTH 480 0
DWIDTH 6 0
BBX 6 12 0 -3
BITMAP
88
70
00
88
88
88
78
08
70
00
00
00
ENDCHAR
STARTCHAR afii10145
ENCODING 1039
SWIDTH 480 0
DWIDTH 6 0
BBX 6 12 0 -3
BITMAP
00
00
88
88
88
88
88
88
F8
20
20
00
ENDCHAR
STARTCHAR afii10017
ENCODING 1040
SWIDTH 480 0
DWIDTH 6 0
BBX 6 12 0 -3
BITMAP
00
00
20
50
88
88
F8
88
88
00
00
00
ENDCHAR
STARTCHAR afii10018
ENCODING 1041
SWIDTH 480 0
DWIDTH 6 0
BBX 6 12 0 -3
BITMAP
00
00
F0
80
80
F0
88
88
F0
00
00
00
ENDCHAR
STARTCHAR afii10019
ENCODING 1042
SWIDTH 480 0
DWIDTH 6 0
BBX 6 12 0 -3
BITMAP
00
00
F0
88
88
F0
88
88
F0
00
00
00
ENDCHAR
STARTCHAR afii10020
ENCODING 1043
SWIDTH 480 0
DWIDTH 6 0
BBX 6 12 0 -3
BITMAP
00
00
78
40
40
40
40
40
40
00
00
00
ENDCHAR
STARTCHAR afii10021
ENCODING 1044
SWIDTH 480 0
DWIDTH 6 0
BBX 6 12 0 -3
BITMAP
00
00
30
50
50
50
50
50
F8
88
00
00
ENDCHAR
STARTCHAR afii10022
ENCODING 1045
SWIDTH 480 0
DWIDTH 6 0
BBX 6 12 0 -3
BITMAP
00
00
F8
80
80
F0
80
80
F8
00
00
00
ENDCHAR
STARTCHAR afii10024
ENCODING 1046
SWIDTH 480 0
DWIDTH 6 0
BBX 6 12 0 -3
BITMAP
00
00
A8
A8
A8
70
A8
A8
A8
00
00
00
ENDCHAR
STARTCHAR afii10025
ENCODING 1047
SWIDTH 480 0
DWIDTH 6 0
BBX 6 12 0 -3
BITMAP
00
70
88
08
10
08
08
88
70
00
00
00
ENDCHAR
STARTCHAR afii10026
ENCODING 1048
SWIDTH 480 0
DWIDTH 6 0
BBX 6 12 0 -3
BITMAP
00
00
88
98
98
A8
C8
C8
88
00
00
00
ENDCHAR
STARTCHAR afii10027
ENCODING 1049
SWIDTH 480 0
DWIDTH 6 0
BBX 6 12 0 -3
BITMAP
88
70
88
98
98
A8
C8
C8
88
00
00
00
ENDCHAR
STARTCHAR afii10028
ENCODING 1050
SWIDTH 480 0
DWIDTH 6 0
BBX 6 12 0 -3
BITMAP
00
00
88
90
A0
C0
A0
90
88
00
00
00
ENDCHAR
STARTCHAR afii10029
ENCODING 1051
SWIDTH 480 0
DWIDTH 6 0
BBX 6 12 0 -3
BITMAP
00
00
38
48
48
48
48
48
88
00
00
00
ENDCHAR
STARTCHAR afii10030
ENCODING 1052
SWIDTH 480 0
DWIDTH 6 0
BBX 6 12 0 -3
BITMAP
00
00
88
D8
A8
A8
88
88
88
00
00
00
ENDCHAR
STARTCHAR afii10031
ENCODING 1053
SWIDTH 480 0
DWIDTH 6 0
BBX 6 12 0 -3
BITMAP
00
00
88
88
88
F8
88
88
88
00
00
00
ENDCHAR
STARTCHAR afii10032
ENCODING 1054
SWIDTH 480 0
DWIDTH 6 0
BBX 6 12 0 -3
BITMAP
00
00
70
88
88
88
88
88
70
00
00
00
ENDCHAR
STARTCHAR afii10033
ENCODING 1055
SWIDTH 480 0
DWIDTH 6 0
BBX 6 12 0 -3
BITMAP
00
00
F8
88
88
88
88
88
88
00
00
00
ENDCHAR
STARTCHAR afii10034
ENCODING 1056
SWIDTH 480 0
DWIDTH 6 0
BBX 6 12 0 -3
BITMAP
00
00
F0
88
88
F0
80
80
80
00
00
00
ENDCHAR
STARTCHAR afii10035
ENCODING 1057
SWIDTH 480 0
DWIDTH 6 0
BBX 6 12 0 -3
BITMAP
00
00
70
88
80
80
80
88
70
00
00
00
ENDCHAR
STARTCHAR afii10036
ENCODING 1058
SWIDTH 480 0
DWIDTH 6 0
BBX 6 12 0 -3
BITMAP
00
00
F8
20
20
20
20
20
20
00
00
00
ENDCHAR
STARTCHAR afii10037
ENCODING 1059
SWIDTH 480 0
DWIDTH 6 0
BBX 6 12 0 -3
BITMAP
00
00
88
88
88
78
08
88
70
00
00
00
ENDCHAR
STARTCHAR afii10038
ENCODING 1060
SWIDTH 480 0
DWIDTH 6 0
BBX 6 12 0 -3
BITMAP
00
70
20
70
A8
A8
70
20
70
00
00
00
ENDCHAR
STARTCHAR afii10039
ENCODING 1061
SWIDTH 480 0
DWIDTH 6 0
BBX 6 12 0 -3
BITMAP
00
00
88
88
50
20
50
88
88
00
00
00
ENDCHAR
STARTCHAR afii10040
ENCODING 1062
SWIDTH 480 0
DWIDTH 6 0
BBX 6 12 0 -3
BITMAP
00
00
90
90
90
90
90
90
F8
08
00
00
ENDCHAR
STARTCHAR afii10041
ENCODING 1063
SWIDTH 480 0
DWIDTH 6 0
BBX 6 12 0 -3
BITMAP
00
00
88
88
88
78
08
08
08
00
00
00
ENDCHAR
STARTCHAR afii10042
ENCODING 1064
SWIDTH 480 0
DWIDTH 6 0
BBX 6 12 0 -3
BITMAP
00
00
A8
A8
A8
A8
A8
A8
F8
00
00
00
ENDCHAR
STARTCHAR afii10043
ENCODING 1065
SWIDTH 480 0
DWIDTH 6 0
BBX 6 12 0 -3
BITMAP
00
00
A8
A8
A8
A8
A8
A8
F8
08
08
00
ENDCHAR
STARTCHAR afii10044
ENCODING 1066
SWIDTH 480 0
DWIDTH 6 0
BBX 6 12 0 -3
BITMAP
00
00
C0
40
40
70
48
48
70
00
00
00
ENDCHAR
STARTCHAR afii10045
ENCODING 1067
SWIDTH 480 0
DWIDTH 6 0
BBX 6 12 0 -3
BITMAP
00
00
88
88
88
E8
98
98
E8
00
00
00
ENDCHAR
STARTCHAR afii10046
ENCODING 1068
SWIDTH 480 0
DWIDTH 6 0
BBX 6 12 0 -3
BITMAP
00
00
80
80
80
F0
88
88
F0
00
00
00
ENDCHAR
STARTCHAR afii10047
ENCODING 1069
SWIDTH 480 0
DWIDTH 6 0
BBX 6 12 0 -3
BITMAP
00
00
70
88
08
78
08
88
70
00
00
00
ENDCHAR
STARTCHAR afii10048
ENCODING 1070
SWIDTH 480 0
DWIDTH 6 0
BBX 6 12 0 -3
BITMAP
00
00
90
A8
A8
E8
A8
A8
90
00
00
00
ENDCHAR
STARTCHAR afii10049
ENCODING 1071
SWIDTH 480 0
DWIDTH 6 0
BBX 6 12 0 -3
BITMAP
00
00
78
88
88
78
28
48
88
00
00
00
ENDCHAR
STARTCHAR afii10065
ENCODING 1072
SWIDTH 480 0
DWIDTH 6 0
BBX 6 12 0 -3
BITMAP
00
00
00
00
70
08
78
88
78
00
00
00
ENDCHAR
STARTCHAR afii10066
ENCODING 1073
SWIDTH 480 0
DWIDTH 6 0
BBX 6 12 0 -3
BITMAP
00
00
70
80
70
88
88
88
70
00
00
00
ENDCHAR
STARTCHAR afii10067
ENCODING 1074
SWIDTH 480 0
DWIDTH 6 0
BBX 6 12 0 -3
BITMAP
00
00
00
00
F0
88
F0
88
F0
00
00
00
ENDCHAR
STARTCHAR afii10068
ENCODING 1075
SWIDTH 480 0
DWIDTH 6 0
BBX 6 12 0 -3
BITMAP
00
00
00
00
78
40
40
40
40
00
00
00
ENDCHAR
STARTCHAR afii10069
ENCODING 1076
SWIDTH 480 0
DWIDTH 6 0
BBX 6 12 0 -3
BITMAP
00
00
00
00
30
50
50
50
F8
88
00
00
ENDCHAR
STARTCHAR afii10070
ENCODING 1077
SWIDTH 480 0
DWIDTH 6 0
BBX 6 12 0 -3
BITMAP
00
00
00
00
70
88
F8
80
70
00
00
00
ENDCHAR
STARTCHAR afii10072
ENCODING 1078
SWIDTH 480 0
DWIDTH 6 0
BBX 6 12 0 -3
BITMAP
00
00
00
00
A8
A8
70
A8
A8
00
00
00
ENDCHAR
STARTCHAR afii10073
ENCODING 1079
SWIDTH 480 0
DWIDTH 6 0
BBX 6 12 0 -3
BITMAP
00
00
00
00
70
88
30
88
70
00
00
00
ENDCHAR
STARTCHAR afii10074
ENCODING 1080
SWIDTH 480 0
DWIDTH 6 0
BBX 6 12 0 -3
BITMAP
00
00
00
00
88
98
A8
C8
88
00
00
00
ENDCHAR
STARTCHAR afii10075
ENCODING 1081
SWIDTH 480 0
DWIDTH 6 0
BBX 6 12 0 -3
BITMAP
00
88
70
00
88
98
A8
C8
88
00
00
00
ENDCHAR
STARTCHAR afii10076
ENCODING 1082
SWIDTH 480 0
DWIDTH 6 0
BBX 6 12 0 -3
BITMAP
00
00
00
00
88
90
E0
90
88
00
00
00
ENDCHAR
STARTCHAR afii10077
ENCODING 1083
SWIDTH 480 0
DWIDTH 6 0
BBX 6 12 0 -3
BITMAP
00
00
00
00
38
48
48
48
88
00
00
00
ENDCHAR
STARTCHAR afii10078
ENCODING 1084
SWIDTH 480 0
DWIDTH 6 0
BBX 6 12 0 -3
BITMAP
00
00
00
00
88
D8
A8
88
88
00
00
00
ENDCHAR
STARTCHAR afii10079
ENCODING 1085
SWIDTH 480 0
DWIDTH 6 0
BBX 6 12 0 -3
BITMAP
00
00
00
00
88
88
F8
88
88
00
00
00
ENDCHAR
STARTCHAR afii10080
ENCODING 1086
SWIDTH 480 0
DWIDTH 6 0
BBX 6 12 0 -3
BITMAP
00
00
00
00
70
88
88
88
70
00
00
00
ENDCHAR
STARTCHAR afii10081
ENCODING 1087
SWIDTH 480 0
DWIDTH 6 0
BBX 6 12 0 -3
BITMAP
00
00
00
00
F8
88
88
88
88
00
00
00
ENDCHAR
STARTCHAR afii10082
ENCODING 1088
SWIDTH 480 0
DWIDTH 6 0
BBX 6 12 0 -3
BITMAP
00
00
00
00
F0
88
88
88
F0
80
80
80
ENDCHAR
STARTCHAR afii10083
ENCODING 1089
SWIDTH 480 0
DWIDTH 6 0
BBX 6 12 0 -3
BITMAP
00
00
00
00
78
80
80
80
78
00
00
00
ENDCHAR
STARTCHAR afii10084
ENCODING 1090
SWIDTH 480 0
DWIDTH 6 0
BBX 6 12 0 -3
BITMAP
00
00
00
00
F8
20
20
20
20
00
00
00
ENDCHAR
STARTCHAR afii10085
ENCODING 1091
SWIDTH 480 0
DWIDTH 6 0
BBX 6 12 0 -3
BITMAP
00
00
00
00
88
88
88
88
78
08
08
70
ENDCHAR
STARTCHAR afii10086
ENCODING 1092
SWIDTH 480 0
DWIDTH 6 0
BBX 6 12 0 -3
BITMAP
00
00
20
20
70
A8
A8
A8
70
20
20
00
ENDCHAR
STARTCHAR afii10087
ENCODING 1093
SWIDTH 480 0
DWIDTH 6 0
BBX 6 12 0 -3
BITMAP
00
00
00
00
88
50
20
50
88
00
00
00
ENDCHAR
STARTCHAR afii10088
ENCODING 1094
SWIDTH 480 0
DWIDTH 6 0
BBX 6 12 0 -3
BITMAP
00
00
00
00
90
90
90
90
F8
08
00
00
ENDCHAR
STARTCHAR afii10089
ENCODING 1095
SWIDTH 480 0
DWIDTH 6 0
BBX 6 12 0 -3
BITMAP
00
00
00
00
88
88
78
08
08
00
00
00
ENDCHAR
STARTCHAR afii10090
ENCODING 1096
SWIDTH 480 0
DWIDTH 6 0
BBX 6 12 0 -3
BITMAP
00
00
00
00
A8
A8
A8
A8
F8
00
00
00
ENDCHAR
STARTCHAR afii10091
ENCODING 1097
SWIDTH 480 0
DWIDTH 6 0
BBX 6 12 0 -3
BITMAP
00
00
00
00
A8
A8
A8
A8
F8
08
08
00
ENDCHAR
STARTCHAR afii10092
ENCODING 1098
SWIDTH 480 0
DWIDTH 6 0
BBX 6 12 0 -3
BITMAP
00
00
00
00
C0
40
70
48
70
00
00
00
ENDCHAR
STARTCHAR afii10093
ENCODING 1099
SWIDTH 480 0
DWIDTH 6 0
BBX 6 12 0 -3
BITMAP
00
00
00
00
88
88
E8
98
E8
00
00
00
ENDCHAR
STARTCHAR afii10094
ENCODING 1100
SWIDTH 480 0
DWIDTH 6 0
BBX 6 12 0 -3
BITMAP
00
00
00
00
80
80
F0
88
F0
00
00
00
ENDCHAR
STARTCHAR afii10095
ENCODING 1101
SWIDTH 480 0
DWIDTH 6 0
BBX 6 12 0 -3
BITMAP
00
00
00
00
70
88
38
88
70
00
00
00
ENDCHAR
STARTCHAR afii10096
ENCODING 1102
SWIDTH 480 0
DWIDTH 6 0
BBX 6 12 0 -3
BITMAP
00
00
00
00
90
A8
E8
A8
90
00
00
00
ENDCHAR
STARTCHAR afii10097
ENCODING 1103
SWIDTH 480 0
DWIDTH 6 0
BBX 6 12 0 -3
BITMAP
00
00
00
00
78
88
78
48
88
00
00
00
ENDCHAR
STARTCHAR afii10071
ENCODING 1105
SWIDTH 480 0
DWIDTH 6 0
BBX 6 12 0 -3
BITMAP
00
00
50
00
70
88
F8
80
70
00
00
00
ENDCHAR
STARTCHAR afii10099
ENCODING 1106
SWIDTH 480 0
DWIDTH 6 0
BBX 6 12 0 -3
BITMAP
00
40
F0
40
78
44
44
44
44
04
18
00
ENDCHAR
STARTCHAR afii10100
ENCODING 1107
SWIDTH 480 0
DWIDTH 6 0
BBX 6 12 0 -3
BITMAP
00
10
20
00
78
40
40
40
40
00
00
00
ENDCHAR
STARTCHAR afii10101
ENCODING 1108
SWIDTH 480 0
DWIDTH 6 0
BBX 6 12 0 -3
BITMAP
00
00
00
00
70
88
E0
88
70
00
00
00
ENDCHAR
STARTCHAR afii10102
ENCODING 1109
SWIDTH 480 0
DWIDTH 6 0
BBX 6 12 0 -3
BITMAP
00
00
00
00
78
80
70
08
F0
00
00
00
ENDCHAR
STARTCHAR afii10103
ENCODING 1110
SWIDTH 480 0
DWIDTH 6 0
BBX 6 12 0 -3
BITMAP
00
00
20
00
60
20
20
20
70
00
00
00
ENDCHAR
STARTCHAR afii10104
ENCODING 1111
SWIDTH 480 0
DWIDTH 6 0
BBX 6 12 0 -3
BITMAP
00
00
50
00
60
20
20
20
70
00
00
00
ENDCHAR
STARTCHAR afii10105
ENCODING 1112
SWIDTH 480 0
DWIDTH 6 0
BBX 6 12 0 -3
BITMAP
00
00
08
00
38
08
08
08
08
08
08
70
ENDCHAR
STARTCHAR afii10106
ENCODING 1113
SWIDTH 480 0
DWIDTH 6 0
BBX 6 12 0 -3
BITMAP
00
00
00
00
60
A0
B0
A8
B0
00
00
00
ENDCHAR
STARTCHAR afii10107
ENCODING 1114
SWIDTH 480 0
DWIDTH 6 0
BBX 6 12 0 -3
BITMAP
00
00
00
00
A0
A0
F0
A8
B0
00
00
00
ENDCHAR
STARTCHAR afii10108
ENCODING 1115
SWIDTH 480 0
DWIDTH 6 0
BBX 6 12 0 -3
BITMAP
00
40
F0
40
78
44
44
44
44
00
00
00
ENDCHAR
STARTCHAR afii10109
ENCODING 1116
SWIDTH 480 0
DWIDTH 6 0
BBX 6 12 0 -3
BITMAP
00
10
20
00
88
90
E0
90
88
00
00
00
ENDCHAR
STARTCHAR afii10110
ENCODING 1118
SWIDTH 480 0
DWIDTH 6 0
BBX 6 12 0 -3
BITMAP
00
88
70
00
88
88
88
88
78
08
08
70
ENDCHAR
STARTCHAR afii10193
ENCODING 1119
SWIDTH 480 0
DWIDTH 6 0
BBX 6 12 0 -3
BITMAP
00
00
00
00
88
88
88
88
F8
20
20
00
ENDCHAR
STARTCHAR afii10146
ENCODING 1122
SWIDTH 480 0
DWIDTH 6 0
BBX 6 12 0 -3
BITMAP
00
40
E0
40
40
70
48
48
70
00
00
00
ENDCHAR
STARTCHAR afii10194
ENCODING 1123
SWIDTH 480 0
DWIDTH 6 0
BBX 6 12 0 -3
BITMAP
00
00
00
40
E0
40
70
48
70
00
00
00
ENDCHAR
STARTCHAR uni0470
ENCODING 1136
SWIDTH 480 0
DWIDTH 6 0
BBX 6 12 0 -3
BITMAP
00
00
A8
A8
A8
70
20
20
20
00
00
00
ENDCHAR
STARTCHAR uni0471
ENCODING 1137
SWIDTH 480 0
DWIDTH 6 0
BBX 6 12 0 -3
BITMAP
00
00
00
00
A8
A8
70
20
20
00
00
00
ENDCHAR
STARTCHAR afii10147
ENCODING 1138
SWIDTH 480 0
DWIDTH 6 0
BBX 6 12 0 -3
BITMAP
00
00
70
88
88
F8
88
88
70
00
00
00
ENDCHAR
STARTCHAR afii10195
ENCODING 1139
SWIDTH 480 0
DWIDTH 6 0
BBX 6 12 0 -3
BITMAP
00
00
00
00
70
88
F8
88
70
00
00
00
ENDCHAR
STARTCHAR afii10148
ENCODING 1140
SWIDTH 480 0
DWIDTH 6 0
BBX 6 12 0 -3
BITMAP
00
00
80
98
90
50
50
20
20
00
00
00
ENDCHAR
STARTCHAR afii10196
ENCODING 1141
SWIDTH 480 0
DWIDTH 6 0
BBX 6 12 0 -3
BITMAP
00
00
00
00
80
98
50
60
20
00
00
00
ENDCHAR
STARTCHAR uni0476
ENCODING 1142
SWIDTH 480 0
DWIDTH 6 0
BBX 6 12 0 -3
BITMAP
A0
50
80
98
90
50
50
20
20
00
00
00
ENDCHAR
STARTCHAR uni0477
ENCODING 1143
SWIDTH 480 0
DWIDTH 6 0
BBX 6 12 0 -3
BITMAP
00
00
A0
50
80
98
50
60
20
00
00
00
ENDCHAR
STARTCHAR afii10050
ENCODING 1168
SWIDTH 480 0
DWIDTH 6 0
BBX 6 12 0 -3
BITMAP
00
08
78
40
40
40
40
40
40
00
00
00
ENDCHAR
STARTCHAR afii10098
ENCODING 1169
SWIDTH 480 0
DWIDTH 6 0
BBX 6 12 0 -3
BITMAP
00
00
00
08
78
40
40
40
40
00
00
00
ENDCHAR
STARTCHAR afii57664
ENCODING 1488
SWIDTH 480 0
DWIDTH 6 0
BBX 6 12 0 -3
BITMAP
00
00
00
88
48
70
A0
90
C8
00
00
00
ENDCHAR
STARTCHAR afii57665
ENCODING 1489
SWIDTH 480 0
DWIDTH 6 0
BBX 6 12 0 -3
BITMAP
00
00
00
F0
10
10
10
10
F8
00
00
00
ENDCHAR
STARTCHAR afii57666
ENCODING 1490
SWIDTH 480 0
DWIDTH 6 0
BBX 6 12 0 -3
BITMAP
00
00
00
70
10
10
10
28
48
00
00
00
ENDCHAR
STARTCHAR afii57667
ENCODING 1491
SWIDTH 480 0
DWIDTH 6 0
BBX 6 12 0 -3
BITMAP
00
00
00
F8
10
10
10
10
10
00
00
00
ENDCHAR
STARTCHAR afii57668
ENCODING 1492
SWIDTH 480 0
DWIDTH 6 0
BBX 6 12 0 -3
BITMAP
00
00
00
F8
10
90
90
90
90
00
00
00
ENDCHAR
STARTCHAR afii57669
ENCODING 1493
SWIDTH 480 0
DWIDTH 6 0
BBX 6 12 0 -3
BITMAP
00
00
00
70
10
10
10
10
10
00
00
00
ENDCHAR
STARTCHAR afii57670
ENCODING 1494
SWIDTH 480 0
DWIDTH 6 0
BBX 6 12 0 -3
BITMAP
00
00
00
F8
20
10
10
10
10
00
00
00
ENDCHAR
STARTCHAR afii57671
ENCODING 1495
SWIDTH 480 0
DWIDTH 6 0
BBX 6 12 0 -3
BITMAP
00
00
00
F8
48
48
48
48
48
00
00
00
ENDCHAR
STARTCHAR afii57672
ENCODING 1496
SWIDTH 480 0
DWIDTH 6 0
BBX 6 12 0 -3
BITMAP
00
00
00
98
A8
A8
88
88
F8
00
00
00
ENDCHAR
STARTCHAR afii57673
ENCODING 1497
SWIDTH 480 0
DWIDTH 6 0
BBX 6 12 0 -3
BITMAP
00
00
00
30
10
10
00
00
00
00
00
00
ENDCHAR
STARTCHAR afii57674
ENCODING 1498
SWIDTH 480 0
DWIDTH 6 0
BBX 6 12 0 -3
BITMAP
00
00
00
F8
08
08
08
08
08
08
08
00
ENDCHAR
STARTCHAR afii57675
ENCODING 1499
SWIDTH 480 0
DWIDTH 6 0
BBX 6 12 0 -3
BITMAP
00
00
00
F8
08
08
08
08
F0
00
00
00
ENDCHAR
STARTCHAR afii57676
ENCODING 1500
SWIDTH 480 0
DWIDTH 6 0
BBX 6 12 0 -3
BITMAP
00
80
80
F8
08
08
10
20
40
00
00
00
ENDCHAR
STARTCHAR afii57677
ENCODING 1501
SWIDTH 480 0
DWIDTH 6 0
BBX 6 12 0 -3
BITMAP
00
00
00
F8
48
48
48
48
78
00
00
00
ENDCHAR
STARTCHAR afii57678
ENCODING 1502
SWIDTH 480 0
DWIDTH 6 0
BBX 6 12 0 -3
BITMAP
00
00
00
98
A8
48
88
88
B8
00
00
00
ENDCHAR
STARTCHAR afii57679
ENCODING 1503
SWIDTH 480 0
DWIDTH 6 0
BBX 6 12 0 -3
BITMAP
00
00
00
30
10
10
10
10
10
10
10
00
ENDCHAR
STARTCHAR afii57680
ENCODING 1504
SWIDTH 480 0
DWIDTH 6 0
BBX 6 12 0 -3
BITMAP
00
00
00
18
08
08
08
08
F8
00
00
00
ENDCHAR
STARTCHAR afii57681
ENCODING 1505
SWIDTH 480 0
DWIDTH 6 0
BBX 6 12 0 -3
BITMAP
00
00
00
F8
48
48
48
50
60
00
00
00
ENDCHAR
STARTCHAR afii57682
ENCODING 1506
SWIDTH 480 0
DWIDTH 6 0
BBX 6 12 0 -3
BITMAP
00
00
00
D8
48
48
48
50
E0
00
00
00
ENDCHAR
STARTCHAR afii57683
ENCODING 1507
SWIDTH 480 0
DWIDTH 6 0
BBX 6 12 0 -3
BITMAP
00
00
00
F8
48
48
08
08
08
08
08
00
ENDCHAR
STARTCHAR afii57684
ENCODING 1508
SWIDTH 480 0
DWIDTH 6 0
BBX 6 12 0 -3
BITMAP
00
00
00
F8
48
48
08
08
F0
00
00
00
ENDCHAR
STARTCHAR afii57685
ENCODING 1509
SWIDTH 480 0
DWIDTH 6 0
BBX 6 12 0 -3
BITMAP
00
00
00
90
48
50
60
40
40
40
40
00
ENDCHAR
STARTCHAR afii57686
ENCODING 1510
SWIDTH 480 0
DWIDTH 6 0
BBX 6 12 0 -3
BITMAP
00
00
00
90
48
28
10
08
F8
00
00
00
ENDCHAR
STARTCHAR afii57687
ENCODING 1511
SWIDTH 480 0
DWIDTH 6 0
BBX 6 12 0 -3
BITMAP
00
00
00
F8
08
88
88
88
B0
80
80
00
ENDCHAR
STARTCHAR afii57688
ENCODING 1512
SWIDTH 480 0
DWIDTH 6 0
BBX 6 12 0 -3
BITMAP
00
00
00
F0
08
08
08
08
08
00
00
00
ENDCHAR
STARTCHAR afii57689
ENCODING 1513
SWIDTH 480 0
DWIDTH 6 0
BBX 6 12 0 -3
BITMAP
00
00
00
A8
A8
A8
E8
88
F0
00
00
00
ENDCHAR
STARTCHAR afii57690
ENCODING 1514
SWIDTH 480 0
DWIDTH 6 0
BBX 6 12 0 -3
BITMAP
00
00
00
F8
48
48
48
48
C8
00
00
00
ENDCHAR
STARTCHAR uni1E02
ENCODING 7682
SWIDTH 480 0
DWIDTH 6 0
BBX 6 12 0 -3
BITMAP
00
20
00
F0
88
F0
88
88
F0
00
00
00
ENDCHAR
STARTCHAR uni1E03
ENCODING 7683
SWIDTH 480 0
DWIDTH 6 0
BBX 6 12 0 -3
BITMAP
00
20
80
80
F0
88
88
88
F0
00
00
00
ENDCHAR
STARTCHAR uni1E08
ENCODING 7688
SWIDTH 480 0
DWIDTH 6 0
BBX 6 12 0 -3
BITMAP
00
00
00
00
00
00
00
00
00
00
00
00
ENDCHAR
STARTCHAR uni1E09
ENCODING 7689
SWIDTH 480 0
DWIDTH 6 0
BBX 6 12 0 -3
BITMAP
00
00
00
00
00
00
00
00
00
00
00
00
ENDCHAR
STARTCHAR uni1E0A
ENCODING 7690
SWIDTH 480 0
DWIDTH 6 0
BBX 6 12 0 -3
BITMAP
00
20
00
E0
90
88
88
90
E0
00
00
00
ENDCHAR
STARTCHAR uni1E0B
ENCODING 7691
SWIDTH 480 0
DWIDTH 6 0
BBX 6 12 0 -3
BITMAP
00
20
08
08
78
88
88
88
78
00
00
00
ENDCHAR
STARTCHAR uni1E1E
ENCODING 7710
SWIDTH 480 0
DWIDTH 6 0
BBX 6 12 0 -3
BITMAP
00
20
00
F8
80
F0
80
80
80
00
00
00
ENDCHAR
STARTCHAR uni1E1F
ENCODING 7711
SWIDTH 480 0
DWIDTH 6 0
BBX 6 12 0 -3
BITMAP
00
20
00
38
40
40
F0
40
40
00
00
00
ENDCHAR
STARTCHAR uni1E40
ENCODING 7744
SWIDTH 480 0
DWIDTH 6 0
BBX 6 12 0 -3
BITMAP
00
20
00
88
D8
A8
88
88
88
00
00
00
ENDCHAR
STARTCHAR uni1E41
ENCODING 7745
SWIDTH 480 0
DWIDTH 6 0
BBX 6 12 0 -3
BITMAP
00
00
20
00
D0
A8
A8
A8
88
00
00
00
ENDCHAR
STARTCHAR uni1E56
ENCODING 7766
SWIDTH 480 0
DWIDTH 6 0
BBX 6 12 0 -3
BITMAP
00
20
00
F0
88
88
F0
80
80
00
00
00
ENDCHAR
STARTCHAR uni1E57
ENCODING 7767
SWIDTH 480 0
DWIDTH 6 0
BBX 6 12 0 -3
BITMAP
00
00
20
00
F0
88
88
88
F0
80
80
80
ENDCHAR
STARTCHAR uni1E60
ENCODING 7776
SWIDTH 480 0
DWIDTH 6 0
BBX 6 12 0 -3
BITMAP
00
20
00
70
80
70
08
88
70
00
00
00
ENDCHAR
STARTCHAR uni1E61
ENCODING 7777
SWIDTH 480 0
DWIDTH 6 0
BBX 6 12 0 -3
BITMAP
00
00
20
00
78
80
70
08
F0
00
00
00
ENDCHAR
STARTCHAR uni1E6A
ENCODING 7786
SWIDTH 480 0
DWIDTH 6 0
BBX 6 12 0 -3
BITMAP
00
20
00
F8
20
20
20
20
20
00
00
00
ENDCHAR
STARTCHAR uni1E6B
ENCODING 7787
SWIDTH 480 0
DWIDTH 6 0
BBX 6 12 0 -3
BITMAP
00
20
00
20
20
F8
20
20
18
00
00
00
ENDCHAR
STARTCHAR Wgrave
ENCODING 7808
SWIDTH 480 0
DWIDTH 6 0
BBX 6 12 0 -3
BITMAP
40
20
00
88
88
A8
A8
D8
88
00
00
00
ENDCHAR
STARTCHAR wgrave
ENCODING 7809
SWIDTH 480 0
DWIDTH 6 0
BBX 6 12 0 -3
BITMAP
00
40
20
00
88
A8
A8
A8
50
00
00
00
ENDCHAR
STARTCHAR Wacute
ENCODING 7810
SWIDTH 480 0
DWIDTH 6 0
BBX 6 12 0 -3
BITMAP
10
20
00
88
88
A8
A8
D8
88
00
00
00
ENDCHAR
STARTCHAR wacute
ENCODING 7811
SWIDTH 480 0
DWIDTH 6 0
BBX 6 12 0 -3
BITMAP
00
10
20
00
88
A8
A8
A8
50
00
00
00
ENDCHAR
STARTCHAR Wdieresis
ENCODING 7812
SWIDTH 480 0
DWIDTH 6 0
BBX 6 12 0 -3
BITMAP
00
50
00
88
88
A8
A8
D8
88
00
00
00
ENDCHAR
STARTCHAR wdieresis
ENCODING 7813
SWIDTH 480 0
DWIDTH 6 0
BBX 6 12 0 -3
BITMAP
00
00
50
00
88
A8
A8
A8
50
00
00
00
ENDCHAR
STARTCHAR uni1E86
ENCODING 7814
SWIDTH 480 0
DWIDTH 6 0
BBX 6 12 0 -3
BITMAP
00
20
00
88
88
A8
A8
D8
88
00
00
00
ENDCHAR
STARTCHAR uni1E87
ENCODING 7815
SWIDTH 480 0
DWIDTH 6 0
BBX 6 12 0 -3
BITMAP
00
00
20
00
88
A8
A8
A8
50
00
00
00
ENDCHAR
STARTCHAR Ygrave
ENCODING 7922
SWIDTH 480 0
DWIDTH 6 0
BBX 6 12 0 -3
BITMAP
40
20
00
88
50
20
20
20
20
00
00
00
ENDCHAR
STARTCHAR ygrave
ENCODING 7923
SWIDTH 480 0
DWIDTH 6 0
BBX 6 12 0 -3
BITMAP
00
40
20
00
88
88
88
88
78
08
08
70
ENDCHAR
STARTCHAR uni2000
ENCODING 8192
SWIDTH 480 0
DWIDTH 6 0
BBX 6 12 0 -3
BITMAP
00
00
00
00
00
00
00
00
00
00
00
00
ENDCHAR
STARTCHAR uni2001
ENCODING 8193
SWIDTH 480 0
DWIDTH 6 0
BBX 6 12 0 -3
BITMAP
00
00
00
00
00
00
00
00
00
00
00
00
ENDCHAR
STARTCHAR uni2002
ENCODING 8194
SWIDTH 480 0
DWIDTH 6 0
BBX 6 12 0 -3
BITMAP
00
00
00
00
00
00
00
00
00
00
00
00
ENDCHAR
STARTCHAR uni2003
ENCODING 8195
SWIDTH 480 0
DWIDTH 6 0
BBX 6 12 0 -3
BITMAP
00
00
00
00
00
00
00
00
00
00
00
00
ENDCHAR
STARTCHAR uni2004
ENCODING 8196
SWIDTH 480 0
DWIDTH 6 0
BBX 6 12 0 -3
BITMAP
00
00
00
00
00
00
00
00
00
00
00
00
ENDCHAR
STARTCHAR uni2005
ENCODING 8197
SWIDTH 480 0
DWIDTH 6 0
BBX 6 12 0 -3
BITMAP
00
00
00
00
00
00
00
00
00
00
00
00
ENDCHAR
STARTCHAR uni2006
ENCODING 8198
SWIDTH 480 0
DWIDTH 6 0
BBX 6 12 0 -3
BITMAP
00
00
00
00
00
00
00
00
00
00
00
00
ENDCHAR
STARTCHAR uni2007
ENCODING 8199
SWIDTH 480 0
DWIDTH 6 0
BBX 6 12 0 -3
BITMAP
00
00
00
00
00
00
00
00
00
00
00
00
ENDCHAR
STARTCHAR uni2008
ENCODING 8200
SWIDTH 480 0
DWIDTH 6 0
BBX 6 12 0 -3
BITMAP
00
00
00
00
00
00
00
00
00
00
00
00
ENDCHAR
STARTCHAR uni2009
ENCODING 8201
SWIDTH 480 0
DWIDTH 6 0
BBX 6 12 0 -3
BITMAP
00
00
00
00
00
00
00
00
00
00
00
00
ENDCHAR
STARTCHAR uni200A
ENCODING 8202
SWIDTH 480 0
DWIDTH 6 0
BBX 6 12 0 -3
BITMAP
00
00
00
00
00
00
00
00
00
00
00
00
ENDCHAR
STARTCHAR uni2010
ENCODING 8208
SWIDTH 480 0
DWIDTH 6 0
BBX 6 12 0 -3
BITMAP
00
00
00
00
00
70
00
00
00
00
00
00
ENDCHAR
STARTCHAR uni2011
ENCODING 8209
SWIDTH 480 0
DWIDTH 6 0
BBX 6 12 0 -3
BITMAP
00
00
00
00
00
70
00
00
00
00
00
00
ENDCHAR
STARTCHAR figuredash
ENCODING 8210
SWIDTH 480 0
DWIDTH 6 0
BBX 6 12 0 -3
BITMAP
00
00
00
00
00
78
00
00
00
00
00
00
ENDCHAR
STARTCHAR endash
ENCODING 8211
SWIDTH 480 0
DWIDTH 6 0
BBX 6 12 0 -3
BITMAP
00
00
00
00
00
78
00
00
00
00
00
00
ENDCHAR
STARTCHAR emdash
ENCODING 8212
SWIDTH 480 0
DWIDTH 6 0
BBX 6 12 0 -3
BITMAP
00
00
00
00
00
F8
00
00
00
00
00
00
ENDCHAR
STARTCHAR afii00208
ENCODING 8213
SWIDTH 480 0
DWIDTH 6 0
BBX 6 12 0 -3
BITMAP
00
00
00
00
00
FC
00
00
00
00
00
00
ENDCHAR
STARTCHAR uni2016
ENCODING 8214
SWIDTH 480 0
DWIDTH 6 0
BBX 6 12 0 -3
BITMAP
00
00
50
50
50
50
50
50
50
00
00
00
ENDCHAR
STARTCHAR underscoredbl
ENCODING 8215
SWIDTH 480 0
DWIDTH 6 0
BBX 6 12 0 -3
BITMAP
00
00
00
00
00
00
00
00
00
F8
00
F8
ENDCHAR
STARTCHAR quoteleft
ENCODING 8216
SWIDTH 480 0
DWIDTH 6 0
BBX 6 12 0 -3
BITMAP
00
10
20
30
00
00
00
00
00
00
00
00
ENDCHAR
STARTCHAR quoteright
ENCODING 8217
SWIDTH 480 0
DWIDTH 6 0
BBX 6 12 0 -3
BITMAP
00
30
10
20
00
00
00
00
00
00
00
00
ENDCHAR
STARTCHAR quotesinglbase
ENCODING 8218
SWIDTH 480 0
DWIDTH 6 0
BBX 6 12 0 -3
BITMAP
00
00
00
00
00
00
00
00
30
10
20
00
ENDCHAR
STARTCHAR quotereversed
ENCODING 8219
SWIDTH 480 0
DWIDTH 6 0
BBX 6 12 0 -3
BITMAP
00
30
20
10
00
00
00
00
00
00
00
00
ENDCHAR
STARTCHAR quotedblleft
ENCODING 8220
SWIDTH 480 0
DWIDTH 6 0
BBX 6 12 0 -3
BITMAP
00
48
90
D8
00
00
00
00
00
00
00
00
ENDCHAR
STARTCHAR quotedblright
ENCODING 8221
SWIDTH 480 0
DWIDTH 6 0
BBX 6 12 0 -3
BITMAP
00
D8
48
90
00
00
00
00
00
00
00
00
ENDCHAR
STARTCHAR quotedblbase
ENCODING 8222
SWIDTH 480 0
DWIDTH 6 0
BBX 6 12 0 -3
BITMAP
00
00
00
00
00
00
00
00
D8
48
90
00
ENDCHAR
STARTCHAR uni201F
ENCODING 8223
SWIDTH 480 0
DWIDTH 6 0
BBX 6 12 0 -3
BITMAP
00
D8
90
48
00
00
00
00
00
00
00
00
ENDCHAR
STARTCHAR dagger
ENCODING 8224
SWIDTH 480 0
DWIDTH 6 0
BBX 6 12 0 -3
BITMAP
00
00
20
20
70
20
20
20
20
00
00
00
ENDCHAR
STARTCHAR daggerdbl
ENCODING 8225
SWIDTH 480 0
DWIDTH 6 0
BBX 6 12 0 -3
BITMAP
00
00
20
20
70
20
70
20
20
00
00
00
ENDCHAR
STARTCHAR bullet
ENCODING 8226
SWIDTH 480 0
DWIDTH 6 0
BBX 6 12 0 -3
BITMAP
00
00
00
30
78
78
78
30
00
00
00
00
ENDCHAR
STARTCHAR uni2023
ENCODING 8227
SWIDTH 480 0
DWIDTH 6 0
BBX 6 12 0 -3
BITMAP
00
00
40
60
70
78
70
60
40
00
00
00
ENDCHAR
STARTCHAR onedotenleader
ENCODING 8228
SWIDTH 480 0
DWIDTH 6 0
BBX 6 12 0 -3
BITMAP
00
00
00
00
00
00
00
00
20
00
00
00
ENDCHAR
STARTCHAR twodotenleader
ENCODING 8229
SWIDTH 480 0
DWIDTH 6 0
BBX 6 12 0 -3
BITMAP
00
00
00
00
00
00
00
00
50
00
00
00
ENDCHAR
STARTCHAR ellipsis
ENCODING 8230
SWIDTH 480 0
DWIDTH 6 0
BBX 6 12 0 -3
BITMAP
00
00
00
00
00
00
00
00
A8
00
00
00
ENDCHAR
STARTCHAR perthousand
ENCODING 8240
SWIDTH 480 0
DWIDTH 6 0
BBX 6 12 0 -3
BITMAP
00
00
C0
D0
20
58
98
60
60
00
00
00
ENDCHAR
STARTCHAR minute
ENCODING 8242
SWIDTH 480 0
DWIDTH 6 0
BBX 6 12 0 -3
BITMAP
00
10
10
20
00
00
00
00
00
00
00
00
ENDCHAR
STARTCHAR second
ENCODING 8243
SWIDTH 480 0
DWIDTH 6 0
BBX 6 12 0 -3
BITMAP
00
48
48
90
00
00
00
00
00
00
00
00
ENDCHAR
STARTCHAR uni2034
ENCODING 8244
SWIDTH 480 0
DWIDTH 6 0
BBX 6 12 0 -3
BITMAP
00
54
54
A8
00
00
00
00
00
00
00
00
ENDCHAR
STARTCHAR uni2035
ENCODING 8245
SWIDTH 480 0
DWIDTH 6 0
BBX 6 12 0 -3
BITMAP
00
20
20
10
00
00
00
00
00
00
00
00
ENDCHAR
STARTCHAR uni2036
ENCODING 8246
SWIDTH 480 0
DWIDTH 6 0
BBX 6 12 0 -3
BITMAP
00
90
90
48
00
00
00
00
00
00
00
00
ENDCHAR
STARTCHAR uni2037
ENCODING 8247
SWIDTH 480 0
DWIDTH 6 0
BBX 6 12 0 -3
BITMAP
00
A8
A8
54
00
00
00
00
00
00
00
00
ENDCHAR
STARTCHAR guilsinglleft
ENCODING 8249
SWIDTH 480 0
DWIDTH 6 0
BBX 6 12 0 -3
BITMAP
00
00
00
00
10
20
40
20
10
00
00
00
ENDCHAR
STARTCHAR guilsinglright
ENCODING 8250
SWIDTH 480 0
DWIDTH 6 0
BBX 6 12 0 -3
BITMAP
00
00
00
00
40
20
10
20
40
00
00
00
ENDCHAR
STARTCHAR exclamdbl
ENCODING 8252
SWIDTH 480 0
DWIDTH 6 0
BBX 6 12 0 -3
BITMAP
00
50
50
50
50
50
50
00
50
00
00
00
ENDCHAR
STARTCHAR uni203E
ENCODING 8254
SWIDTH 480 0
DWIDTH 6 0
BBX 6 12 0 -3
BITMAP
F8
00
00
00
00
00
00
00
00
00
00
00
ENDCHAR
STARTCHAR fraction
ENCODING 8260
SWIDTH 480 0
DWIDTH 6 0
BBX 6 12 0 -3
BITMAP
08
08
10
10
20
20
40
40
80
80
00
00
ENDCHAR
STARTCHAR zerosuperior
ENCODING 8304
SWIDTH 480 0
DWIDTH 6 0
BBX 6 12 0 -3
BITMAP
20
50
50
50
20
00
00
00
00
00
00
00
ENDCHAR
STARTCHAR uni2071
ENCODING 8305
SWIDTH 480 0
DWIDTH 6 0
BBX 6 12 0 -3
BITMAP
20
00
60
20
70
00
00
00
00
00
00
00
ENDCHAR
STARTCHAR foursuperior
ENCODING 8308
SWIDTH 480 0
DWIDTH 6 0
BBX 6 12 0 -3
BITMAP
40
40
60
70
20
00
00
00
00
00
00
00
ENDCHAR
STARTCHAR fivesuperior
ENCODING 8309
SWIDTH 480 0
DWIDTH 6 0
BBX 6 12 0 -3
BITMAP
70
40
60
10
60
00
00
00
00
00
00
00
ENDCHAR
STARTCHAR sixsuperior
ENCODING 8310
SWIDTH 480 0
DWIDTH 6 0
BBX 6 12 0 -3
BITMAP
30
40
60
50
20
00
00
00
00
00
00
00
ENDCHAR
STARTCHAR sevensuperior
ENCODING 8311
SWIDTH 480 0
DWIDTH 6 0
BBX 6 12 0 -3
BITMAP
70
10
20
20
20
00
00
00
00
00
00
00
ENDCHAR
STARTCHAR eightsuperior
ENCODING 8312
SWIDTH 480 0
DWIDTH 6 0
BBX 6 12 0 -3
BITMAP
20
50
20
50
20
00
00
00
00
00
00
00
ENDCHAR
STARTCHAR ninesuperior
ENCODING 8313
SWIDTH 480 0
DWIDTH 6 0
BBX 6 12 0 -3
BITMAP
20
50
30
10
60
00
00
00
00
00
00
00
ENDCHAR
STARTCHAR uni207A
ENCODING 8314
SWIDTH 480 0
DWIDTH 6 0
BBX 6 12 0 -3
BITMAP
00
20
70
20
00
00
00
00
00
00
00
00
ENDCHAR
STARTCHAR uni207B
ENCODING 8315
SWIDTH 480 0
DWIDTH 6 0
BBX 6 12 0 -3
BITMAP
00
00
70
00
00
00
00
00
00
00
00
00
ENDCHAR
STARTCHAR uni207C
ENCODING 8316
SWIDTH 480 0
DWIDTH 6 0
BBX 6 12 0 -3
BITMAP
00
70
00
70
00
00
00
00
00
00
00
00
ENDCHAR
STARTCHAR parenleftsuperior
ENCODING 8317
SWIDTH 480 0
DWIDTH 6 0
BBX 6 12 0 -3
BITMAP
20
40
40
40
20
00
00
00
00
00
00
00
ENDCHAR
STARTCHAR parenrightsuperior
ENCODING 8318
SWIDTH 480 0
DWIDTH 6 0
BBX 6 12 0 -3
BITMAP
20
10
10
10
20
00
00
00
00
00
00
00
ENDCHAR
STARTCHAR nsuperior
ENCODING 8319
SWIDTH 480 0
DWIDTH 6 0
BBX 6 12 0 -3
BITMAP
00
60
50
50
50
00
00
00
00
00
00
00
ENDCHAR
STARTCHAR zeroinferior
ENCODING 8320
SWIDTH 480 0
DWIDTH 6 0
BBX 6 12 0 -3
BITMAP
00
00
00
00
00
00
20
50
50
50
20
00
ENDCHAR
STARTCHAR oneinferior
ENCODING 8321
SWIDTH 480 0
DWIDTH 6 0
BBX 6 12 0 -3
BITMAP
00
00
00
00
00
00
20
60
20
20
20
00
ENDCHAR
STARTCHAR twoinferior
ENCODING 8322
SWIDTH 480 0
DWIDTH 6 0
BBX 6 12 0 -3
BITMAP
00
00
00
00
00
00
20
50
10
20
70
00
ENDCHAR
STARTCHAR threeinferior
ENCODING 8323
SWIDTH 480 0
DWIDTH 6 0
BBX 6 12 0 -3
BITMAP
00
00
00
00
00
00
20
50
20
10
60
00
ENDCHAR
STARTCHAR fourinferior
ENCODING 8324
SWIDTH 480 0
DWIDTH 6 0
BBX 6 12 0 -3
BITMAP
00
00
00
00
00
00
40
40
60
70
20
00
ENDCHAR
STARTCHAR fiveinferior
ENCODING 8325
SWIDTH 480 0
DWIDTH 6 0
BBX 6 12 0 -3
BITMAP
00
00
00
00
00
00
70
40
60
10
60
00
ENDCHAR
STARTCHAR sixinferior
ENCODING 8326
SWIDTH 480 0
DWIDTH 6 0
BBX 6 12 0 -3
BITMAP
00
00
00
00
00
00
30
40
60
50
20
00
ENDCHAR
STARTCHAR seveninferior
ENCODING 8327
SWIDTH 480 0
DWIDTH 6 0
BBX 6 12 0 -3
BITMAP
00
00
00
00
00
00
70
10
20
20
20
00
ENDCHAR
STARTCHAR eightinferior
ENCODING 8328
SWIDTH 480 0
DWIDTH 6 0
BBX 6 12 0 -3
BITMAP
00
00
00
00
00
00
20
50
20
50
20
00
ENDCHAR
STARTCHAR nineinferior
ENCODING 8329
SWIDTH 480 0
DWIDTH 6 0
BBX 6 12 0 -3
BITMAP
00
00
00
00
00
00
20
50
30
10
60
00
ENDCHAR
STARTCHAR uni208A
ENCODING 8330
SWIDTH 480 0
DWIDTH 6 0
BBX 6 12 0 -3
BITMAP
00
00
00
00
00
00
00
20
70
20
00
00
ENDCHAR
STARTCHAR uni208B
ENCODING 8331
SWIDTH 480 0
DWIDTH 6 0
BBX 6 12 0 -3
BITMAP
00
00
00
00
00
00
00
00
70
00
00
00
ENDCHAR
STARTCHAR uni208C
ENCODING 8332
SWIDTH 480 0
DWIDTH 6 0
BBX 6 12 0 -3
BITMAP
00
00
00
00
00
00
00
70
00
70
00
00
ENDCHAR
STARTCHAR parenleftinferior
ENCODING 8333
SWIDTH 480 0
DWIDTH 6 0
BBX 6 12 0 -3
BITMAP
00
00
00
00
00
00
20
40
40
40
20
00
ENDCHAR
STARTCHAR parenrightinferior
ENCODING 8334
SWIDTH 480 0
DWIDTH 6 0
BBX 6 12 0 -3
BITMAP
00
00
00
00
00
00
20
10
10
10
20
00
ENDCHAR
STARTCHAR franc
ENCODING 8355
SWIDTH 480 0
DWIDTH 6 0
BBX 6 12 0 -3
BITMAP
00
00
F8
80
D8
A0
A0
A0
A0
00
00
00
ENDCHAR
STARTCHAR lira
ENCODING 8356
SWIDTH 480 0
DWIDTH 6 0
BBX 6 12 0 -3
BITMAP
00
30
48
E0
40
E0
40
48
B0
00
00
00
ENDCHAR
STARTCHAR peseta
ENCODING 8359
SWIDTH 480 0
DWIDTH 6 0
BBX 6 12 0 -3
BITMAP
00
00
70
48
FC
48
70
40
40
00
00
00
ENDCHAR
STARTCHAR Euro
ENCODING 8364
SWIDTH 480 0
DWIDTH 6 0
BBX 6 12 0 -3
BITMAP
00
00
30
48
E0
40
E0
48
30
00
00
00
ENDCHAR
STARTCHAR uni20AF
ENCODING 8367
SWIDTH 480 0
DWIDTH 6 0
BBX 6 12 0 -3
BITMAP
00
40
E0
50
48
48
48
E8
D0
00
00
00
ENDCHAR
STARTCHAR uni20D0
ENCODING 8400
SWIDTH 480 0
DWIDTH 6 0
BBX 6 12 0 -3
BITMAP
40
F8
00
00
00
00
00
00
00
00
00
00
ENDCHAR
STARTCHAR uni20D1
ENCODING 8401
SWIDTH 480 0
DWIDTH 6 0
BBX 6 12 0 -3
BITMAP
10
F8
00
00
00
00
00
00
00
00
00
00
ENDCHAR
STARTCHAR uni20D2
ENCODING 8402
SWIDTH 480 0
DWIDTH 6 0
BBX 6 12 0 -3
BITMAP
00
20
20
20
20
20
20
20
20
20
00
00
ENDCHAR
STARTCHAR uni20D3
ENCODING 8403
SWIDTH 480 0
DWIDTH 6 0
BBX 6 12 0 -3
BITMAP
00
00
00
20
20
20
20
20
20
20
00
00
ENDCHAR
STARTCHAR uni20D4
ENCODING 8404
SWIDTH 480 0
DWIDTH 6 0
BBX 6 12 0 -3
BITMAP
B0
C8
E0
00
00
00
00
00
00
00
00
00
ENDCHAR
STARTCHAR uni20D5
ENCODING 8405
SWIDTH 480 0
DWIDTH 6 0
BBX 6 12 0 -3
BITMAP
68
98
38
00
00
00
00
00
00
00
00
00
ENDCHAR
STARTCHAR uni20D6
ENCODING 8406
SWIDTH 480 0
DWIDTH 6 0
BBX 6 12 0 -3
BITMAP
40
F8
40
00
00
00
00
00
00
00
00
00
ENDCHAR
STARTCHAR uni20D7
ENCODING 8407
SWIDTH 480 0
DWIDTH 6 0
BBX 6 12 0 -3
BITMAP
10
F8
10
00
00
00
00
00
00
00
00
00
ENDCHAR
STARTCHAR uni2102
ENCODING 8450
SWIDTH 480 0
DWIDTH 6 0
BBX 6 12 0 -3
BITMAP
00
00
70
A8
A0
A0
A0
A8
70
00
00
00
ENDCHAR
STARTCHAR afii61248
ENCODING 8453
SWIDTH 480 0
DWIDTH 6 0
BBX 6 12 0 -3
BITMAP
60
80
80
60
00
30
48
48
30
00
00
00
ENDCHAR
STARTCHAR afii61289
ENCODING 8467
SWIDTH 480 0
DWIDTH 6 0
BBX 6 12 0 -3
BITMAP
00
10
28
28
28
30
30
20
58
00
00
00
ENDCHAR
STARTCHAR uni2115
ENCODING 8469
SWIDTH 480 0
DWIDTH 6 0
BBX 6 12 0 -3
BITMAP
00
00
88
C8
C8
E8
D8
D8
C8
00
00
00
ENDCHAR
STARTCHAR afii61352
ENCODING 8470
SWIDTH 480 0
DWIDTH 6 0
BBX 6 12 0 -3
BITMAP
00
00
A0
A0
E0
E8
F4
B4
A8
00
00
00
ENDCHAR
STARTCHAR uni211A
ENCODING 8474
SWIDTH 480 0
DWIDTH 6 0
BBX 6 12 0 -3
BITMAP
00
00
70
A8
A8
A8
A8
A8
70
18
00
00
ENDCHAR
STARTCHAR uni211D
ENCODING 8477
SWIDTH 480 0
DWIDTH 6 0
BBX 6 12 0 -3
BITMAP
00
00
F0
A8
A8
B0
B0
A8
A8
00
00
00
ENDCHAR
STARTCHAR trademark
ENCODING 8482
SWIDTH 480 0
DWIDTH 6 0
BBX 6 12 0 -3
BITMAP
00
F4
5C
54
54
00
00
00
00
00
00
00
ENDCHAR
STARTCHAR uni2124
ENCODING 8484
SWIDTH 480 0
DWIDTH 6 0
BBX 6 12 0 -3
BITMAP
00
00
F8
28
50
50
A0
A0
F8
00
00
00
ENDCHAR
STARTCHAR Omega
ENCODING 8486
SWIDTH 480 0
DWIDTH 6 0
BBX 6 12 0 -3
BITMAP
00
00
70
88
88
88
50
50
D8
00
00
00
ENDCHAR
STARTCHAR uni2127
ENCODING 8487
SWIDTH 480 0
DWIDTH 6 0
BBX 6 12 0 -3
BITMAP
00
00
D8
50
50
88
88
88
70
00
00
00
ENDCHAR
STARTCHAR estimated
ENCODING 8494
SWIDTH 480 0
DWIDTH 6 0
BBX 6 12 0 -3
BITMAP
00
00
00
00
70
D8
F8
C0
70
00
00
00
ENDCHAR
STARTCHAR oneeighth
ENCODING 8539
SWIDTH 480 0
DWIDTH 6 0
BBX 6 12 0 -3
BITMAP
00
80
80
80
90
A8
10
28
10
00
00
00
ENDCHAR
STARTCHAR threeeighths
ENCODING 8540
SWIDTH 480 0
DWIDTH 6 0
BBX 6 12 0 -3
BITMAP
00
40
A0
40
28
D4
08
14
08
00
00
00
ENDCHAR
STARTCHAR fiveeighths
ENCODING 8541
SWIDTH 480 0
DWIDTH 6 0
BBX 6 12 0 -3
BITMAP
00
E0
80
C0
28
D4
08
14
08
00
00
00
ENDCHAR
STARTCHAR seveneighths
ENCODING 8542
SWIDTH 480 0
DWIDTH 6 0
BBX 6 12 0 -3
BITMAP
00
E0
20
40
48
54
08
14
08
00
00
00
ENDCHAR
STARTCHAR arrowleft
ENCODING 8592
SWIDTH 480 0
DWIDTH 6 0
BBX 6 12 0 -3
BITMAP
00
00
00
20
40
F8
40
20
00
00
00
00
ENDCHAR
STARTCHAR arrowup
ENCODING 8593
SWIDTH 480 0
DWIDTH 6 0
BBX 6 12 0 -3
BITMAP
00
00
20
70
A8
20
20
20
20
00
00
00
ENDCHAR
STARTCHAR arrowright
ENCODING 8594
SWIDTH 480 0
DWIDTH 6 0
BBX 6 12 0 -3
BITMAP
00
00
00
20
10
F8
10
20
00
00
00
00
ENDCHAR
STARTCHAR arrowdown
ENCODING 8595
SWIDTH 480 0
DWIDTH 6 0
BBX 6 12 0 -3
BITMAP
00
00
20
20
20
20
A8
70
20
00
00
00
ENDCHAR
STARTCHAR arrowboth
ENCODING 8596
SWIDTH 480 0
DWIDTH 6 0
BBX 6 12 0 -3
BITMAP
00
00
00
00
48
FC
48
00
00
00
00
00
ENDCHAR
STARTCHAR arrowupdn
ENCODING 8597
SWIDTH 480 0
DWIDTH 6 0
BBX 6 12 0 -3
BITMAP
20
70
A8
20
20
20
A8
70
20
00
00
00
ENDCHAR
STARTCHAR uni21A4
ENCODING 8612
SWIDTH 480 0
DWIDTH 6 0
BBX 6 12 0 -3
BITMAP
00
00
00
24
44
FC
44
24
00
00
00
00
ENDCHAR
STARTCHAR uni21A5
ENCODING 8613
SWIDTH 480 0
DWIDTH 6 0
BBX 6 12 0 -3
BITMAP
00
00
20
70
A8
20
20
20
F8
00
00
00
ENDCHAR
STARTCHAR uni21A6
ENCODING 8614
SWIDTH 480 0
DWIDTH 6 0
BBX 6 12 0 -3
BITMAP
00
00
00
90
88
FC
88
90
00
00
00
00
ENDCHAR
STARTCHAR uni21A7
ENCODING 8615
SWIDTH 480 0
DWIDTH 6 0
BBX 6 12 0 -3
BITMAP
00
00
F8
20
20
20
A8
70
20
00
00
00
ENDCHAR
STARTCHAR arrowupdnbse
ENCODING 8616
SWIDTH 480 0
DWIDTH 6 0
BBX 6 12 0 -3
BITMAP
00
20
70
A8
20
A8
70
20
F8
00
00
00
ENDCHAR
STARTCHAR uni21C4
ENCODING 8644
SWIDTH 480 0
DWIDTH 6 0
BBX 6 12 0 -3
BITMAP
00
00
20
10
F8
10
20
40
F8
40
20
00
ENDCHAR
STARTCHAR uni21C6
ENCODING 8646
SWIDTH 480 0
DWIDTH 6 0
BBX 6 12 0 -3
BITMAP
00
00
20
40
F8
40
20
10
F8
10
20
00
ENDCHAR
STARTCHAR uni21CB
ENCODING 8651
SWIDTH 480 0
DWIDTH 6 0
BBX 6 12 0 -3
BITMAP
00
00
00
00
20
40
F8
00
F8
10
20
00
ENDCHAR
STARTCHAR uni21CC
ENCODING 8652
SWIDTH 480 0
DWIDTH 6 0
BBX 6 12 0 -3
BITMAP
00
00
00
00
20
10
F8
00
F8
40
20
00
ENDCHAR
STARTCHAR arrowdblleft
ENCODING 8656
SWIDTH 480 0
DWIDTH 6 0
BBX 6 12 0 -3
BITMAP
00
00
10
20
7C
C0
7C
20
10
00
00
00
ENDCHAR
STARTCHAR arrowdblup
ENCODING 8657
SWIDTH 480 0
DWIDTH 6 0
BBX 6 12 0 -3
BITMAP
00
00
20
50
D8
50
50
50
50
00
00
00
ENDCHAR
STARTCHAR arrowdblright
ENCODING 8658
SWIDTH 480 0
DWIDTH 6 0
BBX 6 12 0 -3
BITMAP
00
00
20
10
F8
0C
F8
10
20
00
00
00
ENDCHAR
STARTCHAR arrowdbldown
ENCODING 8659
SWIDTH 480 0
DWIDTH 6 0
BBX 6 12 0 -3
BITMAP
00
00
50
50
50
50
D8
50
20
00
00
00
ENDCHAR
STARTCHAR arrowdblboth
ENCODING 8660
SWIDTH 480 0
DWIDTH 6 0
BBX 6 12 0 -3
BITMAP
00
00
00
48
FC
84
FC
48
00
00
00
00
ENDCHAR
STARTCHAR uni21D5
ENCODING 8661
SWIDTH 480 0
DWIDTH 6 0
BBX 6 12 0 -3
BITMAP
00
20
50
D8
50
50
50
50
D8
50
20
00
ENDCHAR
STARTCHAR universal
ENCODING 8704
SWIDTH 480 0
DWIDTH 6 0
BBX 6 12 0 -3
BITMAP
00
00
88
88
F8
88
50
50
20
00
00
00
ENDCHAR
STARTCHAR uni2201
ENCODING 8705
SWIDTH 480 0
DWIDTH 6 0
BBX 6 12 0 -3
BITMAP
00
00
20
50
40
40
40
50
20
00
00
00
ENDCHAR
STARTCHAR partialdiff
ENCODING 8706
SWIDTH 480 0
DWIDTH 6 0
BBX 6 12 0 -3
BITMAP
00
00
30
48
08
38
48
48
30
00
00
00
ENDCHAR
STARTCHAR existential
ENCODING 8707
SWIDTH 480 0
DWIDTH 6 0
BBX 6 12 0 -3
BITMAP
00
00
F8
08
08
78
08
08
F8
00
00
00
ENDCHAR
STARTCHAR uni2204
ENCODING 8708
SWIDTH 480 0
DWIDTH 6 0
BBX 6 12 0 -3
BITMAP
10
10
F8
28
28
78
28
28
F8
40
40
00
ENDCHAR
STARTCHAR emptyset
ENCODING 8709
SWIDTH 480 0
DWIDTH 6 0
BBX 6 12 0 -3
BITMAP
00
00
00
34
48
94
A4
48
B0
00
00
00
ENDCHAR
STARTCHAR Delta
ENCODING 8710
SWIDTH 480 0
DWIDTH 6 0
BBX 6 12 0 -3
BITMAP
00
20
20
50
50
50
88
88
F8
00
00
00
ENDCHAR
STARTCHAR gradient
ENCODING 8711
SWIDTH 480 0
DWIDTH 6 0
BBX 6 12 0 -3
BITMAP
00
F8
88
88
50
50
50
20
20
00
00
00
ENDCHAR
STARTCHAR element
ENCODING 8712
SWIDTH 480 0
DWIDTH 6 0
BBX 6 12 0 -3
BITMAP
00
00
00
78
80
F0
80
78
00
00
00
00
ENDCHAR
STARTCHAR notelement
ENCODING 8713
SWIDTH 480 0
DWIDTH 6 0
BBX 6 12 0 -3
BITMAP
00
10
10
78
A0
F0
A0
78
40
40
00
00
ENDCHAR
STARTCHAR suchthat
ENCODING 8715
SWIDTH 480 0
DWIDTH 6 0
BBX 6 12 0 -3
BITMAP
00
00
00
F0
08
78
08
F0
00
00
00
00
ENDCHAR
STARTCHAR uni220C
ENCODING 8716
SWIDTH 480 0
DWIDTH 6 0
BBX 6 12 0 -3
BITMAP
00
10
10
F0
28
78
28
F0
40
40
00
00
ENDCHAR
STARTCHAR product
ENCODING 8719
SWIDTH 480 0
DWIDTH 6 0
BBX 6 12 0 -3
BITMAP
F8
50
50
50
50
50
50
50
50
50
00
00
ENDCHAR
STARTCHAR uni2210
ENCODING 8720
SWIDTH 480 0
DWIDTH 6 0
BBX 6 12 0 -3
BITMAP
50
50
50
50
50
50
50
50
50
F8
00
00
ENDCHAR
STARTCHAR summation
ENCODING 8721
SWIDTH 480 0
DWIDTH 6 0
BBX 6 12 0 -3
BITMAP
F8
80
40
20
10
10
20
40
80
F8
00
00
ENDCHAR
STARTCHAR minus
ENCODING 8722
SWIDTH 480 0
DWIDTH 6 0
BBX 6 12 0 -3
BITMAP
00
00
00
00
00
F8
00
00
00
00
00
00
ENDCHAR
STARTCHAR uni2213
ENCODING 8723
SWIDTH 480 0
DWIDTH 6 0
BBX 6 12 0 -3
BITMAP
00
00
F8
00
20
20
F8
20
20
00
00
00
ENDCHAR
STARTCHAR fraction
ENCODING 8725
SWIDTH 480 0
DWIDTH 6 0
BBX 6 12 0 -3
BITMAP
08
08
10
10
20
20
40
40
80
80
00
00
ENDCHAR
STARTCHAR uni2218
ENCODING 8728
SWIDTH 480 0
DWIDTH 6 0
BBX 6 12 0 -3
BITMAP
00
00
00
00
30
48
48
30
00
00
00
00
ENDCHAR
STARTCHAR periodcentered
ENCODING 8729
SWIDTH 480 0
DWIDTH 6 0
BBX 6 12 0 -3
BITMAP
00
00
00
00
30
78
78
30
00
00
00
00
ENDCHAR
STARTCHAR radical
ENCODING 8730
SWIDTH 480 0
DWIDTH 6 0
BBX 6 12 0 -3
BITMAP
00
00
04
04
08
08
90
50
20
00
00
00
ENDCHAR
STARTCHAR proportional
ENCODING 8733
SWIDTH 480 0
DWIDTH 6 0
BBX 6 12 0 -3
BITMAP
00
00
00
00
00
28
50
28
00
00
00
00
ENDCHAR
STARTCHAR infinity
ENCODING 8734
SWIDTH 480 0
DWIDTH 6 0
BBX 6 12 0 -3
BITMAP
00
00
00
00
00
50
A8
50
00
00
00
00
ENDCHAR
STARTCHAR orthogonal
ENCODING 8735
SWIDTH 480 0
DWIDTH 6 0
BBX 6 12 0 -3
BITMAP
00
00
00
80
80
80
80
F8
00
00
00
00
ENDCHAR
STARTCHAR uni2221
ENCODING 8737
SWIDTH 480 0
DWIDTH 6 0
BBX 6 12 0 -3
BITMAP
00
00
00
10
10
F0
28
48
7C
08
08
00
ENDCHAR
STARTCHAR uni2223
ENCODING 8739
SWIDTH 480 0
DWIDTH 6 0
BBX 6 12 0 -3
BITMAP
00
00
20
20
20
20
20
20
20
00
00
00
ENDCHAR
STARTCHAR uni2224
ENCODING 8740
SWIDTH 480 0
DWIDTH 6 0
BBX 6 12 0 -3
BITMAP
00
00
20
28
30
20
60
A0
20
00
00
00
ENDCHAR
STARTCHAR uni2225
ENCODING 8741
SWIDTH 480 0
DWIDTH 6 0
BBX 6 12 0 -3
BITMAP
00
00
50
50
50
50
50
50
50
00
00
00
ENDCHAR
STARTCHAR uni2226
ENCODING 8742
SWIDTH 480 0
DWIDTH 6 0
BBX 6 12 0 -3
BITMAP
00
00
50
50
58
70
D0
50
50
00
00
00
ENDCHAR
STARTCHAR logicaland
ENCODING 8743
SWIDTH 480 0
DWIDTH 6 0
BBX 6 12 0 -3
BITMAP
00
00
00
20
20
50
50
88
88
00
00
00
ENDCHAR
STARTCHAR logicalor
ENCODING 8744
SWIDTH 480 0
DWIDTH 6 0
BBX 6 12 0 -3
BITMAP
00
00
00
88
88
50
50
20
20
00
00
00
ENDCHAR
STARTCHAR intersection
ENCODING 8745
SWIDTH 480 0
DWIDTH 6 0
BBX 6 12 0 -3
BITMAP
00
00
70
88
88
88
88
88
88
00
00
00
ENDCHAR
STARTCHAR union
ENCODING 8746
SWIDTH 480 0
DWIDTH 6 0
BBX 6 12 0 -3
BITMAP
00
00
88
88
88
88
88
88
70
00
00
00
ENDCHAR
STARTCHAR integral
ENCODING 8747
SWIDTH 480 0
DWIDTH 6 0
BBX 6 12 0 -3
BITMAP
10
28
20
20
20
20
20
20
A0
40
00
00
ENDCHAR
STARTCHAR uni222E
ENCODING 8750
SWIDTH 480 0
DWIDTH 6 0
BBX 6 12 0 -3
BITMAP
10
28
20
70
A8
A8
70
20
A0
40
00
00
ENDCHAR
STARTCHAR similar
ENCODING 8764
SWIDTH 480 0
DWIDTH 6 0
BBX 6 12 0 -3
BITMAP
00
00
00
00
40
A8
10
00
00
00
00
00
ENDCHAR
STARTCHAR uni2243
ENCODING 8771
SWIDTH 480 0
DWIDTH 6 0
BBX 6 12 0 -3
BITMAP
00
00
00
40
A8
10
00
F8
00
00
00
00
ENDCHAR
STARTCHAR congruent
ENCODING 8773
SWIDTH 480 0
DWIDTH 6 0
BBX 6 12 0 -3
BITMAP
00
00
40
A8
10
00
F8
00
F8
00
00
00
ENDCHAR
STARTCHAR approxequal
ENCODING 8776
SWIDTH 480 0
DWIDTH 6 0
BBX 6 12 0 -3
BITMAP
00
00
00
40
A8
50
A8
10
00
00
00
00
ENDCHAR
STARTCHAR uni2249
ENCODING 8777
SWIDTH 480 0
DWIDTH 6 0
BBX 6 12 0 -3
BITMAP
00
00
20
60
A8
70
A8
30
20
00
00
00
ENDCHAR
STARTCHAR uni2259
ENCODING 8793
SWIDTH 480 0
DWIDTH 6 0
BBX 6 12 0 -3
BITMAP
00
20
50
00
F8
00
F8
00
00
00
00
00
ENDCHAR
STARTCHAR uni225F
ENCODING 8799
SWIDTH 480 0
DWIDTH 6 0
BBX 6 12 0 -3
BITMAP
20
50
10
20
00
20
F8
00
F8
00
00
00
ENDCHAR
STARTCHAR notequal
ENCODING 8800
SWIDTH 480 0
DWIDTH 6 0
BBX 6 12 0 -3
BITMAP
00
00
10
10
F8
20
F8
40
40
00
00
00
ENDCHAR
STARTCHAR equivalence
ENCODING 8801
SWIDTH 480 0
DWIDTH 6 0
BBX 6 12 0 -3
BITMAP
00
00
00
F8
00
F8
00
F8
00
00
00
00
ENDCHAR
STARTCHAR uni2262
ENCODING 8802
SWIDTH 480 0
DWIDTH 6 0
BBX 6 12 0 -3
BITMAP
00
00
20
F8
20
F8
20
F8
20
00
00
00
ENDCHAR
STARTCHAR uni2263
ENCODING 8803
SWIDTH 480 0
DWIDTH 6 0
BBX 6 12 0 -3
BITMAP
00
00
F8
00
F8
00
F8
00
F8
00
00
00
ENDCHAR
STARTCHAR lessequal
ENCODING 8804
SWIDTH 480 0
DWIDTH 6 0
BBX 6 12 0 -3
BITMAP
00
00
18
60
80
60
18
00
F8
00
00
00
ENDCHAR
STARTCHAR greaterequal
ENCODING 8805
SWIDTH 480 0
DWIDTH 6 0
BBX 6 12 0 -3
BITMAP
00
00
C0
30
08
30
C0
00
F8
00
00
00
ENDCHAR
STARTCHAR uni226A
ENCODING 8810
SWIDTH 480 0
DWIDTH 6 0
BBX 6 12 0 -3
BITMAP
00
00
00
24
48
90
48
24
00
00
00
00
ENDCHAR
STARTCHAR uni226B
ENCODING 8811
SWIDTH 480 0
DWIDTH 6 0
BBX 6 12 0 -3
BITMAP
00
00
00
90
48
24
48
90
00
00
00
00
ENDCHAR
STARTCHAR propersubset
ENCODING 8834
SWIDTH 480 0
DWIDTH 6 0
BBX 6 12 0 -3
BITMAP
00
00
00
78
80
80
80
80
78
00
00
00
ENDCHAR
STARTCHAR propersuperset
ENCODING 8835
SWIDTH 480 0
DWIDTH 6 0
BBX 6 12 0 -3
BITMAP
00
00
00
F0
08
08
08
08
F0
00
00
00
ENDCHAR
STARTCHAR notsubset
ENCODING 8836
SWIDTH 480 0
DWIDTH 6 0
BBX 6 12 0 -3
BITMAP
00
00
20
78
A0
A0
A0
A0
78
20
00
00
ENDCHAR
STARTCHAR uni2285
ENCODING 8837
SWIDTH 480 0
DWIDTH 6 0
BBX 6 12 0 -3
BITMAP
00
00
20
F0
28
28
28
28
F0
20
00
00
ENDCHAR
STARTCHAR reflexsubset
ENCODING 8838
SWIDTH 480 0
DWIDTH 6 0
BBX 6 12 0 -3
BITMAP
00
78
80
80
80
80
78
00
F8
00
00
00
ENDCHAR
STARTCHAR reflexsuperset
ENCODING 8839
SWIDTH 480 0
DWIDTH 6 0
BBX 6 12 0 -3
BITMAP
00
F0
08
08
08
08
F0
00
F8
00
00
00
ENDCHAR
STARTCHAR uni2288
ENCODING 8840
SWIDTH 480 0
DWIDTH 6 0
BBX 6 12 0 -3
BITMAP
20
78
A0
A0
A0
A0
78
20
F8
20
00
00
ENDCHAR
STARTCHAR uni2289
ENCODING 8841
SWIDTH 480 0
DWIDTH 6 0
BBX 6 12 0 -3
BITMAP
20
F0
28
28
28
28
F0
20
F8
20
00
00
ENDCHAR
STARTCHAR uni228A
ENCODING 8842
SWIDTH 480 0
DWIDTH 6 0
BBX 6 12 0 -3
BITMAP
00
78
80
80
80
80
78
20
F8
20
00
00
ENDCHAR
STARTCHAR uni228B
ENCODING 8843
SWIDTH 480 0
DWIDTH 6 0
BBX 6 12 0 -3
BITMAP
00
F0
08
08
08
08
F0
20
F8
20
00
00
ENDCHAR
STARTCHAR circleplus
ENCODING 8853
SWIDTH 480 0
DWIDTH 6 0
BBX 6 12 0 -3
BITMAP
00
00
00
70
A8
F8
A8
70
00
00
00
00
ENDCHAR
STARTCHAR uni2296
ENCODING 8854
SWIDTH 480 0
DWIDTH 6 0
BBX 6 12 0 -3
BITMAP
00
00
00
70
88
F8
88
70
00
00
00
00
ENDCHAR
STARTCHAR circlemultiply
ENCODING 8855
SWIDTH 480 0
DWIDTH 6 0
BBX 6 12 0 -3
BITMAP
00
00
00
70
D8
A8
D8
70
00
00
00
00
ENDCHAR
STARTCHAR uni2298
ENCODING 8856
SWIDTH 480 0
DWIDTH 6 0
BBX 6 12 0 -3
BITMAP
00
00
00
70
98
A8
C8
70
00
00
00
00
ENDCHAR
STARTCHAR uni2299
ENCODING 8857
SWIDTH 480 0
DWIDTH 6 0
BBX 6 12 0 -3
BITMAP
00
00
00
70
88
A8
88
70
00
00
00
00
ENDCHAR
STARTCHAR uni229E
ENCODING 8862
SWIDTH 480 0
DWIDTH 6 0
BBX 6 12 0 -3
BITMAP
00
00
00
F8
A8
F8
A8
F8
00
00
00
00
ENDCHAR
STARTCHAR uni229F
ENCODING 8863
SWIDTH 480 0
DWIDTH 6 0
BBX 6 12 0 -3
BITMAP
00
00
00
F8
88
F8
88
F8
00
00
00
00
ENDCHAR
STARTCHAR uni22A0
ENCODING 8864
SWIDTH 480 0
DWIDTH 6 0
BBX 6 12 0 -3
BITMAP
00
00
00
F8
D8
A8
D8
F8
00
00
00
00
ENDCHAR
STARTCHAR uni22A1
ENCODING 8865
SWIDTH 480 0
DWIDTH 6 0
BBX 6 12 0 -3
BITMAP
00
00
00
F8
88
A8
88
F8
00
00
00
00
ENDCHAR
STARTCHAR uni22A2
ENCODING 8866
SWIDTH 480 0
DWIDTH 6 0
BBX 6 12 0 -3
BITMAP
00
00
80
80
80
F8
80
80
80
00
00
00
ENDCHAR
STARTCHAR uni22A3
ENCODING 8867
SWIDTH 480 0
DWIDTH 6 0
BBX 6 12 0 -3
BITMAP
00
00
08
08
08
F8
08
08
08
00
00
00
ENDCHAR
STARTCHAR uni22A4
ENCODING 8868
SWIDTH 480 0
DWIDTH 6 0
BBX 6 12 0 -3
BITMAP
00
F8
20
20
20
20
20
20
20
00
00
00
ENDCHAR
STARTCHAR perpendicular
ENCODING 8869
SWIDTH 480 0
DWIDTH 6 0
BBX 6 12 0 -3
BITMAP
00
20
20
20
20
20
20
20
F8
00
00
00
ENDCHAR
STARTCHAR uni22A6
ENCODING 8870
SWIDTH 480 0
DWIDTH 6 0
BBX 6 12 0 -3
BITMAP
00
00
40
40
40
70
40
40
40
00
00
00
ENDCHAR
STARTCHAR uni22A7
ENCODING 8871
SWIDTH 480 0
DWIDTH 6 0
BBX 6 12 0 -3
BITMAP
00
00
40
40
70
40
70
40
40
00
00
00
ENDCHAR
STARTCHAR uni22A8
ENCODING 8872
SWIDTH 480 0
DWIDTH 6 0
BBX 6 12 0 -3
BITMAP
00
00
80
80
F8
80
F8
80
80
00
00
00
ENDCHAR
STARTCHAR uni22A9
ENCODING 8873
SWIDTH 480 0
DWIDTH 6 0
BBX 6 12 0 -3
BITMAP
00
00
A0
A0
A0
B8
A0
A0
A0
00
00
00
ENDCHAR
STARTCHAR uni22C0
ENCODING 8896
SWIDTH 480 0
DWIDTH 6 0
BBX 6 12 0 -3
BITMAP
20
20
20
50
50
50
50
88
88
88
00
00
ENDCHAR
STARTCHAR uni22C1
ENCODING 8897
SWIDTH 480 0
DWIDTH 6 0
BBX 6 12 0 -3
BITMAP
88
88
88
50
50
50
50
20
20
20
00
00
ENDCHAR
STARTCHAR uni22C2
ENCODING 8898
SWIDTH 480 0
DWIDTH 6 0
BBX 6 12 0 -3
BITMAP
70
88
88
88
88
88
88
88
88
88
00
00
ENDCHAR
STARTCHAR uni22C3
ENCODING 8899
SWIDTH 480 0
DWIDTH 6 0
BBX 6 12 0 -3
BITMAP
88
88
88
88
88
88
88
88
88
70
00
00
ENDCHAR
STARTCHAR dotmath
ENCODING 8901
SWIDTH 480 0
DWIDTH 6 0
BBX 6 12 0 -3
BITMAP
00
00
00
00
00
20
00
00
00
00
00
00
ENDCHAR
STARTCHAR uni22EE
ENCODING 8942
SWIDTH 480 0
DWIDTH 6 0
BBX 6 12 0 -3
BITMAP
00
00
20
00
00
20
00
00
20
00
00
00
ENDCHAR
STARTCHAR uni22EF
ENCODING 8943
SWIDTH 480 0
DWIDTH 6 0
BBX 6 12 0 -3
BITMAP
00
00
00
00
00
A8
00
00
00
00
00
00
ENDCHAR
STARTCHAR uni22F0
ENCODING 8944
SWIDTH 480 0
DWIDTH 6 0
BBX 6 12 0 -3
BITMAP
00
00
08
00
00
20
00
00
80
00
00
00
ENDCHAR
STARTCHAR uni22F1
ENCODING 8945
SWIDTH 480 0
DWIDTH 6 0
BBX 6 12 0 -3
BITMAP
00
00
80
00
00
20
00
00
08
00
00
00
ENDCHAR
STARTCHAR uni2300
ENCODING 8960
SWIDTH 480 0
DWIDTH 6 0
BBX 6 12 0 -3
BITMAP
00
00
00
00
78
98
A8
C8
F0
00
00
00
ENDCHAR
STARTCHAR house
ENCODING 8962
SWIDTH 480 0
DWIDTH 6 0
BBX 6 12 0 -3
BITMAP
00
00
00
20
50
88
88
88
F8
00
00
00
ENDCHAR
STARTCHAR uni2308
ENCODING 8968
SWIDTH 480 0
DWIDTH 6 0
BBX 6 12 0 -3
BITMAP
38
20
20
20
20
20
20
20
20
20
20
00
ENDCHAR
STARTCHAR uni2309
ENCODING 8969
SWIDTH 480 0
DWIDTH 6 0
BBX 6 12 0 -3
BITMAP
70
10
10
10
10
10
10
10
10
10
10
00
ENDCHAR
STARTCHAR uni230A
ENCODING 8970
SWIDTH 480 0
DWIDTH 6 0
BBX 6 12 0 -3
BITMAP
20
20
20
20
20
20
20
20
20
20
38
00
ENDCHAR
STARTCHAR uni230B
ENCODING 8971
SWIDTH 480 0
DWIDTH 6 0
BBX 6 12 0 -3
BITMAP
10
10
10
10
10
10
10
10
10
10
70
00
ENDCHAR
STARTCHAR revlogicalnot
ENCODING 8976
SWIDTH 480 0
DWIDTH 6 0
BBX 6 12 0 -3
BITMAP
00
00
00
00
00
78
40
00
00
00
00
00
ENDCHAR
STARTCHAR integraltp
ENCODING 8992
SWIDTH 480 0
DWIDTH 6 0
BBX 6 12 0 -3
BITMAP
00
08
14
10
10
10
10
10
10
10
10
10
ENDCHAR
STARTCHAR integralbt
ENCODING 8993
SWIDTH 480 0
DWIDTH 6 0
BBX 6 12 0 -3
BITMAP
10
10
10
10
10
10
10
10
10
50
20
00
ENDCHAR
STARTCHAR uni23BA
ENCODING 9146
SWIDTH 480 0
DWIDTH 6 0
BBX 6 12 0 -3
BITMAP
FC
00
00
00
00
00
00
00
00
00
00
00
ENDCHAR
STARTCHAR uni23BB
ENCODING 9147
SWIDTH 480 0
DWIDTH 6 0
BBX 6 12 0 -3
BITMAP
00
00
00
FC
00
00
00
00
00
00
00
00
ENDCHAR
STARTCHAR uni23BC
ENCODING 9148
SWIDTH 480 0
DWIDTH 6 0
BBX 6 12 0 -3
BITMAP
00
00
00
00
00
00
00
00
FC
00
00
00
ENDCHAR
STARTCHAR uni23BD
ENCODING 9149
SWIDTH 480 0
DWIDTH 6 0
BBX 6 12 0 -3
BITMAP
00
00
00
00
00
00
00
00
00
00
00
FC
ENDCHAR
STARTCHAR uni2409
ENCODING 9225
SWIDTH 480 0
DWIDTH 6 0
BBX 6 12 0 -3
BITMAP
00
A0
A0
E0
A0
BC
08
08
08
08
00
00
ENDCHAR
STARTCHAR uni240A
ENCODING 9226
SWIDTH 480 0
DWIDTH 6 0
BBX 6 12 0 -3
BITMAP
00
80
80
80
9C
F0
18
10
10
00
00
00
ENDCHAR
STARTCHAR uni240B
ENCODING 9227
SWIDTH 480 0
DWIDTH 6 0
BBX 6 12 0 -3
BITMAP
00
A0
A0
A0
5C
48
08
08
08
00
00
00
ENDCHAR
STARTCHAR uni240C
ENCODING 9228
SWIDTH 480 0
DWIDTH 6 0
BBX 6 12 0 -3
BITMAP
00
E0
80
C0
9C
90
1C
10
10
00
00
00
ENDCHAR
STARTCHAR uni240D
ENCODING 9229
SWIDTH 480 0
DWIDTH 6 0
BBX 6 12 0 -3
BITMAP
00
60
80
80
98
74
18
14
14
00
00
00
ENDCHAR
STARTCHAR uni2420
ENCODING 9248
SWIDTH 480 0
DWIDTH 6 0
BBX 6 12 0 -3
BITMAP
00
60
80
40
38
D4
18
10
10
00
00
00
ENDCHAR
STARTCHAR uni2423
ENCODING 9251
SWIDTH 480 0
DWIDTH 6 0
BBX 6 12 0 -3
BITMAP
00
00
00
00
00
00
00
88
F8
00
00
00
ENDCHAR
STARTCHAR uni2424
ENCODING 9252
SWIDTH 480 0
DWIDTH 6 0
BBX 6 12 0 -3
BITMAP
A0
E0
E0
E0
B0
10
10
10
1C
00
00
00
ENDCHAR
STARTCHAR uni2440
ENCODING 9280
SWIDTH 480 0
DWIDTH 6 0
BBX 6 12 0 -3
BITMAP
00
00
38
28
28
20
A0
A0
E0
00
00
00
ENDCHAR
STARTCHAR uni2441
ENCODING 9281
SWIDTH 480 0
DWIDTH 6 0
BBX 6 12 0 -3
BITMAP
00
00
08
08
08
F8
88
88
88
00
00
00
ENDCHAR
STARTCHAR uni2442
ENCODING 9282
SWIDTH 480 0
DWIDTH 6 0
BBX 6 12 0 -3
BITMAP
00
00
88
88
88
F8
20
20
20
00
00
00
ENDCHAR
STARTCHAR uni2443
ENCODING 9283
SWIDTH 480 0
DWIDTH 6 0
BBX 6 12 0 -3
BITMAP
00
00
20
20
20
F8
88
88
88
00
00
00
ENDCHAR
STARTCHAR uni2444
ENCODING 9284
SWIDTH 480 0
DWIDTH 6 0
BBX 6 12 0 -3
BITMAP
00
00
F8
A8
20
20
20
A8
F8
00
00
00
ENDCHAR
STARTCHAR uni2445
ENCODING 9285
SWIDTH 480 0
DWIDTH 6 0
BBX 6 12 0 -3
BITMAP
00
88
D8
A8
D8
88
00
00
00
00
00
00
ENDCHAR
STARTCHAR SF100000
ENCODING 9472
SWIDTH 480 0
DWIDTH 6 0
BBX 6 12 0 -3
BITMAP
00
00
00
00
00
00
FC
00
00
00
00
00
ENDCHAR
STARTCHAR uni2501
ENCODING 9473
SWIDTH 480 0
DWIDTH 6 0
BBX 6 12 0 -3
BITMAP
00
00
00
00
00
FC
FC
00
00
00
00
00
ENDCHAR
STARTCHAR SF110000
ENCODING 9474
SWIDTH 480 0
DWIDTH 6 0
BBX 6 12 0 -3
BITMAP
20
20
20
20
20
20
20
20
20
20
20
20
ENDCHAR
STARTCHAR uni2503
ENCODING 9475
SWIDTH 480 0
DWIDTH 6 0
BBX 6 12 0 -3
BITMAP
30
30
30
30
30
30
30
30
30
30
30
30
ENDCHAR
STARTCHAR uni2504
ENCODING 9476
SWIDTH 480 0
DWIDTH 6 0
BBX 6 12 0 -3
BITMAP
00
00
00
00
00
00
B4
00
00
00
00
00
ENDCHAR
STARTCHAR uni2505
ENCODING 9477
SWIDTH 480 0
DWIDTH 6 0
BBX 6 12 0 -3
BITMAP
00
00
00
00
00
B4
B4
00
00
00
00
00
ENDCHAR
STARTCHAR uni2506
ENCODING 9478
SWIDTH 480 0
DWIDTH 6 0
BBX 6 12 0 -3
BITMAP
20
20
20
00
20
20
20
20
00
20
20
20
ENDCHAR
STARTCHAR uni2507
ENCODING 9479
SWIDTH 480 0
DWIDTH 6 0
BBX 6 12 0 -3
BITMAP
30
30
30
00
30
30
30
30
00
30
30
30
ENDCHAR
STARTCHAR uni2508
ENCODING 9480
SWIDTH 480 0
DWIDTH 6 0
BBX 6 12 0 -3
BITMAP
00
00
00
00
00
00
B4
00
00
00
00
00
ENDCHAR
STARTCHAR uni2509
ENCODING 9481
SWIDTH 480 0
DWIDTH 6 0
BBX 6 12 0 -3
BITMAP
00
00
00
00
00
B4
B4
00
00
00
00
00
ENDCHAR
STARTCHAR uni250A
ENCODING 9482
SWIDTH 480 0
DWIDTH 6 0
BBX 6 12 0 -3
BITMAP
20
20
20
00
20
20
00
20
20
00
20
20
ENDCHAR
STARTCHAR uni250B
ENCODING 9483
SWIDTH 480 0
DWIDTH 6 0
BBX 6 12 0 -3
BITMAP
30
30
30
00
30
30
00
30
30
00
30
30
ENDCHAR
STARTCHAR SF010000
ENCODING 9484
SWIDTH 480 0
DWIDTH 6 0
BBX 6 12 0 -3
BITMAP
00
00
00
00
00
00
3F
20
20
20
20
20
ENDCHAR
STARTCHAR uni250D
ENCODING 9485
SWIDTH 480 0
DWIDTH 6 0
BBX 6 12 0 -3
BITMAP
00
00
00
00
00
3F
3F
20
20
20
20
20
ENDCHAR
STARTCHAR uni250E
ENCODING 9486
SWIDTH 480 0
DWIDTH 6 0
BBX 6 12 0 -3
BITMAP
00
00
00
00
00
00
3F
30
30
30
30
30
ENDCHAR
STARTCHAR uni250F
ENCODING 9487
SWIDTH 480 0
DWIDTH 6 0
BBX 6 12 0 -3
BITMAP
00
00
00
00
00
3F
3F
30
30
30
30
30
ENDCHAR
STARTCHAR SF030000
ENCODING 9488
SWIDTH 480 0
DWIDTH 6 0
BBX 6 12 0 -3
BITMAP
00
00
00
00
00
00
E0
20
20
20
20
20
ENDCHAR
STARTCHAR uni2511
ENCODING 9489
SWIDTH 480 0
DWIDTH 6 0
BBX 6 12 0 -3
BITMAP
00
00
00
00
00
E0
E0
20
20
20
20
20
ENDCHAR
STARTCHAR uni2512
ENCODING 9490
SWIDTH 480 0
DWIDTH 6 0
BBX 6 12 0 -3
BITMAP
00
00
00
00
00
00
F0
30
30
30
30
30
ENDCHAR
STARTCHAR uni2513
ENCODING 9491
SWIDTH 480 0
DWIDTH 6 0
BBX 6 12 0 -3
BITMAP
00
00
00
00
00
F0
F0
30
30
30
30
30
ENDCHAR
STARTCHAR SF020000
ENCODING 9492
SWIDTH 480 0
DWIDTH 6 0
BBX 6 12 0 -3
BITMAP
20
20
20
20
20
20
3F
00
00
00
00
00
ENDCHAR
STARTCHAR uni2515
ENCODING 9493
SWIDTH 480 0
DWIDTH 6 0
BBX 6 12 0 -3
BITMAP
20
20
20
20
20
3F
3F
00
00
00
00
00
ENDCHAR
STARTCHAR uni2516
ENCODING 9494
SWIDTH 480 0
DWIDTH 6 0
BBX 6 12 0 -3
BITMAP
30
30
30
30
30
30
3F
00
00
00
00
00
ENDCHAR
STARTCHAR uni2517
ENCODING 9495
SWIDTH 480 0
DWIDTH 6 0
BBX 6 12 0 -3
BITMAP
30
30
30
30
30
3F
3F
00
00
00
00
00
ENDCHAR
STARTCHAR SF040000
ENCODING 9496
SWIDTH 480 0
DWIDTH 6 0
BBX 6 12 0 -3
BITMAP
20
20
20
20
20
20
E0
00
00
00
00
00
ENDCHAR
STARTCHAR uni2519
ENCODING 9497
SWIDTH 480 0
DWIDTH 6 0
BBX 6 12 0 -3
BITMAP
20
20
20
20
20
E0
E0
00
00
00
00
00
ENDCHAR
STARTCHAR uni251A
ENCODING 9498
SWIDTH 480 0
DWIDTH 6 0
BBX 6 12 0 -3
BITMAP
30
30
30
30
30
30
F0
00
00
00
00
00
ENDCHAR
STARTCHAR uni251B
ENCODING 9499
SWIDTH 480 0
DWIDTH 6 0
BBX 6 12 0 -3
BITMAP
30
30
30
30
30
F0
F0
00
00
00
00
00
ENDCHAR
STARTCHAR SF080000
ENCODING 9500
SWIDTH 480 0
DWIDTH 6 0
BBX 6 12 0 -3
BITMAP
20
20
20
20
20
20
3F
20
20
20
20
20
ENDCHAR
STARTCHAR uni251D
ENCODING 9501
SWIDTH 480 0
DWIDTH 6 0
BBX 6 12 0 -3
BITMAP
20
20
20
20
20
3F
3F
20
20
20
20
20
ENDCHAR
STARTCHAR uni251E
ENCODING 9502
SWIDTH 480 0
DWIDTH 6 0
BBX 6 12 0 -3
BITMAP
30
30
30
30
30
30
3F
20
20
20
20
20
ENDCHAR
STARTCHAR uni251F
ENCODING 9503
SWIDTH 480 0
DWIDTH 6 0
BBX 6 12 0 -3
BITMAP
20
20
20
20
20
20
3F
30
30
30
30
30
ENDCHAR
STARTCHAR uni2520
ENCODING 9504
SWIDTH 480 0
DWIDTH 6 0
BBX 6 12 0 -3
BITMAP
30
30
30
30
30
30
3F
30
30
30
30
30
ENDCHAR
STARTCHAR uni2521
ENCODING 9505
SWIDTH 480 0
DWIDTH 6 0
BBX 6 12 0 -3
BITMAP
30
30
30
30
30
3F
3F
20
20
20
20
20
ENDCHAR
STARTCHAR uni2522
ENCODING 9506
SWIDTH 480 0
DWIDTH 6 0
BBX 6 12 0 -3
BITMAP
20
20
20
20
20
3F
3F
30
30
30
30
30
ENDCHAR
STARTCHAR uni2523
ENCODING 9507
SWIDTH 480 0
DWIDTH 6 0
BBX 6 12 0 -3
BITMAP
30
30
30
30
30
3F
3F
30
30
30
30
30
ENDCHAR
STARTCHAR SF090000
ENCODING 9508
SWIDTH 480 0
DWIDTH 6 0
BBX 6 12 0 -3
BITMAP
20
20
20
20
20
20
E0
20
20
20
20
20
ENDCHAR
STARTCHAR uni2525
ENCODING 9509
SWIDTH 480 0
DWIDTH 6 0
BBX 6 12 0 -3
BITMAP
20
20
20
20
20
E0
E0
20
20
20
20
20
ENDCHAR
STARTCHAR uni2526
ENCODING 9510
SWIDTH 480 0
DWIDTH 6 0
BBX 6 12 0 -3
BITMAP
30
30
30
30
30
30
E0
20
20
20
20
20
ENDCHAR
STARTCHAR uni2527
ENCODING 9511
SWIDTH 480 0
DWIDTH 6 0
BBX 6 12 0 -3
BITMAP
20
20
20
20
20
20
F0
30
30
30
30
30
ENDCHAR
STARTCHAR uni2528
ENCODING 9512
SWIDTH 480 0
DWIDTH 6 0
BBX 6 12 0 -3
BITMAP
30
30
30
30
30
30
F0
30
30
30
30
30
ENDCHAR
STARTCHAR uni2529
ENCODING 9513
SWIDTH 480 0
DWIDTH 6 0
BBX 6 12 0 -3
BITMAP
30
30
30
30
30
F0
E0
20
20
20
20
20
ENDCHAR
STARTCHAR uni252A
ENCODING 9514
SWIDTH 480 0
DWIDTH 6 0
BBX 6 12 0 -3
BITMAP
20
20
20
20
20
E0
F0
30
30
30
30
30
ENDCHAR
STARTCHAR uni252B
ENCODING 9515
SWIDTH 480 0
DWIDTH 6 0
BBX 6 12 0 -3
BITMAP
30
30
30
30
30
F0
F0
30
30
30
30
30
ENDCHAR
STARTCHAR SF060000
ENCODING 9516
SWIDTH 480 0
DWIDTH 6 0
BBX 6 12 0 -3
BITMAP
00
00
00
00
00
00
FF
20
20
20
20
20
ENDCHAR
STARTCHAR uni252D
ENCODING 9517
SWIDTH 480 0
DWIDTH 6 0
BBX 6 12 0 -3
BITMAP
00
00
00
00
00
E0
FF
20
20
20
20
20
ENDCHAR
STARTCHAR uni252E
ENCODING 9518
SWIDTH 480 0
DWIDTH 6 0
BBX 6 12 0 -3
BITMAP
00
00
00
00
00
3F
FF
20
20
20
20
20
ENDCHAR
STARTCHAR uni252F
ENCODING 9519
SWIDTH 480 0
DWIDTH 6 0
BBX 6 12 0 -3
BITMAP
00
00
00
00
00
FF
FF
20
20
20
20
20
ENDCHAR
STARTCHAR uni2530
ENCODING 9520
SWIDTH 480 0
DWIDTH 6 0
BBX 6 12 0 -3
BITMAP
00
00
00
00
00
00
FF
30
30
30
30
30
ENDCHAR
STARTCHAR uni2531
ENCODING 9521
SWIDTH 480 0
DWIDTH 6 0
BBX 6 12 0 -3
BITMAP
00
00
00
00
00
E0
FF
30
30
30
30
30
ENDCHAR
STARTCHAR uni2532
ENCODING 9522
SWIDTH 480 0
DWIDTH 6 0
BBX 6 12 0 -3
BITMAP
00
00
00
00
00
3F
FF
30
30
30
30
30
ENDCHAR
STARTCHAR uni2533
ENCODING 9523
SWIDTH 480 0
DWIDTH 6 0
BBX 6 12 0 -3
BITMAP
00
00
00
00
00
FF
FF
30
30
30
30
30
ENDCHAR
STARTCHAR SF070000
ENCODING 9524
SWIDTH 480 0
DWIDTH 6 0
BBX 6 12 0 -3
BITMAP
20
20
20
20
20
20
FF
00
00
00
00
00
ENDCHAR
STARTCHAR uni2535
ENCODING 9525
SWIDTH 480 0
DWIDTH 6 0
BBX 6 12 0 -3
BITMAP
20
20
20
20
20
E0
FF
00
00
00
00
00
ENDCHAR
STARTCHAR uni2536
ENCODING 9526
SWIDTH 480 0
DWIDTH 6 0
BBX 6 12 0 -3
BITMAP
20
20
20
20
20
3F
FF
00
00
00
00
00
ENDCHAR
STARTCHAR uni2537
ENCODING 9527
SWIDTH 480 0
DWIDTH 6 0
BBX 6 12 0 -3
BITMAP
20
20
20
20
20
FF
FF
00
00
00
00
00
ENDCHAR
STARTCHAR uni2538
ENCODING 9528
SWIDTH 480 0
DWIDTH 6 0
BBX 6 12 0 -3
BITMAP
30
30
30
30
30
30
FF
00
00
00
00
00
ENDCHAR
STARTCHAR uni2539
ENCODING 9529
SWIDTH 480 0
DWIDTH 6 0
BBX 6 12 0 -3
BITMAP
30
30
30
30
30
F0
FF
00
00
00
00
00
ENDCHAR
STARTCHAR uni253A
ENCODING 9530
SWIDTH 480 0
DWIDTH 6 0
BBX 6 12 0 -3
BITMAP
30
30
30
30
30
3F
FF
00
00
00
00
00
ENDCHAR
STARTCHAR uni253B
ENCODING 9531
SWIDTH 480 0
DWIDTH 6 0
BBX 6 12 0 -3
BITMAP
30
30
30
30
30
FF
FF
00
00
00
00
00
ENDCHAR
STARTCHAR SF050000
ENCODING 9532
SWIDTH 480 0
DWIDTH 6 0
BBX 6 12 0 -3
BITMAP
20
20
20
20
20
20
FF
20
20
20
20
20
ENDCHAR
STARTCHAR uni253D
ENCODING 9533
SWIDTH 480 0
DWIDTH 6 0
BBX 6 12 0 -3
BITMAP
20
20
20
20
20
E0
FF
20
20
20
20
20
ENDCHAR
STARTCHAR uni253E
ENCODING 9534
SWIDTH 480 0
DWIDTH 6 0
BBX 6 12 0 -3
BITMAP
20
20
20
20
20
3F
FF
20
20
20
20
20
ENDCHAR
STARTCHAR uni253F
ENCODING 9535
SWIDTH 480 0
DWIDTH 6 0
BBX 6 12 0 -3
BITMAP
20
20
20
20
20
FF
FF
20
20
20
20
20
ENDCHAR
STARTCHAR uni2540
ENCODING 9536
SWIDTH 480 0
DWIDTH 6 0
BBX 6 12 0 -3
BITMAP
30
30
30
30
30
30
FF
20
20
20
20
20
ENDCHAR
STARTCHAR uni2541
ENCODING 9537
SWIDTH 480 0
DWIDTH 6 0
BBX 6 12 0 -3
BITMAP
20
20
20
20
20
20
FF
30
30
30
30
30
ENDCHAR
STARTCHAR uni2542
ENCODING 9538
SWIDTH 480 0
DWIDTH 6 0
BBX 6 12 0 -3
BITMAP
30
30
30
30
30
30
FF
30
30
30
30
30
ENDCHAR
STARTCHAR uni2543
ENCODING 9539
SWIDTH 480 0
DWIDTH 6 0
BBX 6 12 0 -3
BITMAP
30
30
30
30
30
F0
FF
20
20
20
20
20
ENDCHAR
STARTCHAR uni2544
ENCODING 9540
SWIDTH 480 0
DWIDTH 6 0
BBX 6 12 0 -3
BITMAP
30
30
30
30
30
3F
FF
20
20
20
20
20
ENDCHAR
STARTCHAR uni2545
ENCODING 9541
SWIDTH 480 0
DWIDTH 6 0
BBX 6 12 0 -3
BITMAP
20
20
20
20
20
E0
FF
30
30
30
30
30
ENDCHAR
STARTCHAR uni2546
ENCODING 9542
SWIDTH 480 0
DWIDTH 6 0
BBX 6 12 0 -3
BITMAP
20
20
20
20
20
3F
FF
30
30
30
30
30
ENDCHAR
STARTCHAR uni2547
ENCODING 9543
SWIDTH 480 0
DWIDTH 6 0
BBX 6 12 0 -3
BITMAP
30
30
30
30
30
FF
FF
20
20
20
20
20
ENDCHAR
STARTCHAR uni2548
ENCODING 9544
SWIDTH 480 0
DWIDTH 6 0
BBX 6 12 0 -3
BITMAP
30
30
30
30
30
FF
FF
20
20
20
20
20
ENDCHAR
STARTCHAR uni2549
ENCODING 9545
SWIDTH 480 0
DWIDTH 6 0
BBX 6 12 0 -3
BITMAP
30
30
30
30
30
F0
FF
30
30
30
30
30
ENDCHAR
STARTCHAR uni254A
ENCODING 9546
SWIDTH 480 0
DWIDTH 6 0
BBX 6 12 0 -3
BITMAP
30
30
30
30
30
3F
FF
30
30
30
30
30
ENDCHAR
STARTCHAR uni254B
ENCODING 9547
SWIDTH 480 0
DWIDTH 6 0
BBX 6 12 0 -3
BITMAP
30
30
30
30
30
FF
FF
30
30
30
30
30
ENDCHAR
STARTCHAR uni254C
ENCODING 9548
SWIDTH 480 0
DWIDTH 6 0
BBX 6 12 0 -3
BITMAP
00
00
00
00
00
00
EC
00
00
00
00
00
ENDCHAR
STARTCHAR uni254D
ENCODING 9549
SWIDTH 480 0
DWIDTH 6 0
BBX 6 12 0 -3
BITMAP
00
00
00
00
00
EC
EC
00
00
00
00
00
ENDCHAR
STARTCHAR uni254E
ENCODING 9550
SWIDTH 480 0
DWIDTH 6 0
BBX 6 12 0 -3
BITMAP
20
20
20
20
20
20
00
20
20
20
20
20
ENDCHAR
STARTCHAR uni254F
ENCODING 9551
SWIDTH 480 0
DWIDTH 6 0
BBX 6 12 0 -3
BITMAP
30
30
30
30
30
30
00
30
30
30
30
30
ENDCHAR
STARTCHAR SF430000
ENCODING 9552
SWIDTH 480 0
DWIDTH 6 0
BBX 6 12 0 -3
BITMAP
00
00
00
00
00
FC
00
FC
00
00
00
00
ENDCHAR
STARTCHAR SF240000
ENCODING 9553
SWIDTH 480 0
DWIDTH 6 0
BBX 6 12 0 -3
BITMAP
50
50
50
50
50
50
50
50
50
50
50
50
ENDCHAR
STARTCHAR SF510000
ENCODING 9554
SWIDTH 480 0
DWIDTH 6 0
BBX 6 12 0 -3
BITMAP
00
00
00
00
00
3F
20
3F
20
20
20
20
ENDCHAR
STARTCHAR SF520000
ENCODING 9555
SWIDTH 480 0
DWIDTH 6 0
BBX 6 12 0 -3
BITMAP
00
00
00
00
00
00
7F
50
50
50
50
50
ENDCHAR
STARTCHAR SF390000
ENCODING 9556
SWIDTH 480 0
DWIDTH 6 0
BBX 6 12 0 -3
BITMAP
00
00
00
00
00
7C
40
5C
50
50
50
50
ENDCHAR
STARTCHAR SF220000
ENCODING 9557
SWIDTH 480 0
DWIDTH 6 0
BBX 6 12 0 -3
BITMAP
00
00
00
00
00
E0
20
E0
20
20
20
20
ENDCHAR
STARTCHAR SF210000
ENCODING 9558
SWIDTH 480 0
DWIDTH 6 0
BBX 6 12 0 -3
BITMAP
00
00
00
00
00
00
F0
50
50
50
50
50
ENDCHAR
STARTCHAR SF250000
ENCODING 9559
SWIDTH 480 0
DWIDTH 6 0
BBX 6 12 0 -3
BITMAP
00
00
00
00
00
F0
10
D0
50
50
50
50
ENDCHAR
STARTCHAR SF500000
ENCODING 9560
SWIDTH 480 0
DWIDTH 6 0
BBX 6 12 0 -3
BITMAP
20
20
20
20
20
3C
20
3C
00
00
00
00
ENDCHAR
STARTCHAR SF490000
ENCODING 9561
SWIDTH 480 0
DWIDTH 6 0
BBX 6 12 0 -3
BITMAP
50
50
50
50
50
50
7C
00
00
00
00
00
ENDCHAR
STARTCHAR SF380000
ENCODING 9562
SWIDTH 480 0
DWIDTH 6 0
BBX 6 12 0 -3
BITMAP
50
50
50
50
50
5C
40
7C
00
00
00
00
ENDCHAR
STARTCHAR SF280000
ENCODING 9563
SWIDTH 480 0
DWIDTH 6 0
BBX 6 12 0 -3
BITMAP
20
20
20
20
20
E0
20
E0
00
00
00
00
ENDCHAR
STARTCHAR SF270000
ENCODING 9564
SWIDTH 480 0
DWIDTH 6 0
BBX 6 12 0 -3
BITMAP
50
50
50
50
50
50
F0
00
00
00
00
00
ENDCHAR
STARTCHAR SF260000
ENCODING 9565
SWIDTH 480 0
DWIDTH 6 0
BBX 6 12 0 -3
BITMAP
50
50
50
50
50
D0
10
F0
00
00
00
00
ENDCHAR
STARTCHAR SF360000
ENCODING 9566
SWIDTH 480 0
DWIDTH 6 0
BBX 6 12 0 -3
BITMAP
20
20
20
20
20
3C
20
3C
20
20
20
20
ENDCHAR
STARTCHAR SF370000
ENCODING 9567
SWIDTH 480 0
DWIDTH 6 0
BBX 6 12 0 -3
BITMAP
50
50
50
50
50
50
5C
50
50
50
50
50
ENDCHAR
STARTCHAR SF420000
ENCODING 9568
SWIDTH 480 0
DWIDTH 6 0
BBX 6 12 0 -3
BITMAP
50
50
50
50
50
5C
40
5C
50
50
50
50
ENDCHAR
STARTCHAR SF190000
ENCODING 9569
SWIDTH 480 0
DWIDTH 6 0
BBX 6 12 0 -3
BITMAP
20
20
20
20
20
E0
20
E0
20
20
20
20
ENDCHAR
STARTCHAR SF200000
ENCODING 9570
SWIDTH 480 0
DWIDTH 6 0
BBX 6 12 0 -3
BITMAP
50
50
50
50
50
50
D0
50
50
50
50
50
ENDCHAR
STARTCHAR SF230000
ENCODING 9571
SWIDTH 480 0
DWIDTH 6 0
BBX 6 12 0 -3
BITMAP
50
50
50
50
50
D0
10
D0
50
50
50
50
ENDCHAR
STARTCHAR SF470000
ENCODING 9572
SWIDTH 480 0
DWIDTH 6 0
BBX 6 12 0 -3
BITMAP
00
00
00
00
00
FC
00
FC
20
20
20
20
ENDCHAR
STARTCHAR SF480000
ENCODING 9573
SWIDTH 480 0
DWIDTH 6 0
BBX 6 12 0 -3
BITMAP
00
00
00
00
00
00
FC
50
50
50
50
50
ENDCHAR
STARTCHAR SF410000
ENCODING 9574
SWIDTH 480 0
DWIDTH 6 0
BBX 6 12 0 -3
BITMAP
00
00
00
00
00
FC
00
DC
50
50
50
50
ENDCHAR
STARTCHAR SF450000
ENCODING 9575
SWIDTH 480 0
DWIDTH 6 0
BBX 6 12 0 -3
BITMAP
20
20
20
20
20
FC
00
FC
00
00
00
00
ENDCHAR
STARTCHAR SF460000
ENCODING 9576
SWIDTH 480 0
DWIDTH 6 0
BBX 6 12 0 -3
BITMAP
50
50
50
50
50
50
FC
00
00
00
00
00
ENDCHAR
STARTCHAR SF400000
ENCODING 9577
SWIDTH 480 0
DWIDTH 6 0
BBX 6 12 0 -3
BITMAP
50
50
50
50
50
DC
00
FC
00
00
00
00
ENDCHAR
STARTCHAR SF540000
ENCODING 9578
SWIDTH 480 0
DWIDTH 6 0
BBX 6 12 0 -3
BITMAP
20
20
20
20
20
FC
20
FC
20
20
20
20
ENDCHAR
STARTCHAR SF530000
ENCODING 9579
SWIDTH 480 0
DWIDTH 6 0
BBX 6 12 0 -3
BITMAP
50
50
50
50
50
50
FC
50
50
50
50
50
ENDCHAR
STARTCHAR SF440000
ENCODING 9580
SWIDTH 480 0
DWIDTH 6 0
BBX 6 12 0 -3
BITMAP
50
50
50
50
50
DC
00
DC
50
50
50
50
ENDCHAR
STARTCHAR uni256D
ENCODING 9581
SWIDTH 480 0
DWIDTH 6 0
BBX 6 12 0 -3
BITMAP
00
00
00
00
00
00
0C
10
20
20
20
20
ENDCHAR
STARTCHAR uni256E
ENCODING 9582
SWIDTH 480 0
DWIDTH 6 0
BBX 6 12 0 -3
BITMAP
00
00
00
00
00
00
80
40
20
20
20
20
ENDCHAR
STARTCHAR uni256F
ENCODING 9583
SWIDTH 480 0
DWIDTH 6 0
BBX 6 12 0 -3
BITMAP
20
20
20
20
20
40
80
00
00
00
00
00
ENDCHAR
STARTCHAR uni2570
ENCODING 9584
SWIDTH 480 0
DWIDTH 6 0
BBX 6 12 0 -3
BITMAP
20
20
20
20
20
10
0C
00
00
00
00
00
ENDCHAR
STARTCHAR uni2571
ENCODING 9585
SWIDTH 480 0
DWIDTH 6 0
BBX 6 12 0 -3
BITMAP
04
04
08
08
10
10
20
20
40
40
80
80
ENDCHAR
STARTCHAR uni2572
ENCODING 9586
SWIDTH 480 0
DWIDTH 6 0
BBX 6 12 0 -3
BITMAP
80
80
40
40
20
20
10
10
08
08
04
04
ENDCHAR
STARTCHAR uni2573
ENCODING 9587
SWIDTH 480 0
DWIDTH 6 0
BBX 6 12 0 -3
BITMAP
84
84
48
48
30
30
30
30
48
48
84
84
ENDCHAR
STARTCHAR uni2574
ENCODING 9588
SWIDTH 480 0
DWIDTH 6 0
BBX 6 12 0 -3
BITMAP
00
00
00
00
00
00
E0
00
00
00
00
00
ENDCHAR
STARTCHAR uni2575
ENCODING 9589
SWIDTH 480 0
DWIDTH 6 0
BBX 6 12 0 -3
BITMAP
20
20
20
20
20
20
00
00
00
00
00
00
ENDCHAR
STARTCHAR uni2576
ENCODING 9590
SWIDTH 480 0
DWIDTH 6 0
BBX 6 12 0 -3
BITMAP
00
00
00
00
00
00
3F
00
00
00
00
00
ENDCHAR
STARTCHAR uni2577
ENCODING 9591
SWIDTH 480 0
DWIDTH 6 0
BBX 6 12 0 -3
BITMAP
00
00
00
00
00
00
20
20
20
20
20
20
ENDCHAR
STARTCHAR uni2578
ENCODING 9592
SWIDTH 480 0
DWIDTH 6 0
BBX 6 12 0 -3
BITMAP
00
00
00
00
00
E0
E0
00
00
00
00
00
ENDCHAR
STARTCHAR uni2579
ENCODING 9593
SWIDTH 480 0
DWIDTH 6 0
BBX 6 12 0 -3
BITMAP
30
30
30
30
30
30
00
00
00
00
00
00
ENDCHAR
STARTCHAR uni257A
ENCODING 9594
SWIDTH 480 0
DWIDTH 6 0
BBX 6 12 0 -3
BITMAP
00
00
00
00
00
3F
3F
00
00
00
00
00
ENDCHAR
STARTCHAR uni257B
ENCODING 9595
SWIDTH 480 0
DWIDTH 6 0
BBX 6 12 0 -3
BITMAP
00
00
00
00
00
00
30
30
30
30
30
30
ENDCHAR
STARTCHAR uni257C
ENCODING 9596
SWIDTH 480 0
DWIDTH 6 0
BBX 6 12 0 -3
BITMAP
00
00
00
00
00
3F
FF
00
00
00
00
00
ENDCHAR
STARTCHAR uni257D
ENCODING 9597
SWIDTH 480 0
DWIDTH 6 0
BBX 6 12 0 -3
BITMAP
20
20
20
20
20
20
30
30
30
30
30
30
ENDCHAR
STARTCHAR uni257E
ENCODING 9598
SWIDTH 480 0
DWIDTH 6 0
BBX 6 12 0 -3
BITMAP
00
00
00
00
00
E0
FF
00
00
00
00
00
ENDCHAR
STARTCHAR uni257F
ENCODING 9599
SWIDTH 480 0
DWIDTH 6 0
BBX 6 12 0 -3
BITMAP
30
30
30
30
30
30
20
20
20
20
20
20
ENDCHAR
STARTCHAR upblock
ENCODING 9600
SWIDTH 480 0
DWIDTH 6 0
BBX 6 12 0 -3
BITMAP
FC
FC
FC
FC
FC
FC
00
00
00
00
00
00
ENDCHAR
STARTCHAR uni2581
ENCODING 9601
SWIDTH 480 0
DWIDTH 6 0
BBX 6 12 0 -3
BITMAP
00
00
00
00
00
00
00
00
00
00
00
FC
ENDCHAR
STARTCHAR uni2582
ENCODING 9602
SWIDTH 480 0
DWIDTH 6 0
BBX 6 12 0 -3
BITMAP
00
00
00
00
00
00
00
00
00
FC
FC
FC
ENDCHAR
STARTCHAR uni2583
ENCODING 9603
SWIDTH 480 0
DWIDTH 6 0
BBX 6 12 0 -3
BITMAP
00
00
00
00
00
00
00
FC
FC
FC
FC
FC
ENDCHAR
STARTCHAR dnblock
ENCODING 9604
SWIDTH 480 0
DWIDTH 6 0
BBX 6 12 0 -3
BITMAP
00
00
00
00
00
00
FC
FC
FC
FC
FC
FC
ENDCHAR
STARTCHAR uni2585
ENCODING 9605
SWIDTH 480 0
DWIDTH 6 0
BBX 6 12 0 -3
BITMAP
00
00
00
00
00
FC
FC
FC
FC
FC
FC
FC
ENDCHAR
STARTCHAR uni2586
ENCODING 9606
SWIDTH 480 0
DWIDTH 6 0
BBX 6 12 0 -3
BITMAP
00
00
00
FC
FC
FC
FC
FC
FC
FC
FC
FC
ENDCHAR
STARTCHAR uni2587
ENCODING 9607
SWIDTH 480 0
DWIDTH 6 0
BBX 6 12 0 -3
BITMAP
00
FC
FC
FC
FC
FC
FC
FC
FC
FC
FC
FC
ENDCHAR
STARTCHAR block
ENCODING 9608
SWIDTH 480 0
DWIDTH 6 0
BBX 6 12 0 -3
BITMAP
FC
FC
FC
FC
FC
FC
FC
FC
FC
FC
FC
FC
ENDCHAR
STARTCHAR uni2589
ENCODING 9609
SWIDTH 480 0
DWIDTH 6 0
BBX 6 12 0 -3
BITMAP
F8
F8
F8
F8
F8
F8
F8
F8
F8
F8
F8
F8
ENDCHAR
STARTCHAR uni258A
ENCODING 9610
SWIDTH 480 0
DWIDTH 6 0
BBX 6 12 0 -3
BITMAP
F0
F0
F0
F0
F0
F0
F0
F0
F0
F0
F0
F0
ENDCHAR
STARTCHAR uni258B
ENCODING 9611
SWIDTH 480 0
DWIDTH 6 0
BBX 6 12 0 -3
BITMAP
F0
F0
F0
F0
F0
F0
F0
F0
F0
F0
F0
F0
ENDCHAR
STARTCHAR lfblock
ENCODING 9612
SWIDTH 480 0
DWIDTH 6 0
BBX 6 12 0 -3
BITMAP
E0
E0
E0
E0
E0
E0
E0
E0
E0
E0
E0
E0
ENDCHAR
STARTCHAR uni258D
ENCODING 9613
SWIDTH 480 0
DWIDTH 6 0
BBX 6 12 0 -3
BITMAP
C0
C0
C0
C0
C0
C0
C0
C0
C0
C0
C0
C0
ENDCHAR
STARTCHAR uni258E
ENCODING 9614
SWIDTH 480 0
DWIDTH 6 0
BBX 6 12 0 -3
BITMAP
C0
C0
C0
C0
C0
C0
C0
C0
C0
C0
C0
C0
ENDCHAR
STARTCHAR uni258F
ENCODING 9615
SWIDTH 480 0
DWIDTH 6 0
BBX 6 12 0 -3
BITMAP
80
80
80
80
80
80
80
80
80
80
80
80
ENDCHAR
STARTCHAR rtblock
ENCODING 9616
SWIDTH 480 0
DWIDTH 6 0
BBX 6 12 0 -3
BITMAP
1C
1C
1C
1C
1C
1C
1C
1C
1C
1C
1C
1C
ENDCHAR
STARTCHAR ltshade
ENCODING 9617
SWIDTH 480 0
DWIDTH 6 0
BBX 6 12 0 -3
BITMAP
A8
00
54
00
A8
00
54
00
A8
00
54
00
ENDCHAR
STARTCHAR shade
ENCODING 9618
SWIDTH 480 0
DWIDTH 6 0
BBX 6 12 0 -3
BITMAP
A8
54
A8
54
A8
54
A8
54
A8
54
A8
54
ENDCHAR
STARTCHAR dkshade
ENCODING 9619
SWIDTH 480 0
DWIDTH 6 0
BBX 6 12 0 -3
BITMAP
A8
FC
54
FC
A8
FC
54
FC
A8
FC
54
FC
ENDCHAR
STARTCHAR uni2594
ENCODING 9620
SWIDTH 480 0
DWIDTH 6 0
BBX 6 12 0 -3
BITMAP
FC
00
00
00
00
00
00
00
00
00
00
00
ENDCHAR
STARTCHAR uni2595
ENCODING 9621
SWIDTH 480 0
DWIDTH 6 0
BBX 6 12 0 -3
BITMAP
04
04
04
04
04
04
04
04
04
04
04
04
ENDCHAR
STARTCHAR uni2596
ENCODING 9622
SWIDTH 480 0
DWIDTH 6 0
BBX 6 12 0 -3
BITMAP
00
00
00
00
00
00
E0
E0
E0
E0
E0
E0
ENDCHAR
STARTCHAR uni2597
ENCODING 9623
SWIDTH 480 0
DWIDTH 6 0
BBX 6 12 0 -3
BITMAP
00
00
00
00
00
00
1C
1C
1C
1C
1C
1C
ENDCHAR
STARTCHAR uni2598
ENCODING 9624
SWIDTH 480 0
DWIDTH 6 0
BBX 6 12 0 -3
BITMAP
E0
E0
E0
E0
E0
E0
00
00
00
00
00
00
ENDCHAR
STARTCHAR uni2599
ENCODING 9625
SWIDTH 480 0
DWIDTH 6 0
BBX 6 12 0 -3
BITMAP
E0
E0
E0
E0
E0
E0
FC
FC
FC
FC
FC
FC
ENDCHAR
STARTCHAR uni259A
ENCODING 9626
SWIDTH 480 0
DWIDTH 6 0
BBX 6 12 0 -3
BITMAP
E0
E0
E0
E0
E0
E0
1C
1C
1C
1C
1C
1C
ENDCHAR
STARTCHAR uni259B
ENCODING 9627
SWIDTH 480 0
DWIDTH 6 0
BBX 6 12 0 -3
BITMAP
FC
FC
FC
FC
FC
FC
E0
E0
E0
E0
E0
E0
ENDCHAR
STARTCHAR uni259C
ENCODING 9628
SWIDTH 480 0
DWIDTH 6 0
BBX 6 12 0 -3
BITMAP
FC
FC
FC
FC
FC
FC
1C
1C
1C
1C
1C
1C
ENDCHAR
STARTCHAR uni259D
ENCODING 9629
SWIDTH 480 0
DWIDTH 6 0
BBX 6 12 0 -3
BITMAP
1C
1C
1C
1C
1C
1C
00
00
00
00
00
00
ENDCHAR
STARTCHAR uni259E
ENCODING 9630
SWIDTH 480 0
DWIDTH 6 0
BBX 6 12 0 -3
BITMAP
1C
1C
1C
1C
1C
1C
E0
E0
E0
E0
E0
E0
ENDCHAR
STARTCHAR uni259F
ENCODING 9631
SWIDTH 480 0
DWIDTH 6 0
BBX 6 12 0 -3
BITMAP
1C
1C
1C
1C
1C
1C
FC
FC
FC
FC
FC
FC
ENDCHAR
STARTCHAR filledbox
ENCODING 9632
SWIDTH 480 0
DWIDTH 6 0
BBX 6 12 0 -3
BITMAP
00
00
00
00
F8
F8
F8
F8
F8
00
00
00
ENDCHAR
STARTCHAR H22073
ENCODING 9633
SWIDTH 480 0
DWIDTH 6 0
BBX 6 12 0 -3
BITMAP
00
00
00
00
F8
88
88
88
F8
00
00
00
ENDCHAR
STARTCHAR H18543
ENCODING 9642
SWIDTH 480 0
DWIDTH 6 0
BBX 6 12 0 -3
BITMAP
00
00
00
00
78
78
78
78
00
00
00
00
ENDCHAR
STARTCHAR H18551
ENCODING 9643
SWIDTH 480 0
DWIDTH 6 0
BBX 6 12 0 -3
BITMAP
00
00
00
00
78
48
48
78
00
00
00
00
ENDCHAR
STARTCHAR filledrect
ENCODING 9644
SWIDTH 480 0
DWIDTH 6 0
BBX 6 12 0 -3
BITMAP
00
00
00
00
FC
FC
FC
FC
00
00
00
00
ENDCHAR
STARTCHAR uni25AD
ENCODING 9645
SWIDTH 480 0
DWIDTH 6 0
BBX 6 12 0 -3
BITMAP
00
00
00
00
FC
84
84
FC
00
00
00
00
ENDCHAR
STARTCHAR uni25AE
ENCODING 9646
SWIDTH 480 0
DWIDTH 6 0
BBX 6 12 0 -3
BITMAP
00
00
00
78
78
78
78
78
78
00
00
00
ENDCHAR
STARTCHAR triagup
ENCODING 9650
SWIDTH 480 0
DWIDTH 6 0
BBX 6 12 0 -3
BITMAP
20
20
20
70
70
70
F8
F8
F8
00
00
00
ENDCHAR
STARTCHAR uni25B3
ENCODING 9651
SWIDTH 480 0
DWIDTH 6 0
BBX 6 12 0 -3
BITMAP
20
20
20
50
50
50
88
88
F8
00
00
00
ENDCHAR
STARTCHAR uni25B6
ENCODING 9654
SWIDTH 480 0
DWIDTH 6 0
BBX 6 12 0 -3
BITMAP
00
00
00
00
C0
F0
F8
F0
C0
00
00
00
ENDCHAR
STARTCHAR uni25B7
ENCODING 9655
SWIDTH 480 0
DWIDTH 6 0
BBX 6 12 0 -3
BITMAP
00
00
00
00
C0
B0
88
B0
C0
00
00
00
ENDCHAR
STARTCHAR uni25B8
ENCODING 9656
SWIDTH 480 0
DWIDTH 6 0
BBX 6 12 0 -3
BITMAP
00
00
00
00
00
60
78
60
00
00
00
00
ENDCHAR
STARTCHAR uni25B9
ENCODING 9657
SWIDTH 480 0
DWIDTH 6 0
BBX 6 12 0 -3
BITMAP
00
00
00
00
00
60
58
60
00
00
00
00
ENDCHAR
STARTCHAR triagrt
ENCODING 9658
SWIDTH 480 0
DWIDTH 6 0
BBX 6 12 0 -3
BITMAP
00
00
00
00
C0
F0
FC
F0
C0
00
00
00
ENDCHAR
STARTCHAR uni25BB
ENCODING 9659
SWIDTH 480 0
DWIDTH 6 0
BBX 6 12 0 -3
BITMAP
00
00
00
00
C0
B0
8C
B0
C0
00
00
00
ENDCHAR
STARTCHAR triagdn
ENCODING 9660
SWIDTH 480 0
DWIDTH 6 0
BBX 6 12 0 -3
BITMAP
F8
F8
F8
70
70
70
20
20
20
00
00
00
ENDCHAR
STARTCHAR uni25BD
ENCODING 9661
SWIDTH 480 0
DWIDTH 6 0
BBX 6 12 0 -3
BITMAP
F8
88
88
50
50
50
20
20
20
00
00
00
ENDCHAR
STARTCHAR uni25C0
ENCODING 9664
SWIDTH 480 0
DWIDTH 6 0
BBX 6 12 0 -3
BITMAP
00
00
00
00
18
78
F8
78
18
00
00
00
ENDCHAR
STARTCHAR uni25C1
ENCODING 9665
SWIDTH 480 0
DWIDTH 6 0
BBX 6 12 0 -3
BITMAP
00
00
00
00
18
68
88
68
18
00
00
00
ENDCHAR
STARTCHAR uni25C2
ENCODING 9666
SWIDTH 480 0
DWIDTH 6 0
BBX 6 12 0 -3
BITMAP
00
00
00
00
00
18
78
18
00
00
00
00
ENDCHAR
STARTCHAR uni25C3
ENCODING 9667
SWIDTH 480 0
DWIDTH 6 0
BBX 6 12 0 -3
BITMAP
00
00
00
00
00
18
68
18
00
00
00
00
ENDCHAR
STARTCHAR triaglf
ENCODING 9668
SWIDTH 480 0
DWIDTH 6 0
BBX 6 12 0 -3
BITMAP
00
00
00
00
0C
3C
FC
3C
0C
00
00
00
ENDCHAR
STARTCHAR uni25C5
ENCODING 9669
SWIDTH 480 0
DWIDTH 6 0
BBX 6 12 0 -3
BITMAP
00
00
00
00
0C
34
C4
34
0C
00
00
00
ENDCHAR
STARTCHAR uni25C6
ENCODING 9670
SWIDTH 480 0
DWIDTH 6 0
BBX 6 12 0 -3
BITMAP
00
00
00
00
20
70
F8
70
20
00
00
00
ENDCHAR
STARTCHAR lozenge
ENCODING 9674
SWIDTH 480 0
DWIDTH 6 0
BBX 6 12 0 -3
BITMAP
00
20
20
50
50
88
88
50
50
20
20
00
ENDCHAR
STARTCHAR circle
ENCODING 9675
SWIDTH 480 0
DWIDTH 6 0
BBX 6 12 0 -3
BITMAP
00
00
00
00
70
88
88
88
70
00
00
00
ENDCHAR
STARTCHAR H18533
ENCODING 9679
SWIDTH 480 0
DWIDTH 6 0
BBX 6 12 0 -3
BITMAP
00
00
00
00
70
F8
F8
F8
70
00
00
00
ENDCHAR
STARTCHAR invbullet
ENCODING 9688
SWIDTH 480 0
DWIDTH 6 0
BBX 6 12 0 -3
BITMAP
FC
FC
FC
FC
CC
84
84
CC
FC
FC
FC
FC
ENDCHAR
STARTCHAR invcircle
ENCODING 9689
SWIDTH 480 0
DWIDTH 6 0
BBX 6 12 0 -3
BITMAP
FC
FC
FC
FC
CC
B4
B4
CC
FC
FC
FC
FC
ENDCHAR
STARTCHAR openbullet
ENCODING 9702
SWIDTH 480 0
DWIDTH 6 0
BBX 6 12 0 -3
BITMAP
00
00
00
00
30
48
48
30
00
00
00
00
ENDCHAR
STARTCHAR uni2639
ENCODING 9785
SWIDTH 480 0
DWIDTH 6 0
BBX 6 12 0 -3
BITMAP
00
00
00
00
48
00
30
48
00
00
00
00
ENDCHAR
STARTCHAR smileface
ENCODING 9786
SWIDTH 480 0
DWIDTH 6 0
BBX 6 12 0 -3
BITMAP
00
00
00
00
48
00
48
30
00
00
00
00
ENDCHAR
STARTCHAR invsmileface
ENCODING 9787
SWIDTH 480 0
DWIDTH 6 0
BBX 6 12 0 -3
BITMAP
00
00
78
FC
B4
FC
B4
CC
78
00
00
00
ENDCHAR
STARTCHAR sun
ENCODING 9788
SWIDTH 480 0
DWIDTH 6 0
BBX 6 12 0 -3
BITMAP
00
00
20
A8
70
D8
70
A8
20
00
00
00
ENDCHAR
STARTCHAR female
ENCODING 9792
SWIDTH 480 0
DWIDTH 6 0
BBX 6 12 0 -3
BITMAP
00
00
00
00
70
88
88
88
70
20
70
20
ENDCHAR
STARTCHAR uni2641
ENCODING 9793
SWIDTH 480 0
DWIDTH 6 0
BBX 6 12 0 -3
BITMAP
00
20
70
20
70
88
88
88
70
00
00
00
ENDCHAR
STARTCHAR male
ENCODING 9794
SWIDTH 480 0
DWIDTH 6 0
BBX 6 12 0 -3
BITMAP
00
00
1C
0C
74
88
88
88
70
00
00
00
ENDCHAR
STARTCHAR spade
ENCODING 9824
SWIDTH 480 0
DWIDTH 6 0
BBX 6 12 0 -3
BITMAP
00
30
78
FC
FC
FC
78
30
78
00
00
00
ENDCHAR
STARTCHAR club
ENCODING 9827
SWIDTH 480 0
DWIDTH 6 0
BBX 6 12 0 -3
BITMAP
30
78
30
B4
FC
FC
B4
30
78
00
00
00
ENDCHAR
STARTCHAR heart
ENCODING 9829
SWIDTH 480 0
DWIDTH 6 0
BBX 6 12 0 -3
BITMAP
00
00
50
F8
F8
F8
70
70
20
00
00
00
ENDCHAR
STARTCHAR diamond
ENCODING 9830
SWIDTH 480 0
DWIDTH 6 0
BBX 6 12 0 -3
BITMAP
20
20
70
70
F8
70
70
20
20
00
00
00
ENDCHAR
STARTCHAR uni2669
ENCODING 9833
SWIDTH 480 0
DWIDTH 6 0
BBX 6 12 0 -3
BITMAP
00
08
08
08
08
08
38
78
30
00
00
00
ENDCHAR
STARTCHAR musicalnote
ENCODING 9834
SWIDTH 480 0
DWIDTH 6 0
BBX 6 12 0 -3
BITMAP
00
30
28
20
20
20
60
E0
40
00
00
00
ENDCHAR
STARTCHAR musicalnotedbl
ENCODING 9835
SWIDTH 480 0
DWIDTH 6 0
BBX 6 12 0 -3
BITMAP
00
60
58
48
48
48
C8
D8
18
00
00
00
ENDCHAR
STARTCHAR uni266C
ENCODING 9836
SWIDTH 480 0
DWIDTH 6 0
BBX 6 12 0 -3
BITMAP
00
78
48
78
48
48
C8
D8
18
00
00
00
ENDCHAR
STARTCHAR uni266D
ENCODING 9837
SWIDTH 480 0
DWIDTH 6 0
BBX 6 12 0 -3
BITMAP
00
00
80
80
B0
C8
88
90
E0
00
00
00
ENDCHAR
STARTCHAR uni266E
ENCODING 9838
SWIDTH 480 0
DWIDTH 6 0
BBX 6 12 0 -3
BITMAP
00
00
40
48
58
68
48
58
68
48
08
00
ENDCHAR
STARTCHAR uni27E8
ENCODING 10216
SWIDTH 480 0
DWIDTH 6 0
BBX 6 12 0 -3
BITMAP
10
10
20
20
40
20
20
10
10
00
00
00
ENDCHAR
STARTCHAR uni27E9
ENCODING 10217
SWIDTH 480 0
DWIDTH 6 0
BBX 6 12 0 -3
BITMAP
40
40
20
20
10
20
20
40
40
00
00
00
ENDCHAR
STARTCHAR fi
ENCODING 64257
SWIDTH 480 0
DWIDTH 6 0
BBX 6 12 0 -3
BITMAP
00
30
48
40
E8
48
48
48
48
00
00
00
ENDCHAR
STARTCHAR fl
ENCODING 64258
SWIDTH 480 0
DWIDTH 6 0
BBX 6 12 0 -3
BITMAP
00
30
50
50
F0
50
50
50
48
00
00
00
ENDCHAR
STARTCHAR uniFFFD
ENCODING 65533
SWIDTH 480 0
DWIDTH 6 0
BBX 6 12 0 -3
BITMAP
00
70
D8
A8
E8
D8
F8
D8
70
00
00
00
ENDCHAR
ENDFONT
